<?xml version="1.0" encoding="UTF-8" standalone="no"?>
<!-- Created with Inkscape (http://www.inkscape.org/) -->

<svg
   width="186.82402mm"
   height="117.75123mm"
   viewBox="0 0 186.82402 117.75123"
   version="1.1"
   id="svg1"
   xml:space="preserve"
   xmlns="http://www.w3.org/2000/svg"
   xmlns:svg="http://www.w3.org/2000/svg"><defs
     id="defs1" /><g
     id="layer1"
     transform="translate(-13.658643,-59.392626)"><path
       style="fill:#000000"
       d="m 50.457625,176.80819 c -2.495069,-0.41503 -4.334384,-1.0513 -5.917476,-2.04701 -1.589244,-0.99959 -2.008102,-1.70334 -1.740484,-2.92429 0.108721,-0.49602 0.203298,-1.00781 0.21017,-1.13733 0.0077,-0.145 -1.701082,-0.28072 -4.447133,-0.35322 l -4.459629,-0.11774 -1.536576,-0.79392 -1.536577,-0.79391 -5.396584,-0.2035 c -13.137973,-0.49542 -14.398034,-0.95861 -8.911894,-3.27597 2.383528,-1.00681 2.938506,-1.4472 5.225593,-4.14668 1.153741,-1.36178 2.92535,-2.3584 5.824267,-3.27645 1.76257,-0.55818 2.157294,-0.78986 3.118027,-1.8301 2.518735,-2.72718 4.01851,-3.82462 6.413005,-4.69263 1.114234,-0.40391 1.951102,-0.51089 4.069047,-0.52015 2.621767,-0.0115 2.694905,0.003 4.377229,0.86537 0.941002,0.48237 1.710912,0.84123 1.710912,0.79746 0,-0.0438 0.10734,-0.65037 0.238534,-1.348 0.207135,-1.10146 0.399196,-1.40839 1.459108,-2.33181 l 1.220575,-1.06339 -0.490941,-3.17528 c -0.270018,-1.7464 -1.091376,-7.54759 -1.825239,-12.89151 -0.733863,-5.34393 -1.45291,-9.97183 -1.597881,-10.28421 -0.144971,-0.31239 -0.494526,-0.62488 -0.776788,-0.69444 -0.282263,-0.0695 -0.865011,-0.48282 -1.294997,-0.91838 l -0.781792,-0.79192 -0.490753,-6.92949 c -0.532944,-7.52522 -0.522816,-10.75679 0.03579,-11.42097 0.190788,-0.22684 0.805597,-0.612108 1.366242,-0.85615 0.560904,-0.244155 1.019355,-0.606449 1.019355,-0.805552 0,-0.199012 -0.218916,-1.203636 -0.486479,-2.232498 -2.306514,-8.86926 -1.663611,-22.204454 1.496139,-31.033139 1.712927,-4.786104 2.918868,-5.467632 10.473469,-5.919 5.783339,-0.34554 6.683777,-0.08969 8.113363,2.3053 l 0.639076,1.070647 4.572918,-0.154174 c 2.515105,-0.08479 8.782255,-0.220188 13.926999,-0.300871 l 9.35408,-0.146698 1.327492,-1.383299 1.327492,-1.383299 h 7.579356 7.57935 l 1.45838,1.53063 1.45838,1.530631 h 14.25448 14.25448 l 1.5074,-1.669313 1.5074,-1.669312 3.85392,0.154136 c 4.5551,0.182179 8.54928,0.526377 9.75885,0.840968 1.42724,0.371201 2.08863,1.09008 3.31633,3.60461 1.3737,2.813549 2.1859,5.262165 3.13563,9.453324 1.11347,4.913741 1.43599,7.335288 2.03861,15.306303 0.40921,5.412707 0.66479,7.368997 1.20648,9.234728 0.33291,1.14665 0.42268,1.245813 1.34957,1.490856 0.54612,0.144376 1.29968,0.563662 1.67459,0.931742 0.66319,0.65111 0.68164,0.73679 0.68164,3.16446 0,2.69726 -0.60478,11.5597 -0.95472,13.99038 -0.24387,1.69393 -0.65141,2.26737 -2.04756,2.88109 l -0.96358,0.42357 -0.90983,6.07686 c -0.50042,3.34227 -1.39883,9.29844 -1.99647,13.23594 -1.115,7.346 -1.14023,8.26496 -0.22695,8.26496 0.61959,0 1.82245,1.39806 1.82245,2.11819 0,0.88888 0.22222,1.41403 0.59836,1.41403 0.16895,0 1.04783,-0.34439 1.95308,-0.76531 1.49811,-0.6966 1.85084,-0.76532 3.9281,-0.76532 2.10266,0 2.414,0.0626 3.9575,0.79613 1.31997,0.62727 2.15999,1.28606 3.96054,3.10607 2.40343,2.42941 2.6613,2.58705 5.16425,3.15695 2.70606,0.61615 3.96826,1.53597 6.38517,4.65316 1.37426,1.77244 1.49542,1.8633 4.16383,3.12271 2.58027,1.21782 2.74838,1.33944 2.74838,1.98833 0,0.64126 -0.08,0.70295 -1.10767,0.85426 -0.60922,0.0897 -4.8779,0.11484 -9.48595,0.0559 -4.61331,-0.059 -8.4361,-0.0153 -8.50694,0.0972 -0.0707,0.11241 0.0284,0.43969 0.22033,0.72729 0.51252,0.76796 0.88714,2.73401 0.64171,3.36779 -0.27787,0.71753 -1.1131,1.2254 -2.79594,1.70009 -1.15932,0.32702 -2.51131,0.38908 -8.1071,0.37219 -6.01217,-0.0182 -6.90421,-0.0713 -8.51461,-0.50763 -2.7518,-0.7455 -4.43555,-1.426 -5.16051,-2.08564 -0.59628,-0.54255 -0.64528,-0.70879 -0.51855,-1.75931 0.0992,-0.82244 0.056,-1.16086 -0.14856,-1.16258 -1.60964,-0.0136 -6.17899,-0.56643 -6.8055,-0.82344 -0.4454,-0.18271 -0.90255,-0.58988 -1.02905,-0.91654 -0.28643,-0.73966 -0.97392,-1.18364 -2.78026,-1.79548 -1.42076,-0.48124 -1.52063,-0.48216 -25.89078,-0.23877 -14.07032,0.14052 -25.126893,0.34629 -26.023532,0.48432 -0.857457,0.132 -2.410985,0.48782 -3.452283,0.79073 l -1.89327,0.55074 1.692829,0.63509 c 1.831313,0.68704 3.610081,2.25046 4.243678,3.72991 0.689033,1.60889 -0.139027,2.02732 -5.47756,2.76783 -3.011329,0.4177 -4.490553,0.50377 -7.075522,0.41168 -3.65775,-0.1303 -5.331156,-0.59183 -6.746,-1.86057 -0.665626,-0.59688 -0.759005,-0.81299 -0.646195,-1.49551 0.160963,-0.97384 0.8633,-1.92578 1.998325,-2.70852 0.469513,-0.32379 1.193821,-0.87256 1.609573,-1.21948 0.704265,-0.58767 0.723654,-0.64303 0.283784,-0.81025 -0.60806,-0.23115 -10.417642,1.34348 -11.154331,1.79049 -0.224359,0.13614 -0.110275,0.76116 0.473448,2.59383 0.871396,2.73586 0.809625,3.19832 -0.534697,4.00312 -1.081881,0.64769 -4.777922,1.81862 -6.660679,2.11015 -2.157275,0.33403 -8.357362,0.26307 -10.673245,-0.12216 z m 10.772816,-3.16511 c 1.343661,-0.67099 3.738447,-2.78918 3.737104,-3.30547 -0.0031,-1.1728 -2.46942,-3.38671 -4.735606,-4.25086 -2.216684,-0.84527 -3.552369,-0.72635 -6.656288,0.59263 -5.137813,2.18326 -8.067085,4.04423 -7.72868,4.91004 0.186878,0.47813 1.975763,1.38247 4.293497,2.17049 1.650615,0.5612 2.001487,0.59335 5.833665,0.5345 3.807881,-0.0585 4.155351,-0.10154 5.256308,-0.65133 z m 26.398625,-1.82482 c 1.727069,-0.54562 2.040242,-0.57855 3.210387,-0.33757 0.713147,0.14686 1.389984,0.21037 1.504081,0.14114 0.687521,-0.41718 -0.649299,-1.82191 -2.0054,-2.10728 -0.431888,-0.0909 -1.836364,-0.63617 -3.121057,-1.21173 -3.271512,-1.4657 -3.518076,-1.48013 -5.819034,-0.34045 -2.560009,1.26799 -3.794865,2.27327 -3.486742,2.83853 0.364189,0.6681 2.602711,1.47943 4.566059,1.65493 2.194413,0.19614 2.717652,0.13139 5.151706,-0.63757 z M 174.62,170.81651 c 3.88893,-0.27533 4.51619,-0.45592 4.51619,-1.30022 0,-0.94283 -0.57553,-1.81908 -2.08676,-3.17714 -2.54027,-2.2828 -6.90088,-3.75729 -9.15274,-3.0949 -2.22431,0.65429 -7.22882,4.73274 -7.22882,5.89116 0,0.55548 1.17703,1.44268 2.24611,1.69305 1.11397,0.26089 7.95088,0.25391 11.70602,-0.012 z M 38.915351,167.52798 c 2.028049,-0.50924 5.629305,-2.22985 5.850245,-2.79513 0.178276,-0.45612 -1.272953,-1.70837 -2.905429,-2.50706 -0.833473,-0.40777 -1.604925,-0.59227 -2.476494,-0.59227 -1.200365,0 -1.351771,0.0726 -2.924043,1.40113 -2.544086,2.14976 -3.201252,3.49479 -2.191759,4.48591 0.629368,0.61791 2.206203,0.62043 4.64748,0.007 z m 121.122819,-2.50683 c 1.62617,-1.25309 1.55594,-1.6568 -0.22023,-1.26599 -1.25541,0.27622 -3.94703,1.58169 -3.94703,1.91435 0,0.11147 -0.004,0.28215 -0.009,0.37929 -0.0151,0.28176 1.51031,0.45146 2.17304,0.24175 0.33252,-0.10522 1.23417,-0.67645 2.00366,-1.2694 z m -133.205593,0.0353 c 3.263077,-0.48976 4.486651,-0.9198 6.116129,-2.14958 0.791499,-0.59736 2.291924,-1.71616 3.334277,-2.48623 l 1.895188,-1.40013 2.135607,0.0702 c 2.029923,0.0667 2.157719,0.0415 2.58243,-0.51089 1.730421,-2.25047 -0.280029,-4.84047 -3.983931,-5.13237 -2.10414,-0.16583 -3.180279,0.40403 -5.49969,2.9123 -2.022641,2.18734 -2.560552,2.51837 -5.678061,3.49421 -1.558262,0.48776 -2.384338,0.90519 -3.219208,1.62669 -1.119883,0.96781 -2.479705,2.81074 -2.479705,3.36068 0,0.61108 1.662107,0.68561 4.796964,0.2151 z m 162.856933,-0.34459 c 0,-0.3331 -1.15638,-1.15384 -2.36562,-1.67901 -1.04299,-0.45296 -4.52503,-1.16386 -5.70072,-1.16386 -0.81275,0 -0.70689,0.31771 0.42196,1.26638 1.02248,0.85926 1.97672,1.151 5.04085,1.54111 2.17187,0.27651 2.60353,0.28237 2.60353,0.0354 z m -135.391852,-0.8389 c 2.878448,-0.98728 3.990802,-1.02608 6.486419,-0.22626 2.163392,0.69334 3.742177,0.63072 5.450609,-0.21621 0.859528,-0.42609 1.024796,-0.62622 1.095023,-1.32602 0.09915,-0.98798 -0.354914,-4.44839 -0.810462,-6.17653 -0.435126,-1.65067 -1.830237,-2.8673 -5.144892,-4.48669 l -2.514769,-1.2286 h -3.643348 c -3.32737,0 -3.702109,0.0429 -4.320904,0.49494 -0.587898,0.42945 -0.688016,0.67873 -0.756596,1.88385 -0.162514,2.85579 1.132198,12.10333 1.69454,12.10333 0.0376,0 1.146569,-0.36982 2.46438,-0.82181 z m 1.177821,-3.51552 c -1.507241,-0.64435 -2.021724,-3.0709 -0.922926,-4.35297 1.148236,-1.33976 3.264967,-1.49169 4.665277,-0.33486 0.616815,0.50957 0.713799,0.74988 0.713799,1.7687 0,2.56316 -2.088512,3.9313 -4.45615,2.91913 z m 2.048208,-1.30926 c 0.241285,-0.12678 0.550578,-0.5456 0.687318,-0.93071 0.206432,-0.58139 0.167062,-0.802 -0.232029,-1.30012 -0.624623,-0.77962 -1.472902,-0.77135 -2.107358,0.0205 -0.644057,0.80388 -0.62666,1.15761 0.09161,1.8628 0.646751,0.63498 0.904209,0.69231 1.560456,0.34749 z m 135.283843,5.30695 c 0,-0.1868 -0.51385,-1.00766 -1.14189,-1.82412 -1.39034,-1.80747 -2.71562,-2.62065 -6.05993,-3.71837 -2.4526,-0.80502 -2.53741,-0.85769 -4.87685,-3.02848 -1.30947,-1.21507 -2.7397,-2.35642 -3.1783,-2.53634 -1.23297,-0.50579 -2.7185,-0.40483 -4.11801,0.27988 -1.7737,0.86779 -2.4512,1.74138 -2.4512,3.1607 0,1.52329 0.66827,2.27555 3.00067,3.37778 l 1.8217,0.86088 h 5.0141 5.0141 l 3.18799,1.8665 c 3.30446,1.93468 3.78762,2.13388 3.78762,1.56157 z m -36.66637,-1.10339 c 2.61097,-1.09298 2.98426,-1.18282 5.60402,-1.34872 l 2.39647,-0.15177 0.40853,-2.11933 c 0.52635,-2.73056 1.00413,-7.50658 0.82215,-8.21844 -0.24379,-0.95367 -1.33551,-1.20083 -5.30408,-1.20083 h -3.59772 l -1.79117,0.91186 c -2.74693,1.39843 -5.02171,2.95369 -5.41652,3.70329 -0.45271,0.85949 -1.35985,6.05103 -1.26138,7.2188 0.0632,0.74907 0.20524,0.94488 0.94228,1.29875 1.04209,0.50033 3.35687,0.87797 4.55909,0.74378 0.47843,-0.0534 1.66567,-0.43022 2.63833,-0.83739 z m 0.32705,-3.37059 c -1.58564,-1.65066 -1.24343,-3.77639 0.74711,-4.64087 1.45438,-0.63163 2.55017,-0.46663 3.6121,0.54389 0.6932,0.65965 0.79985,0.91565 0.79985,1.92005 0,1.03224 -0.10178,1.25885 -0.93118,2.07314 -0.84516,0.82977 -1.04748,0.91422 -2.19027,0.91422 -1.1242,0 -1.34251,-0.0868 -2.03761,-0.81043 z m 2.84815,-1.09051 c 0.72241,-0.5579 0.81159,-1.28159 0.23502,-1.90709 -0.4506,-0.48884 -1.75652,-0.57699 -2.19341,-0.14806 -0.41567,0.4081 -0.35355,1.61062 0.10913,2.11257 0.5177,0.56164 1.06986,0.54449 1.84926,-0.0574 z m -13.63639,2.07755 c 0.0922,-0.67995 0.41334,-2.43653 0.71374,-3.9035 0.38792,-1.89437 0.46751,-2.69679 0.27469,-2.76926 -0.42087,-0.15817 -77.803713,0.002 -77.966022,0.16138 -0.07896,0.0775 0.07395,1.22447 0.339804,2.54874 0.265856,1.32427 0.483375,3.03577 0.483375,3.80334 v 1.39558 h 37.993433 37.99343 z m 1.43648,-9.79873 c 0.73929,-0.12202 0.95939,-0.26457 0.95939,-0.62133 0,-0.58824 -1.02857,-0.78553 -4.31726,-0.82807 -2.09331,-0.0271 -5.19029,-0.35182 -4.19735,-0.44012 3.11842,-0.27733 7.14254,-0.77283 8.00204,-0.98532 1.02623,-0.2537 1.12713,-0.35012 1.55037,-1.48148 0.24899,-0.66557 0.51689,-1.54229 0.59535,-1.94826 0.131,-0.67785 0.0824,-0.74999 -0.59534,-0.88306 -0.98958,-0.19431 -57.320966,-0.18548 -71.873538,0.0113 l -11.552126,0.15618 v 0.62527 c 0,1.00998 0.692945,3.00954 1.267328,3.657 0.43687,0.49245 0.819863,0.62501 2.150509,0.74435 0.890436,0.0799 1.618975,0.22018 1.618975,0.31182 0,0.0916 -0.709957,0.28212 -1.577683,0.42329 -1.753619,0.28529 -2.410784,0.64585 -2.019917,1.10824 0.193261,0.22863 8.676559,0.29277 39.637872,0.29973 21.66559,0.005 39.82372,-0.0624 40.35138,-0.14951 z m 6.86579,-1.76686 c 1.80082,-0.77791 4.195,-1.32702 5.78591,-1.32702 2.6759,0 2.25859,1.23603 4.22649,-12.51829 0.95134,-6.64925 1.79132,-12.53868 1.86662,-13.08762 0.18289,-1.33327 -0.20901,-1.45366 -2.06704,-0.635 -1.58586,0.69873 -1.81693,0.66863 -3.19291,-0.41599 -0.45381,-0.35772 -1.14196,-0.57245 -2.15863,-0.67358 -0.82085,-0.0817 -1.53422,-0.11492 -1.58527,-0.0739 -0.051,0.041 -0.45859,2.70037 -0.90564,5.90971 -0.44705,3.20934 -1.40365,9.50626 -2.12578,13.99317 -1.21846,7.57086 -1.45488,9.38537 -1.22287,9.38537 0.0495,0 0.67015,-0.25058 1.37912,-0.55683 z m -90.79228,-0.32623 c -0.491273,-2.31104 -2.193644,-12.92716 -3.124739,-19.4861 -0.606728,-4.27399 -1.206474,-8.00932 -1.33277,-8.30073 -0.323629,-0.74672 -2.3427,-0.76996 -3.020388,-0.0348 -0.597975,0.64873 -1.612003,1.1533 -2.317751,1.1533 -0.310714,0 -0.930667,-0.26491 -1.377674,-0.5887 -0.480855,-0.34831 -1.136511,-0.58871 -1.605611,-0.58871 -0.7092,0 -0.792871,0.0699 -0.792871,0.66186 0,0.36403 0.487051,4.15234 1.082336,8.41847 0.595285,4.26614 1.246414,8.97523 1.446955,10.46465 0.632056,4.69431 1.078656,6.78243 1.4832,6.93484 0.204215,0.0769 1.3547,0.24161 2.556634,0.36595 2.300566,0.23798 2.881488,0.37631 4.823665,1.14861 0.659582,0.26228 1.450663,0.48182 1.757956,0.48788 0.48461,0.01 0.540458,-0.0749 0.421058,-0.63656 z m 80.7542,-7.58535 c 2.7404,-0.14505 5.20496,-0.3445 5.47681,-0.44324 0.33829,-0.12286 -0.40148,-0.30914 -2.34421,-0.59029 -5.00685,-0.72457 -11.67141,-1.84433 -12.17946,-2.04634 -0.42607,-0.16942 -0.39537,-0.19754 0.22674,-0.20773 0.39575,-0.006 3.25594,0.19845 6.35598,0.45539 3.10004,0.25693 6.46315,0.46745 7.47358,0.46781 l 1.83716,6.6e-4 0.27787,-1.61744 c 0.15283,-0.8896 0.24353,-2.02784 0.20156,-2.52944 -0.0755,-0.90242 -0.0889,-0.91367 -1.27556,-1.07294 -4.94609,-0.66382 -32.64116,-1.21416 -34.59905,-0.68753 -0.84163,0.22638 -1.29655,0.60227 -2.59786,2.14656 -0.86766,1.02967 -1.88227,2.08514 -2.25468,2.34549 -1.86713,1.30531 -3.93262,-0.0271 -6.35942,-4.10246 -0.21297,-0.35764 -1.05961,-0.42877 -7.555216,-0.63469 -4.023454,-0.12755 -7.908994,-0.29781 -8.634535,-0.37834 l -1.319165,-0.14643 1.079317,-0.16596 c 0.593624,-0.0913 2.806224,-0.23485 4.916888,-0.31905 2.110664,-0.0842 4.299241,-0.20954 4.863505,-0.27854 l 1.025934,-0.12544 -0.990953,-1.10314 c -1.266104,-1.40944 -2.142653,-3.10519 -2.184763,-4.22658 -0.01817,-0.48386 0.105826,-1.4821 0.275547,-2.21832 0.388115,-1.68356 0.22777,-2.2923 -0.779409,-2.95897 -0.736073,-0.48721 -1.072334,-0.52983 -4.18065,-0.52983 -3.854946,0 -16.749081,0.77038 -21.811345,1.30315 -3.387525,0.35652 -5.83912,0.89019 -5.83912,1.27108 0,0.42702 0.884876,0.48424 3.924633,0.2538 2.845982,-0.21575 13.99675,-0.69775 16.322553,-0.70555 0.516673,-0.002 0.872366,0.0627 0.790427,0.14312 -0.173403,0.17025 -1.680593,0.32901 -10.963988,1.15489 -3.759621,0.33447 -7.53723,0.70628 -8.394687,0.82623 -0.857457,0.11996 -1.654465,0.2202 -1.771127,0.22277 -0.349295,0.008 -0.0058,3.23722 0.410675,3.86129 0.269676,0.40409 0.757787,0.65361 1.643323,0.84006 1.125127,0.23691 11.699705,0.70338 16.206693,0.71493 0.956395,0.002 1.738899,0.0958 1.738899,0.20752 0,0.38845 -6.640176,0.88981 -14.216138,1.07336 -2.608174,0.0632 -4.847757,0.17899 -4.97685,0.25732 -0.372415,0.22598 -0.278318,1.4546 0.352472,4.60224 0.831429,4.14882 0.931754,4.37606 2.004711,4.54061 0.869536,0.13336 8.263771,0.56508 12.27869,0.71691 5.132196,0.19407 60.992939,-0.076 65.544219,-0.31694 z m -33.33474,-7.06178 c 0.81654,-0.70387 1.19457,-1.39453 2.10088,-3.83833 0.72073,-1.94338 0.95101,-2.10992 2.6556,-1.92058 2.57683,0.28622 4.52778,-0.89309 4.52778,-2.73698 0,-1.14922 -0.84894,-3.8338 -1.56406,-4.946 -0.63369,-0.98556 -2.21098,-2.34697 -2.71912,-2.34697 -0.26331,0 -0.30231,0.24281 -0.17966,1.11853 0.0862,0.6152 0.22258,2.03678 0.30315,3.15907 0.13081,1.82207 0.0915,2.12794 -0.36744,2.85694 -0.56651,0.89995 -1.25696,1.24412 -2.9604,1.47567 -0.62235,0.0846 -1.24029,0.28244 -1.37319,0.43966 -0.1329,0.15723 -0.41583,0.96695 -0.62873,1.79939 -0.21291,0.83244 -0.58284,1.71221 -0.82209,1.95505 -0.42498,0.43136 -0.44518,0.42992 -0.87804,-0.0625 -0.24368,-0.27722 -0.71289,-1.1523 -1.04268,-1.94462 -0.56823,-1.36517 -0.69345,-1.49278 -2.39233,-2.4379 -1.23214,-0.68546 -1.88501,-1.20951 -2.08786,-1.6759 -0.32913,-0.75675 -0.37771,-3.31267 -0.0995,-5.23409 0.13367,-0.92305 0.10279,-1.28871 -0.11578,-1.37105 -0.89612,-0.33761 -3.357473,1.97703 -4.380307,4.1192 -0.492384,1.03123 -0.638094,1.69744 -0.638094,2.91748 0,2.23924 0.183906,2.37415 3.461031,2.539 2.07982,0.10462 2.7202,0.22117 3.10791,0.56566 0.26858,0.23863 0.89636,1.40038 1.39508,2.58166 1.55669,3.68728 2.89723,4.53981 4.69783,2.98764 z m 41.34694,-3.36721 c 0.80564,-0.79119 0.0115,-1.09891 -4.13955,-1.6041 -2.10011,-0.25559 -3.98028,-0.50575 -4.17816,-0.55593 -0.19787,-0.0502 1.63697,-0.0884 4.07742,-0.085 l 4.43719,0.006 0.41936,-0.79391 c 0.50054,-0.94758 0.54623,-2.1641 0.0951,-2.5317 -0.17876,-0.14565 -0.7454,-0.41608 -1.25921,-0.60094 l -0.93418,-0.33612 0.83946,-0.0202 c 0.9907,-0.0238 1.56739,-0.32512 1.3335,-0.69667 -0.95795,-1.52177 -13.26096,-3.08221 -24.31087,-3.08345 -5.54285,-6.2e-4 -6.37468,0.1577 -6.65832,1.26724 -0.20268,0.79284 0.31077,2.44999 0.84629,2.73137 0.25068,0.13172 1.51521,0.25203 2.81007,0.26735 2.02961,0.024 4.05091,0.26781 3.67345,0.44306 -0.066,0.0306 -1.56836,0.12264 -3.33868,0.20447 l -3.21875,0.1488 -0.44576,1.31526 c -0.25556,0.75404 -0.95457,1.9352 -1.63817,2.7681 -0.65583,0.79905 -1.19241,1.50814 -1.19241,1.57576 0,0.0676 7.28158,0.0936 16.1813,0.0577 15.03885,-0.0606 16.21093,-0.0943 16.60092,-0.47734 z m -45.06719,-10.46685 c 0.49759,-0.8696 1.27966,-1.2487 2.56452,-1.24312 2.11982,0.009 2.95935,1.1903 3.17561,4.46766 l 0.13708,2.07721 0.56555,-0.65988 c 0.76149,-0.88851 0.73783,-1.98572 -0.14933,-6.92481 l -0.71454,-3.97811 0.81136,-1.08475 c 0.44625,-0.59661 1.14563,-1.37697 1.55418,-1.73414 0.40855,-0.35716 0.7414,-0.83401 0.73968,-1.05967 -0.002,-0.22565 -0.53019,-1.18303 -1.17436,-2.12751 -1.87423,-2.74797 -1.89706,-2.85792 -0.89933,-4.33159 0.46588,-0.6881 1.49534,-2.09884 2.28769,-3.13495 1.36273,-1.781991 1.41219,-1.892138 0.91469,-2.036995 -0.68587,-0.199707 -15.86904,-0.246382 -16.06968,-0.0494 -0.17259,0.169457 0.55028,1.102767 3.25035,4.196535 1.02171,1.17069 1.85818,2.20668 1.85882,2.30221 6.5e-4,0.0955 -0.6995,1.10221 -1.55589,2.23707 -0.85638,1.13487 -1.55744,2.22235 -1.5579,2.41662 -4.6e-4,0.19427 0.29594,0.67112 0.65867,1.05966 2.34799,2.51506 2.69614,3.01376 2.69455,3.85973 -8.7e-4,0.46745 -0.21602,2.06852 -0.4781,3.55794 -0.26209,1.48943 -0.47723,3.5341 -0.47811,4.54373 -0.001,1.6922 0.05,1.88547 0.65799,2.47256 l 0.65959,0.63687 0.12532,-2.47256 c 0.0689,-1.35991 0.25865,-2.70555 0.42159,-2.99031 z m 3.75322,4.50412 c 0.87001,-0.85417 0.0343,-4.33959 -1.04049,-4.33959 -1.31321,0 -2.08561,2.02667 -1.47017,3.85752 0.26319,0.78297 0.36139,0.85211 1.2101,0.85211 0.51989,0 1.08842,-0.16176 1.30056,-0.37004 z m -11.04397,-7.2491 c 2.40628,-1.21564 3.98558,-2.38743 3.98558,-2.95718 0,-0.22607 -0.56953,-1.03841 -1.26561,-1.80519 -0.69609,-0.76678 -1.56033,-1.74759 -1.92054,-2.17957 l -0.654917,-0.78543 0.529647,-0.7452 c 0.29131,-0.40987 1.10089,-1.41273 1.79907,-2.22858 l 1.26941,-1.48338 -2.12945,-2.76863 c -3.634744,-4.725748 -4.414255,-5.274224 -5.525191,-3.88761 -0.45684,0.570205 -0.496628,0.92783 -0.491223,4.41528 0.0096,6.21217 0.424882,14.75631 0.735001,15.12318 0.480705,0.56867 1.572665,0.36098 3.668223,-0.69769 z m 22.11691,0.52941 c 0.4194,-0.45553 0.45721,-0.91461 0.46062,-5.59269 0.002,-2.80304 0.0984,-6.95777 0.21407,-9.23274 l 0.21034,-4.136315 -0.66614,-0.514448 c -1.09177,-0.843155 -1.64467,-0.678917 -2.82635,0.839571 -1.89325,2.432872 -4.05078,5.740362 -3.93603,6.033942 0.0618,0.15801 0.78088,1.11333 1.59805,2.12293 1.12434,1.38911 1.45325,1.96282 1.3521,2.35849 -0.0735,0.28757 -0.75729,1.26008 -1.51951,2.16113 -2.21103,2.61378 -2.08325,2.407 -1.73906,2.81417 0.33993,0.40214 3.68141,2.93391 4.43064,3.35701 0.77674,0.43863 1.91441,0.33947 2.42127,-0.21105 z m -58.066054,-0.33196 c 3.957495,-0.18686 11.188919,-0.49928 16.06983,-0.69429 4.880911,-0.19501 9.76482,-0.41858 10.853131,-0.49683 l 1.978748,-0.14227 v -7.02122 -7.02121 l -1.139279,-0.14268 c -2.047461,-0.25643 -45.826778,-0.27472 -46.082971,-0.0193 -0.39402,0.3929 0.666677,14.49814 1.158025,15.39952 0.138691,0.25442 0.495249,0.51582 0.79235,0.58087 0.722283,0.15815 7.56285,-0.0268 16.370166,-0.44264 z m -12.756609,-5.98903 c -0.98193,-0.58782 -1.274511,-1.14657 -1.274511,-2.43397 0,-1.94005 1.467488,-3.36116 3.212701,-3.11117 1.26779,0.1816 2.173307,0.86686 2.631655,1.99153 0.497521,1.22079 0.289613,2.18754 -0.689693,3.207 -0.676308,0.70404 -0.922051,0.80574 -1.945033,0.80497 -0.735936,-5.5e-4 -1.454812,-0.17083 -1.935119,-0.45836 z m 2.693887,-1.53164 c 0.90842,-0.89189 0.747163,-1.79799 -0.425984,-2.39361 -0.689282,-0.34995 -0.743267,-0.33891 -1.410024,0.28825 -0.854154,0.80344 -0.922565,1.79255 -0.160237,2.31678 0.751227,0.5166 1.315602,0.45683 1.996245,-0.21142 z m 115.690746,7.58357 c 0.1747,-0.45627 0.61936,-5.88372 1.13089,-13.80354 l 0.14249,-2.20608 -22.63021,0.17259 c -12.44661,0.0949 -22.67632,0.21455 -22.73268,0.26584 -0.21824,0.19861 -0.4708,5.12102 -0.48367,9.42657 l -0.0135,4.51093 1.13928,0.13188 c 1.50498,0.17422 4.33301,0.32576 13.85124,0.74227 7.48081,0.32734 20.30903,0.96803 22.66565,1.132 0.59363,0.0413 2.35019,0.0936 3.90347,0.11624 2.72695,0.0397 2.83114,0.0229 3.02702,-0.4887 z m -8.20801,-6.52897 c -0.76937,-0.89769 -0.9909,-1.90905 -0.64413,-2.94064 0.30218,-0.89893 1.40092,-1.93193 2.28717,-2.15031 0.87316,-0.21516 2.17067,0.31703 2.98037,1.22243 0.58698,0.65637 0.73153,1.03043 0.73153,1.89303 0,0.9086 -0.12624,1.19896 -0.81548,1.87566 -0.76042,0.74657 -0.92094,0.80063 -2.37716,0.80063 -1.43796,0 -1.60926,-0.0555 -2.1623,-0.7008 z m 3.17791,-1.08624 c 0.87639,-0.72401 0.9318,-1.25626 0.19828,-1.90458 -0.90123,-0.79656 -1.11429,-0.83206 -1.86094,-0.31008 -1.21912,0.85228 -1.33023,1.31695 -0.50795,2.12425 0.87355,0.85766 1.22419,0.87226 2.17061,0.0904 z M 65.545779,98.994004 C 65.924366,98.622685 66.04205,83.28501 65.699347,78.979478 65.031233,70.58565 63.262208,62.361189 62.024574,61.894911 61.591719,61.731833 52.046859,62.15212 51.852633,62.34281 c -0.153144,0.150356 -0.02714,0.634332 1.356451,5.210052 1.453633,4.807363 1.558689,5.908185 1.562413,16.37173 0.0032,8.924569 -0.03126,9.713976 -0.536263,12.29286 -0.296812,1.51572 -0.539658,2.883558 -0.539658,3.039641 0,0.37743 11.456472,0.123082 11.850203,-0.263089 z M 56.813602,64.782346 c -0.738401,-0.365463 -0.915139,-1.227946 -0.314365,-1.534103 0.238859,-0.121724 0.946965,-0.294336 1.573568,-0.383584 l 1.139279,-0.162268 v 0.962183 c 0,0.816166 -0.09336,0.997035 -0.615234,1.191837 -0.795145,0.296809 -1.055785,0.285984 -1.783248,-0.07406 z M 166.47274,99.020545 c -0.35239,-1.618863 -0.81732,-5.719153 -1.1243,-9.915358 -0.592,-8.092024 -1.25157,-12.703288 -2.52617,-17.66112 -1.11587,-4.340422 -2.99794,-8.618808 -4.02997,-9.161078 -0.53834,-0.282865 -8.09159,-0.609866 -9.23261,-0.399706 l -0.86148,0.158671 0.69237,1.152876 c 2.12291,3.534921 3.98352,9.326299 4.88203,15.195944 0.47434,3.098662 0.58344,4.528202 1.00558,13.176645 0.19571,4.009283 0.43649,7.368798 0.53507,7.46559 0.22642,0.222299 3.05274,0.348861 7.37302,0.330161 2.73929,-0.01186 3.34472,-0.07497 3.28646,-0.342625 z M 154.45536,64.7978 c -0.75339,-0.392917 -1.09868,-0.959797 -0.89774,-1.473899 0.1359,-0.34769 0.39056,-0.397024 1.60445,-0.310818 0.9204,0.06536 1.58952,0.246411 1.84777,0.499956 0.37991,0.372993 0.37571,0.426096 -0.0681,0.861791 -0.61715,0.605916 -1.76215,0.800695 -2.48642,0.42297 z M 84.875842,97.3439 c 4.474407,-0.301013 9.958787,-0.894272 11.033017,-1.193469 0.461708,-0.128595 1.986534,-0.29804 3.388501,-0.376543 l 2.54903,-0.142733 0.14718,-1.20252 c 0.27989,-2.286862 0.17715,-5.499948 -0.18729,-5.857758 -0.34563,-0.339337 -4.430795,-0.622073 -9.495144,-0.657163 -3.383013,-0.02344 -1.984954,-0.348512 2.903161,-0.675032 5.766313,-0.385183 6.545093,-0.508273 6.651613,-1.051316 0.0475,-0.242125 -0.0592,-0.530778 -0.23706,-0.641451 -0.37608,-0.233995 -25.648494,-0.279727 -29.644849,-0.05364 l -2.698292,0.152649 v 1.222403 1.222404 l 3.635857,0.154507 c 1.999722,0.08498 4.401202,0.161679 5.336623,0.170444 2.770743,0.02596 1.193114,0.378917 -3.575896,0.800012 -2.374497,0.209664 -4.614079,0.438167 -4.97685,0.507784 l -0.659582,0.126577 0.0033,2.865939 c 0.004,3.53052 0.08195,3.838983 1.048889,4.152291 2.058917,0.667133 8.741969,0.882676 14.777817,0.476618 z m 64.677018,-0.374102 c 2.23565,-0.191581 2.34381,-0.383421 2.43808,-4.324378 0.0768,-3.211666 0.0725,-3.242469 -0.4797,-3.425837 -0.30647,-0.101768 -4.60466,-0.232571 -9.55153,-0.290674 -10.99651,-0.129158 -21.76812,0.37673 -22.28073,1.046414 -0.0798,0.104242 -0.11165,1.428958 -0.0708,2.943813 l 0.0743,2.754282 1.2449,0.344317 c 2.75038,0.760707 4.06745,0.93035 8.32042,1.071703 4.83437,0.160677 17.93471,0.08349 20.3051,-0.11964 z m -32.85835,-1.918701 c 0.24025,-0.926922 -0.32854,-12.856364 -0.76629,-16.071619 -0.79739,-5.856895 -2.25241,-11.432111 -3.8441,-14.729518 -1.26592,-2.622509 -0.91035,-2.493905 -7.02042,-2.539245 -2.90058,-0.02152 -5.355302,0.04012 -5.454933,0.136993 -0.09963,0.09687 0.119695,0.838637 0.487393,1.648371 1.63473,3.599972 2.13579,4.959882 2.89757,7.864256 1.48004,5.64283 2.49601,15.315077 2.12762,20.255518 -0.25783,3.457707 -0.46973,3.255118 3.42902,3.27833 2.1127,0.01258 3.87184,0.152968 4.86741,0.388448 2.46469,0.58297 3.07683,0.539716 3.27673,-0.231534 z m -10.71203,-30.23661 c -1.37197,-0.37443 -1.87496,-1.36668 -0.94143,-1.857192 0.63684,-0.334625 2.21432,-0.08045 2.90411,0.467936 l 0.52493,0.417329 -0.63328,0.621752 c -0.69594,0.683271 -0.65921,0.676336 -1.85433,0.350175 z m 30.64061,22.979039 15.41025,-0.158738 v -0.750424 c 0,-0.412732 -0.15313,-0.956118 -0.34028,-1.207523 -0.32723,-0.439561 -0.78511,-0.460216 -11.93245,-0.538286 -6.37569,-0.04465 -13.56192,-0.0067 -15.9694,0.0844 l -4.37723,0.165587 v 0.931876 c 0,1.347695 0.36489,1.900866 1.15596,1.752458 0.3536,-0.06634 7.57752,-0.192044 16.05315,-0.27935 z M 47.290189,83.335888 c 0.160245,-2.962835 0.826374,-6.615774 1.889408,-10.361191 1.13994,-4.016382 1.167404,-4.170271 0.893051,-5.003984 -0.307915,-0.935702 -0.80774,-0.982317 -1.262453,-0.11774 -0.556297,1.057725 -1.796196,6.360634 -2.062547,8.821278 -0.276532,2.554696 -0.335159,9.106926 -0.08716,9.741425 0.147966,0.378574 0.173073,0.375514 0.324982,-0.03961 0.09054,-0.247434 0.22767,-1.615514 0.304723,-3.040177 z m 91.911271,-0.241597 c 6.33199,-0.188836 11.66356,-0.344186 11.84793,-0.345223 0.27468,-0.0015 0.3055,-0.395212 0.17071,-2.180089 -0.24131,-3.195296 -0.40495,-3.766178 -1.13448,-3.957734 -0.33838,-0.08885 -2.33211,-0.230158 -4.43053,-0.314023 -6.67385,-0.266729 -8.88479,-0.433489 -8.37242,-0.631492 0.26384,-0.101956 1.14437,-0.192822 1.95675,-0.201925 1.80777,-0.02026 6.72307,-0.632346 8.35673,-1.040641 2.18122,-0.545146 1.45022,-1.795577 -1.05515,-1.804904 -0.475,-0.0018 -1.11561,-0.06945 -1.42357,-0.150411 -0.89683,-0.23576 -0.11448,-0.5446 1.3994,-0.552428 1.79509,-0.0093 2.39848,-0.196955 2.39848,-0.745994 0,-0.656919 -0.64868,-1.790888 -1.18595,-2.073195 -0.26224,-0.13779 -2.14568,-0.242463 -4.36276,-0.242463 -2.29479,0 -3.80748,-0.08645 -3.67345,-0.209929 0.12532,-0.115461 1.7389,-0.390601 3.58573,-0.611421 1.84683,-0.220821 3.46118,-0.497993 3.58744,-0.615938 0.43323,-0.404691 -0.47193,-0.91871 -2.27957,-1.29451 -1.45808,-0.303127 -4.25609,-0.394365 -15.17988,-0.494985 -8.97919,-0.08271 -13.47321,-0.04393 -13.63781,0.117676 -0.3369,0.330758 0.42773,2.550394 0.94579,2.745576 0.21684,0.08169 2.55881,0.252275 5.20438,0.379071 5.02885,0.241019 7.431,0.433314 7.27886,0.582681 -0.0495,0.04863 -2.08233,0.200827 -4.51734,0.338221 -7.37732,0.41626 -7.4254,0.423177 -7.4254,1.068218 0,0.59134 1.16736,6.990838 1.29877,7.119848 0.0429,0.04217 2.97926,0.288585 6.52514,0.547598 3.54588,0.259013 6.66292,0.565829 6.92675,0.681812 0.42088,0.18502 0.39147,0.215438 -0.23984,0.248052 -0.39575,0.02044 -3.41784,0.160075 -6.71575,0.310289 l -5.99621,0.273117 0.003,1.493071 c 0.005,2.205248 0.0715,2.233815 4.79373,2.052645 2.11066,-0.08098 9.01829,-0.301733 15.35028,-0.49057 z m -40.414422,-0.0743 2.518402,-0.155062 -0.0552,-1.799319 c -0.0303,-0.989625 -0.33186,-3.192516 -0.67003,-4.895312 -1.15911,-5.8364 -2.335409,-8.955625 -3.666724,-9.723151 -1.264612,-0.729069 -5.689779,-1.008596 -15.515473,-0.980074 -7.105327,0.02063 -9.951892,0.114966 -11.840784,0.392427 -1.367687,0.200901 -2.572936,0.453458 -2.678332,0.561237 -0.105395,0.107779 0.03141,1.441071 0.304005,2.962871 l 0.495633,2.766909 h 1.40716 c 1.563373,0 5.567243,-0.59004 11.318876,-1.668034 4.303537,-0.806585 5.751291,-0.823348 3.152076,-0.0365 -2.065203,0.625192 -10.704124,2.740734 -12.831879,3.142334 -1.745911,0.329529 -2.431527,0.743278 -1.974773,1.191716 0.598428,0.587534 12.357518,0.519121 27.878379,-0.162192 4.115826,-0.180671 1.750948,0.266937 -4.916888,0.930635 -6.857058,0.682532 -13.719842,1.070674 -18.988354,1.073934 -2.000937,0.0012 -3.799856,0.06321 -3.997597,0.137704 -0.290117,0.109302 -0.338347,0.48437 -0.249815,1.942724 0.228865,3.769996 0.331361,4.292789 0.889028,4.534595 0.555151,0.240715 24.903737,0.06077 29.42226,-0.217447 z M 51.45594,78.214163 c -0.06654,-0.161894 -0.120976,-0.02943 -0.120976,0.294352 0,0.323787 0.05444,0.456245 0.120976,0.294352 0.06654,-0.161894 0.06654,-0.426811 0,-0.588704 z"
       id="path1" /></g></svg>
