<?xml version="1.0" encoding="UTF-8" standalone="no"?>
<!-- Created with Inkscape (http://www.inkscape.org/) -->

<svg
   width="210.00011mm"
   height="209.99956mm"
   viewBox="0 0 210.00011 209.99956"
   version="1.1"
   id="svg1"
   xml:space="preserve"
   xmlns="http://www.w3.org/2000/svg"
   xmlns:svg="http://www.w3.org/2000/svg"><defs
     id="defs1" /><g
     id="layer1"
     transform="translate(-2.0706746,-13.268441)"><path
       id="path2"
       style="fill:#ffffff;stroke-width:0.462429"
       d="M 107.07047,13.268441 A 105,105 0 0 0 2.0706746,118.26823 105,105 0 0 0 13.879256,166.64564 c 0.412346,-0.38837 1.391429,-0.87133 2.842204,-1.48415 2.383528,-1.00681 2.938434,-1.44755 5.225521,-4.14703 1.153741,-1.36178 2.925533,-2.35823 5.82445,-3.27628 1.76257,-0.55818 2.156907,-0.78963 3.11764,-1.82987 2.518735,-2.72718 4.01855,-3.82472 6.413045,-4.69273 1.114234,-0.40391 1.951574,-0.51113 4.069519,-0.52039 2.621767,-0.0115 2.69467,0.003 4.376994,0.86558 0.941002,0.48237 1.711006,0.84114 1.711006,0.79737 0,-0.0438 0.107035,-0.65061 0.238229,-1.34824 0.207135,-1.10146 0.39943,-1.40822 1.459342,-2.33164 l 1.220598,-1.0635 -0.490927,-3.175 c -0.270018,-1.7464 -1.091348,-7.5478 -1.825211,-12.89172 -0.733863,-5.34393 -1.452864,-9.97174 -1.597835,-10.28412 -0.144971,-0.31239 -0.494435,-0.62498 -0.776697,-0.69454 -0.282263,-0.0695 -0.865026,-0.48273 -1.295012,-0.91829 l -0.781864,-0.79168 -0.490926,-6.92981 c -0.532944,-7.52522 -0.522949,-10.75683 0.03566,-11.42101 0.190788,-0.22684 0.805679,-0.612233 1.366324,-0.856275 0.560904,-0.244155 1.019576,-0.606016 1.019576,-0.805119 0,-0.199012 -0.219229,-1.203559 -0.486792,-2.232421 -2.306514,-8.86926 -1.6632,-22.204563 1.49655,-31.033248 1.712927,-4.786104 2.918662,-5.467651 10.473263,-5.919019 5.783339,-0.34554 6.683613,-0.0897 8.113199,2.305286 l 0.639238,1.070735 4.572847,-0.154512 c 2.515105,-0.08479 8.782055,-0.220074 13.926799,-0.300757 l 9.354468,-0.146761 1.327567,-1.383378 1.327051,-1.383378 h 7.579378 7.57938 l 1.45831,1.530656 1.45883,1.530656 h 14.25443 14.25442 l 1.5074,-1.669149 1.50741,-1.669149 3.85402,0.153996 c 4.5551,0.182179 8.54901,0.526184 9.75858,0.840775 1.42724,0.371201 2.08889,1.090418 3.31659,3.604948 1.3737,2.813549 2.18548,5.262011 3.13521,9.45317 1.11347,4.913741 1.43602,7.335544 2.03864,15.306559 0.40921,5.412707 0.66495,7.368848 1.20664,9.234579 0.33291,1.14665 0.4229,1.245822 1.34979,1.490865 0.54612,0.144376 1.29941,0.563641 1.67432,0.931721 0.66319,0.65111 0.68161,0.73648 0.68161,3.16415 0,2.69726 -0.60452,11.55968 -0.95446,13.99036 -0.24387,1.69393 -0.65179,2.26776 -2.04794,2.88148 l -0.96325,0.42323 -0.91002,6.07715 c -0.50042,3.34227 -1.39862,9.29838 -1.99626,13.23588 -1.115,7.346 -1.14014,8.26513 -0.22686,8.26513 0.61959,0 1.82211,1.39809 1.82211,2.11822 0,0.88888 0.22227,1.41387 0.59841,1.41387 0.16895,0 1.04812,-0.34441 1.95337,-0.76533 1.49811,-0.6966 1.85067,-0.76533 3.92793,-0.76533 2.10266,0 2.41388,0.0628 3.95738,0.79633 1.31997,0.62727 2.15993,1.28575 3.96048,3.10576 2.40343,2.42941 2.66159,2.58701 5.16454,3.15691 2.70606,0.61615 3.96823,1.53627 6.38514,4.65346 1.37426,1.77244 1.49516,1.86288 4.16357,3.12229 1.55456,0.73371 2.23384,1.06977 2.52801,1.36271 A 105,105 0 0 0 212.07078,118.26823 105,105 0 0 0 107.07047,13.268441 Z m -2.0066,48.442521 c -2.90058,-0.02152 -5.355332,0.04007 -5.454963,0.136942 -0.09963,0.09687 0.119611,0.838228 0.487313,1.647962 1.63473,3.599972 2.13571,4.960262 2.89749,7.864636 1.48004,5.64283 2.49591,15.314654 2.12752,20.255095 -0.25783,3.457707 -0.4695,3.25514 3.42925,3.278352 2.1127,0.01258 3.87183,0.153127 4.8674,0.388607 2.46469,0.58297 3.07691,0.53974 3.27681,-0.23151 0.24025,-0.926922 -0.32862,-12.856116 -0.76637,-16.071371 -0.79739,-5.856895 -2.25252,-11.432443 -3.84421,-14.72985 -1.26592,-2.622509 -0.91017,-2.493523 -7.02024,-2.538863 z m 44.49599,0.172082 -0.86144,0.159164 0.69194,1.152384 c 2.12291,3.534921 3.98388,9.326327 4.88239,15.195972 0.47434,3.098662 0.58349,4.52853 1.00563,13.176973 0.19571,4.009283 0.43627,7.368903 0.53485,7.465695 0.22642,0.222299 3.05291,0.348395 7.37319,0.329695 2.73929,-0.01186 3.34437,-0.07496 3.28611,-0.342615 -0.35239,-1.618863 -0.81699,-5.718952 -1.12397,-9.915157 -0.592,-8.092024 -1.25186,-12.703105 -2.52646,-17.660937 -1.11587,-4.340422 -2.9977,-8.618928 -4.02973,-9.161198 -0.53834,-0.282865 -8.09149,-0.610136 -9.23251,-0.399976 z m -87.535222,0.01189 c -0.432855,-0.163078 -9.977763,0.257345 -10.171989,0.448035 -0.153144,0.150356 -0.02708,0.634298 1.356506,5.210018 1.453633,4.807363 1.558455,5.908065 1.562179,16.37161 0.0032,8.924569 -0.03088,9.713906 -0.535885,12.29279 -0.296812,1.51572 -0.540018,2.883525 -0.540018,3.039608 0,0.37743 11.456708,0.123138 11.850439,-0.263033 0.378587,-0.371319 0.496182,-15.708751 0.153479,-20.014283 C 65.031235,70.585847 63.262272,62.361208 62.024638,61.89493 Z m -2.812748,0.807703 v 0.961698 c 0,0.816166 -0.09308,0.997373 -0.61495,1.192175 -0.795145,0.296809 -1.055891,0.286147 -1.783354,-0.0739 v -5.17e-4 c -0.738401,-0.365463 -0.914966,-1.227599 -0.314192,-1.533756 0.238859,-0.121724 0.946944,-0.294191 1.573547,-0.383439 z m 46.45453,0.109554 c 0.74467,-0.04398 1.76159,0.201593 2.27893,0.612882 l 0.52451,0.417546 -0.63303,0.621667 c -0.69594,0.683271 -0.65903,0.676527 -1.85415,0.350366 -1.37197,-0.37443 -1.87508,-1.366739 -0.94155,-1.857251 0.15921,-0.08366 0.37707,-0.130551 0.62529,-0.14521 z m 48.75206,0.164331 c 0.1967,0.0021 0.44015,0.01514 0.74363,0.03669 0.9204,0.06536 1.58969,0.246166 1.84794,0.499711 0.37991,0.372993 0.3756,0.426268 -0.0682,0.861963 -0.61715,0.605916 -1.7624,0.800438 -2.48667,0.422713 -0.75339,-0.392917 -1.09856,-0.95971 -0.89762,-1.473812 0.10193,-0.260767 0.27083,-0.35346 0.86093,-0.347265 z m -73.020348,2.490804 c -7.105327,0.02063 -9.952245,0.114763 -11.841137,0.392224 -1.367687,0.200901 -2.572477,0.453427 -2.677873,0.561206 -0.105395,0.107779 0.03126,1.44081 0.303857,2.96261 l 0.495577,2.767273 h 1.40715 c 1.563373,0 5.567056,-0.590121 11.318689,-1.668115 4.303537,-0.806585 5.751477,-0.823539 3.152262,-0.03669 -2.065203,0.625192 -10.70402,2.740844 -12.831775,3.142444 -1.745911,0.329529 -2.431827,0.743221 -1.975073,1.191659 0.598428,0.587534 12.35754,0.519049 27.878401,-0.162264 4.11583,-0.180671 1.751341,0.266994 -4.916495,0.930692 -6.857058,0.682532 -13.719993,1.070576 -18.988505,1.073836 -2.000937,0.0012 -3.799948,0.06348 -3.997689,0.137977 -0.290117,0.109302 -0.338129,0.484163 -0.249597,1.942517 0.228865,3.769996 0.331167,4.292801 0.888834,4.534607 0.555151,0.240715 24.903971,0.06066 29.422494,-0.217558 l 2.518188,-0.15503 -0.0553,-1.798856 c -0.0303,-0.989625 -0.33156,-3.192513 -0.66973,-4.895309 -1.159106,-5.8364 -2.335641,-8.955911 -3.666956,-9.723437 -1.264602,-0.729074 -5.689628,-1.008312 -15.515322,-0.97979 z m 48.008958,0.15968 c -8.97919,-0.08271 -13.47333,-0.04378 -13.63793,0.117822 -0.3369,0.330758 0.42762,2.550387 0.94568,2.745569 0.21684,0.08169 2.55876,0.251992 5.20433,0.378788 5.02885,0.241019 7.43129,0.433543 7.27915,0.58291 -0.0495,0.04863 -2.08255,0.20057 -4.51756,0.337964 -7.37732,0.41626 -7.42538,0.423111 -7.42538,1.068152 0,0.59134 1.16721,6.990969 1.29862,7.119979 0.0429,0.04217 2.97931,0.288757 6.52519,0.54777 3.54588,0.259013 6.66288,0.565629 6.92671,0.681612 0.42088,0.18502 0.39153,0.215433 -0.23978,0.248047 -0.39575,0.02044 -3.41796,0.160362 -6.71587,0.310576 l -5.99602,0.272851 0.003,1.492932 c 0.005,2.205248 0.0713,2.234275 4.79351,2.053105 2.11066,-0.08098 9.01849,-0.302089 15.35048,-0.490926 6.33199,-0.188836 11.66349,-0.344162 11.84786,-0.345199 0.27468,-0.0015 0.30584,-0.395351 0.17105,-2.180228 -0.24131,-3.195296 -0.40529,-3.765826 -1.13482,-3.957382 -0.33838,-0.08885 -2.3318,-0.230327 -4.43022,-0.314192 -6.67385,-0.266729 -8.88498,-0.433483 -8.37261,-0.631486 0.26384,-0.101956 1.1446,-0.192952 1.95698,-0.202055 1.80777,-0.02026 6.72294,-0.631952 8.3566,-1.040247 2.18122,-0.545146 1.45014,-1.795731 -1.05523,-1.805058 -0.475,-0.0018 -1.11573,-0.06942 -1.42369,-0.150378 -0.89683,-0.23576 -0.11448,-0.544593 1.3994,-0.552421 1.79509,-0.0093 2.39882,-0.197169 2.39882,-0.746208 0,-0.656919 -0.64871,-1.790951 -1.18598,-2.073258 -0.26224,-0.13779 -2.14596,-0.242363 -4.36304,-0.242363 -2.29479,0 -3.80719,-0.08633 -3.67316,-0.209806 0.12532,-0.115461 1.739,-0.390512 3.58583,-0.611332 1.84683,-0.220821 3.46112,-0.498038 3.58738,-0.615983 0.43323,-0.404691 -0.47233,-0.918695 -2.27997,-1.294495 -1.45808,-0.303127 -4.25564,-0.39444 -15.17943,-0.49506 z m -79.952228,1.608687 c -0.208558,0.0071 -0.431775,0.212263 -0.644921,0.617534 -0.556297,1.057725 -1.796056,6.360523 -2.062407,8.821167 -0.276532,2.554696 -0.334815,9.107025 -0.08682,9.741524 0.147966,0.378574 0.172619,0.375333 0.324528,-0.03979 0.09054,-0.247434 0.227838,-1.615461 0.304891,-3.040124 0.160245,-2.962835 0.826256,-6.615708 1.88929,-10.361125 1.13994,-4.016382 1.167322,-4.170633 0.892969,-5.004346 -0.16358,-0.497092 -0.381167,-0.742909 -0.617534,-0.734839 z m 1.946135,10.909412 c -0.03911,0.0027 -0.06615,0.135626 -0.06615,0.363285 0,0.323787 0.05439,0.456449 0.120923,0.294556 0.06654,-0.161894 0.06654,-0.426702 0,-0.588595 -0.01975,-0.04806 -0.03826,-0.07037 -0.05478,-0.06925 z m 88.359463,6.993371 c -6.37569,-0.04465 -13.56157,-0.0069 -15.96905,0.08423 l -4.37751,0.165881 v 0.931726 c 0,1.347695 0.36493,1.900756 1.156,1.752348 0.3536,-0.06634 7.57766,-0.191746 16.05329,-0.279052 L 152.0331,87.634962 V 86.88462 c 0,-0.412732 -0.15288,-0.956273 -0.34003,-1.207678 -0.32723,-0.439561 -0.78527,-0.460399 -11.93261,-0.538469 z m -67.776223,0.353984 -2.698544,0.152446 v 1.222664 1.222148 l 3.635954,0.154512 c 1.999722,0.08498 4.401204,0.161767 5.336625,0.170532 2.770743,0.02596 1.193001,0.378856 -3.576009,0.799951 -2.374497,0.209664 -4.614186,0.438363 -4.976957,0.50798 l -0.659391,0.126607 0.0031,2.865458 c 0.004,3.53052 0.08209,3.83941 1.049032,4.152718 2.058917,0.667133 8.742061,0.882515 14.777909,0.476457 4.474407,-0.301013 9.958689,-0.894529 11.032919,-1.193726 0.461708,-0.128595 1.986456,-0.297701 3.388423,-0.376204 l 2.549202,-0.142627 0.14727,-1.202511 c 0.27989,-2.286862 0.17686,-5.50023 -0.18758,-5.85804 -0.34563,-0.339337 -4.43068,-0.622234 -9.495029,-0.657324 -3.383013,-0.02344 -1.984933,-0.348374 2.903182,-0.674894 5.766317,-0.385183 6.545267,-0.508056 6.651787,-1.051099 0.0475,-0.242125 -0.0593,-0.531148 -0.23719,-0.641821 -0.37608,-0.233995 -25.648348,-0.279314 -29.644703,-0.05323 z m 69.975573,3.436483 c -10.99651,-0.129158 -21.7682,0.376764 -22.28081,1.046448 -0.0798,0.104242 -0.11165,1.429151 -0.0708,2.944006 l 0.0744,2.753837 1.24488,0.344682 c 2.75038,0.760707 4.06745,0.930416 8.32042,1.071769 4.83425,0.160673 17.93383,0.08323 20.30471,-0.119889 2.23509,-0.191565 2.34383,-0.383666 2.43809,-4.324284 0.0768,-3.211666 0.0726,-3.24278 -0.47955,-3.426148 -0.30647,-0.101768 -4.60449,-0.232318 -9.55136,-0.290421 z m -45.231864,9.31571 c -0.379685,-0.01306 -0.694113,0.231242 -1.04128,0.664559 -0.45684,0.570205 -0.496848,0.928301 -0.491443,4.415748 0.0096,6.21217 0.42472,14.75624 0.734839,15.12311 0.480705,0.56867 1.572952,0.36104 3.66851,-0.69763 2.406278,-1.21564 3.985288,-2.3877 3.985288,-2.95745 0,-0.22607 -0.56948,-1.03827 -1.26556,-1.80505 -0.69609,-0.76678 -1.56008,-1.74774 -1.92029,-2.17972 l -0.655261,-0.78548 0.529681,-0.74517 c 0.29131,-0.40987 1.1012,-1.41244 1.79938,-2.22829 l 1.26917,-1.48363 -2.12959,-2.76882 c -2.498883,-3.248952 -3.648137,-4.523453 -4.483444,-4.552177 z m 24.064164,0.05323 c -0.5027,0.01935 -0.98251,0.443535 -1.68413,1.345138 -1.89325,2.432879 -4.05095,5.740159 -3.9362,6.033739 0.0618,0.15801 0.78118,1.11327 1.59835,2.12287 1.12434,1.38911 1.45301,1.96284 1.35186,2.35851 -0.0735,0.28757 -0.75707,1.26006 -1.51929,2.16111 -2.21103,2.61378 -2.08362,2.40713 -1.73943,2.8143 0.33993,0.40214 3.68151,2.9338 4.43074,3.3569 0.77674,0.43863 1.9147,0.33968 2.42156,-0.21084 0.4194,-0.45553 0.45703,-0.91486 0.46044,-5.59294 0.002,-2.80304 0.0983,-6.95754 0.21394,-9.23251 l 0.21032,-4.136184 -0.66611,-0.514698 c -0.44353,-0.342531 -0.7981,-0.518637 -1.14205,-0.505395 z m -20.16001,0.377238 c -0.17259,0.169457 0.55038,1.102874 3.25045,4.196649 1.02171,1.17069 1.85816,2.20665 1.8588,2.30218 6.5e-4,0.0955 -0.69959,1.10221 -1.55598,2.23707 -0.85638,1.13487 -1.55707,2.22212 -1.55753,2.41639 -4.6e-4,0.19427 0.29563,0.67135 0.65836,1.05989 2.34799,2.51506 2.69652,3.01374 2.69493,3.85971 -8.7e-4,0.46745 -0.21645,2.0685 -0.47853,3.55792 -0.26209,1.48943 -0.47712,3.53428 -0.478,4.54391 -0.001,1.6922 0.0498,1.88511 0.65784,2.4722 l 0.65991,0.63717 0.12505,-2.47271 c 0.0689,-1.35991 0.25874,-2.70576 0.42168,-2.99052 0.49759,-0.8696 1.27984,-1.2484 2.5647,-1.24282 2.11982,0.009 2.95926,1.19007 3.17552,4.46743 l 0.13694,2.07739 0.56586,-0.65991 c 0.76149,-0.88851 0.73782,-1.98555 -0.14934,-6.92464 l -0.71469,-3.97805 0.81132,-1.0852 c 0.44625,-0.59661 1.14588,-1.37658 1.55443,-1.73375 0.40855,-0.35716 0.74121,-0.83422 0.73949,-1.05988 -0.002,-0.22565 -0.53044,-1.18304 -1.17461,-2.12752 -1.87423,-2.74797 -1.8969,-2.85785 -0.89917,-4.33152 0.46588,-0.6881 1.49537,-2.0991 2.28772,-3.13521 1.36273,-1.781992 1.41217,-1.891713 0.91467,-2.03657 -0.68587,-0.199707 -15.86918,-0.246591 -16.06982,-0.04961 z m 69.91873,3.325899 -22.63014,0.1726 c -12.44661,0.0949 -22.67662,0.21433 -22.73298,0.26562 -0.21824,0.19861 -0.47082,5.12126 -0.48369,9.42681 l -0.0134,4.51084 1.13947,0.13177 c 1.50498,0.17422 4.33312,0.32608 13.85135,0.74259 7.48081,0.32734 20.30866,0.96774 22.66528,1.13171 0.59363,0.0413 2.35036,0.0936 3.90364,0.11628 2.72695,0.0397 2.83132,0.0227 3.0272,-0.48886 0.1747,-0.45627 0.61915,-5.88347 1.13068,-13.80329 z m -125.222331,0.40876 c -0.39402,0.3929 0.666721,14.4982 1.158069,15.39958 0.138691,0.25442 0.495616,0.51579 0.792717,0.58084 0.722283,0.15815 7.562744,-0.0265 16.37006,-0.44235 3.957495,-0.18686 11.188909,-0.49952 16.06982,-0.69453 4.880911,-0.19501 9.764773,-0.41836 10.853084,-0.49661 l 1.978691,-0.14263 v -7.02128 -7.02076 l -1.139465,-0.14262 c -2.047461,-0.25643 -45.826783,-0.27506 -46.082976,-0.0196 z m 117.729251,3.93464 c 0.84437,-0.0299 1.92649,0.47643 2.63498,1.26866 0.58698,0.65637 0.73174,1.03031 0.73174,1.89291 0,0.9086 -0.12673,1.19915 -0.81597,1.87585 -0.76042,0.74657 -0.9209,0.80047 -2.37712,0.80047 -1.43796,0 -1.6091,-0.0554 -2.16214,-0.70073 -0.76937,-0.89769 -0.99066,-1.9088 -0.64389,-2.94039 0.30218,-0.89893 1.40095,-1.93239 2.2872,-2.15077 0.10914,-0.0269 0.22457,-0.0417 0.3452,-0.046 z m -110.550361,0.0413 c 0.106616,0.003 0.214419,0.0123 0.323495,0.0279 1.26779,0.1816 2.173532,0.86642 2.63188,1.99109 0.497521,1.22079 0.289426,2.18758 -0.68988,3.20704 -0.676308,0.70404 -0.922119,0.80589 -1.945101,0.80512 -0.735936,-5.5e-4 -1.454975,-0.17084 -1.935282,-0.45837 -0.98193,-0.58782 -1.274341,-1.14656 -1.274341,-2.43396 0,-1.8188 1.289995,-3.18158 2.889229,-3.13883 z m 0.0088,1.41697 c -0.20941,0.008 -0.390794,0.16606 -0.765844,0.51883 -0.854154,0.80344 -0.922525,1.79243 -0.160197,2.31666 0.751227,0.5166 1.315617,0.45689 1.99626,-0.21136 0.90842,-0.89189 0.747333,-1.79803 -0.425814,-2.39365 -0.30156,-0.1531 -0.48153,-0.23693 -0.644405,-0.23048 z m 110.844391,0.03 c -0.2247,-0.002 -0.44952,0.11942 -0.77618,0.34779 -1.21912,0.85228 -1.33026,1.31712 -0.50798,2.12442 0.87355,0.85766 1.22451,0.87229 2.17093,0.0904 0.87639,-0.72401 0.93144,-1.25647 0.19792,-1.90479 -0.50694,-0.44807 -0.79578,-0.65516 -1.08469,-0.65785 z m -47.75006,10.70788 c -0.26331,0 -0.30248,0.24256 -0.17982,1.11828 0.0862,0.6152 0.22276,2.03669 0.30334,3.15898 0.13081,1.82207 0.0915,2.12819 -0.36742,2.85719 -0.56651,0.89995 -1.2571,1.24381 -2.96054,1.47536 -0.62235,0.0846 -1.24014,0.28254 -1.37304,0.43976 -0.1329,0.15723 -0.41601,0.96694 -0.62891,1.79938 -0.21291,0.83244 -0.58292,1.71208 -0.82217,1.95492 -0.42498,0.43136 -0.44512,0.43041 -0.87798,-0.062 -0.24368,-0.27722 -0.71252,-1.15278 -1.04231,-1.9451 -0.56823,-1.36517 -0.69374,-1.49246 -2.39262,-2.43758 -1.23214,-0.68546 -1.88488,-1.20948 -2.08773,-1.67587 -0.32913,-0.75675 -0.37795,-3.31288 -0.0997,-5.2343 0.13367,-0.92305 0.10282,-1.28864 -0.11575,-1.37098 -0.89612,-0.33761 -3.357267,1.97696 -4.380101,4.11913 -0.492384,1.03123 -0.638204,1.69761 -0.638204,2.91765 0,2.23924 0.184162,2.37401 3.461295,2.53886 2.07982,0.10462 2.72011,0.22137 3.10782,0.56586 0.26858,0.23863 0.89602,1.40047 1.39474,2.58175 1.55669,3.68728 2.89731,4.53959 4.69791,2.98742 0.81654,-0.70387 1.19485,-1.39473 2.10116,-3.83853 0.72073,-1.94338 0.95106,-2.10963 2.65565,-1.92029 2.57683,0.28622 4.52738,-0.89341 4.52738,-2.7373 0,-1.14922 -0.84861,-3.83376 -1.56373,-4.94596 -0.63369,-0.98556 -2.21108,-2.34662 -2.71922,-2.34662 z m -24.910615,1.8836 c -3.854946,0 -16.748808,0.77051 -21.811072,1.30328 -3.387525,0.35652 -5.83892,0.89035 -5.83892,1.27124 0,0.42702 0.884552,0.48418 3.924309,0.25374 2.845982,-0.21575 13.996714,-0.6981 16.322517,-0.7059 0.516673,-0.002 0.872589,0.0627 0.79065,0.14314 -0.173403,0.17025 -1.680794,0.32909 -10.964189,1.15497 -3.759621,0.33447 -7.537379,0.70635 -8.394836,0.8263 -0.857457,0.11996 -1.65429,0.22016 -1.770952,0.22273 -0.349295,0.008 -0.0056,3.23719 0.410828,3.86126 0.269676,0.40409 0.757775,0.65381 1.643311,0.84026 1.125127,0.23691 11.699774,0.70314 16.206762,0.71469 0.956395,0.002 1.738912,0.096 1.738912,0.20773 0,0.38845 -6.640224,0.88977 -14.216186,1.07332 -2.608174,0.0632 -4.847864,0.17902 -4.976957,0.25735 -0.372415,0.22598 -0.278357,1.45467 0.352433,4.60231 0.831429,4.14882 0.931572,4.37574 2.004529,4.54029 0.869536,0.13336 8.263918,0.56544 12.278837,0.71727 5.132196,0.19407 60.993039,-0.0764 65.544319,-0.3173 2.7404,-0.14505 5.20482,-0.34412 5.47667,-0.44286 0.33829,-0.12286 -0.40131,-0.30952 -2.34404,-0.59067 -5.00686,-0.72457 -11.67158,-1.84437 -12.17962,-2.04638 -0.42608,-0.16942 -0.39526,-0.19755 0.22685,-0.20774 0.39575,-0.006 3.25616,0.19884 6.3562,0.45578 3.10004,0.25693 6.46302,0.46732 7.47345,0.46768 l 1.8371,5.1e-4 0.27802,-1.61747 c 0.15283,-0.8896 0.2435,-2.02744 0.20153,-2.52904 -0.0755,-0.90242 -0.0892,-0.91405 -1.27589,-1.07332 -4.94609,-0.66382 -32.64103,-1.21393 -34.59892,-0.6873 -0.84163,0.22638 -1.29646,0.60235 -2.59777,2.14664 -0.86766,1.02967 -1.88224,2.08473 -2.25465,2.34508 -1.86713,1.30531 -3.9325,-0.0267 -6.3593,-4.10208 -0.21297,-0.35764 -1.06,-0.42918 -7.555605,-0.6351 -4.023454,-0.12755 -7.908557,-0.29774 -8.634098,-0.37827 l -1.319299,-0.14625 1.079004,-0.16588 c 0.593624,-0.0913 2.806348,-0.23516 4.917012,-0.31936 2.110664,-0.0842 4.299522,-0.20954 4.863786,-0.27854 l 1.025777,-0.12505 -0.991154,-1.1033 c -1.266104,-1.40944 -2.142253,-3.10522 -2.184363,-4.22661 -0.01817,-0.48386 0.105715,-1.48225 0.275436,-2.21847 0.388115,-1.68356 0.227382,-2.29232 -0.779797,-2.95899 -0.736073,-0.48721 -1.072308,-0.52969 -4.180624,-0.52969 z m 66.311195,0.12971 c -0.0869,10e-4 -0.14072,0.007 -0.15348,0.0176 -0.051,0.041 -0.45884,2.69986 -0.90589,5.9092 -0.44705,3.20934 -1.40384,9.50655 -2.12597,13.99346 -1.21846,7.57086 -1.45467,9.38548 -1.22266,9.38548 0.0495,0 0.67027,-0.25083 1.37924,-0.55708 1.80082,-0.77791 4.1948,-1.32705 5.7857,-1.32705 2.67591,0 2.25871,1.23622 4.22661,-12.5181 0.95134,-6.64925 1.79125,-12.53863 1.86655,-13.08757 0.18289,-1.33327 -0.20902,-1.45376 -2.06705,-0.6351 -1.58586,0.69873 -1.81659,0.66862 -3.19257,-0.416 -0.45381,-0.35772 -1.14237,-0.57221 -2.15904,-0.67334 -0.61564,-0.0613 -1.17079,-0.0956 -1.43144,-0.0915 z m -99.65593,0.0625 c -0.629932,-0.007 -1.304466,0.17089 -1.64331,0.53847 -0.597975,0.64873 -1.61194,1.15342 -2.317688,1.15342 -0.310714,0 -0.930687,-0.26532 -1.377694,-0.58911 -0.480855,-0.34831 -1.136487,-0.5886 -1.605587,-0.5886 -0.7092,0 -0.792716,0.07 -0.792716,0.66198 0,0.36403 0.486819,4.15247 1.082104,8.4186 0.595285,4.26614 1.2464,8.97506 1.446941,10.46448 0.632056,4.69431 1.079086,6.78257 1.48363,6.93498 0.204215,0.0769 1.354499,0.24153 2.556433,0.36587 2.300566,0.23798 2.881301,0.37646 4.823478,1.14876 0.659582,0.26228 1.450739,0.48177 1.758032,0.48783 0.48461,0.01 0.540563,-0.075 0.421163,-0.63665 -0.491273,-2.31104 -2.193778,-12.92721 -3.124873,-19.48615 -0.606728,-4.27399 -1.20644,-8.00938 -1.332736,-8.30079 -0.161814,-0.37336 -0.747244,-0.56583 -1.377177,-0.57309 z m 52.24694,0.0434 c -1.31321,0 -2.08564,2.02679 -1.4702,3.85764 0.26319,0.78297 0.36104,0.85163 1.20975,0.85163 0.51989,0 1.08855,-0.16172 1.30069,-0.37 0.87001,-0.85417 0.0345,-4.33927 -1.04024,-4.33927 z m 18.73425,0 c -5.54285,-6.2e-4 -6.37487,0.15808 -6.65851,1.26762 -0.20268,0.79284 0.31094,2.44972 0.84646,2.7311 0.25068,0.13172 1.51531,0.25236 2.81017,0.26768 2.02961,0.024 4.05114,0.26762 3.67368,0.44287 -0.066,0.0306 -1.5685,0.12281 -3.33882,0.20464 l -3.21892,0.14831 -0.44545,1.31568 c -0.25556,0.75404 -0.95506,1.93489 -1.63866,2.76779 -0.65583,0.79905 -1.19218,1.50851 -1.19218,1.57613 0,0.0676 7.28172,0.0933 16.18144,0.0574 15.03885,-0.0606 16.21107,-0.0939 16.60106,-0.47698 0.80564,-0.79119 0.0113,-1.09884 -4.1398,-1.60403 -2.10011,-0.25559 -3.98016,-0.50586 -4.17804,-0.55604 -0.19787,-0.0502 1.63682,-0.0882 4.07727,-0.0848 l 4.43745,0.006 0.4191,-0.79375 c 0.50054,-0.94758 0.54621,-2.16403 0.0951,-2.53163 -0.17876,-0.14565 -0.74554,-0.41613 -1.25935,-0.60099 l -0.93379,-0.33642 0.83922,-0.0202 c 0.9907,-0.0238 1.56766,-0.32505 1.33377,-0.6966 -0.95795,-1.52177 -13.26127,-3.08229 -24.31118,-3.08353 z m 20.77755,23.22184 c -0.98958,-0.19431 -57.321076,-0.18541 -71.873648,0.0114 l -11.552267,0.15606 v 0.62528 c 0,1.00998 0.692723,3.00968 1.267106,3.65714 0.43687,0.49245 0.820127,0.62532 2.150773,0.74466 0.890436,0.0799 1.619023,0.21997 1.619023,0.31161 0,0.0916 -0.709955,0.28206 -1.577681,0.42323 -1.753619,0.28529 -2.410899,0.64607 -2.020032,1.10846 0.193261,0.22863 8.676577,0.29276 39.637886,0.29972 21.66559,0.005 39.82388,-0.0627 40.35154,-0.14986 0.73929,-0.12202 0.95912,-0.26439 0.95912,-0.62115 0,-0.58824 -1.02836,-0.78583 -4.31705,-0.82837 -2.09331,-0.0271 -5.19062,-0.35147 -4.19768,-0.43977 3.11842,-0.27733 7.1426,-0.77298 8.0021,-0.98547 1.02623,-0.2537 1.12757,-0.3502 1.55082,-1.48156 0.24898,-0.66557 0.51685,-1.54223 0.59531,-1.9482 0.131,-0.67785 0.0824,-0.75008 -0.59531,-0.88315 z m -93.897627,6.33088 c -3.32737,0 -3.702388,0.043 -4.321183,0.49506 -0.587898,0.42945 -0.687963,0.67848 -0.756543,1.8836 -0.162514,2.85579 1.132645,12.10366 1.694987,12.10366 0.0376,0 1.146121,-0.36967 2.463932,-0.82166 2.878448,-0.98728 3.990809,-1.02616 6.486426,-0.22634 2.163392,0.69334 3.742398,0.6304 5.45083,-0.21653 0.859528,-0.42609 1.024796,-0.62621 1.095023,-1.32601 0.09915,-0.98798 -0.354738,-4.44823 -0.810286,-6.17637 -0.435126,-1.65067 -1.830251,-2.86716 -5.144906,-4.48655 l -2.515092,-1.22886 z m 101.254277,0 -1.7911,0.91209 c -2.74693,1.39843 -5.02192,2.95353 -5.41673,3.70313 -0.45271,0.85949 -1.35989,6.05091 -1.26142,7.21868 0.0632,0.74907 0.20554,0.94528 0.94258,1.29915 1.04209,0.50033 3.35668,0.87781 4.5589,0.74362 0.47843,-0.0534 1.66593,-0.43051 2.63859,-0.83768 2.61097,-1.09298 2.98404,-1.18285 5.6038,-1.34875 l 2.39623,-0.15141 0.40876,-2.11925 c 0.52635,-2.73056 1.00415,-7.50676 0.82217,-8.21862 -0.24379,-0.95367 -1.33549,-1.20096 -5.30406,-1.20096 z m 19.60397,2.72128 c -0.85923,-0.0337 -1.76752,0.16582 -2.64221,0.59376 -1.7737,0.86779 -2.45102,1.74173 -2.45102,3.16105 0,1.52329 0.66846,2.27534 3.00086,3.37757 l 1.82159,0.86093 h 5.01416 5.01417 l 3.18792,1.86655 c 3.30446,1.93468 3.78736,2.13397 3.78736,1.56166 0,-0.1868 -0.51349,-1.00772 -1.14153,-1.82418 -1.39034,-1.80747 -2.71578,-2.62091 -6.06009,-3.71863 -2.4526,-0.80502 -2.53727,-0.85745 -4.87671,-3.02824 -1.30947,-1.21507 -2.74002,-2.35636 -3.17862,-2.53628 -0.46236,-0.18967 -0.96033,-0.29396 -1.47588,-0.31419 z m -137.907336,0.48834 c -1.647299,0.0323 -2.725264,0.74307 -4.754748,2.93781 -2.022641,2.18734 -2.560181,2.518 -5.67769,3.49384 -1.558262,0.48776 -2.384572,0.90527 -3.219442,1.62677 -1.119883,0.96781 -2.479435,2.81058 -2.479435,3.36052 0,0.61108 1.66175,0.686 4.796607,0.21549 3.263077,-0.48976 4.486944,-0.91996 6.116422,-2.14974 0.791499,-0.59736 2.291811,-1.71608 3.334164,-2.48615 l 1.894974,-1.40043 2.135787,0.0703 c 2.029923,0.0667 2.157561,0.0418 2.582272,-0.51057 1.730421,-2.25047 -0.279834,-4.8406 -3.983736,-5.1325 -0.263018,-0.0207 -0.509846,-0.0299 -0.745175,-0.0253 z m 108.501386,0.77308 c -0.42087,-0.15817 -77.80399,0.002 -77.966299,0.16175 -0.07896,0.0775 0.07418,1.22441 0.340031,2.54868 0.265856,1.32427 0.483175,3.03581 0.483175,3.80338 v 1.39527 h 37.993543 37.99355 l 0.16743,-1.2361 c 0.0922,-0.67995 0.41325,-2.43667 0.71365,-3.90364 0.38792,-1.89437 0.46774,-2.69687 0.27492,-2.76934 z m 12.04887,0.67334 c 0.76944,-0.0171 1.44625,0.28413 2.10995,0.91571 0.6932,0.65965 0.79995,0.91538 0.79995,1.91978 0,1.03224 -0.10181,1.25897 -0.93121,2.07326 -0.84516,0.82977 -1.04777,0.91415 -2.19056,0.91415 -1.1242,0 -1.3425,-0.0867 -2.0376,-0.81028 -1.58564,-1.65066 -1.2433,-3.77658 0.74724,-4.64106 0.54539,-0.23686 1.04057,-0.36133 1.50223,-0.37156 z m -101.607743,0.0243 c 0.745796,0.0152 1.495246,0.27058 2.107882,0.7767 0.616815,0.50957 0.714168,0.75006 0.714168,1.76888 0,2.56316 -2.08842,3.93137 -4.456058,2.9192 -1.507241,-0.64435 -2.021739,-3.07115 -0.922941,-4.35322 0.645882,-0.75361 1.59807,-1.13114 2.556949,-1.11156 z m -0.180867,1.34566 c -0.369455,0.004 -0.740072,0.20352 -1.0573,0.59944 -0.644057,0.80388 -0.626803,1.15775 0.09147,1.86294 0.646751,0.63498 0.904382,0.69208 1.560629,0.34726 0.241285,-0.12678 0.550556,-0.54558 0.687296,-0.93069 0.206432,-0.58139 0.167064,-0.80206 -0.232027,-1.30018 -0.312312,-0.38981 -0.680611,-0.58237 -1.050065,-0.57877 z m 101.1964,0.22634 c -0.31731,0.0216 -0.60356,0.10993 -0.76739,0.27078 -0.41567,0.4081 -0.35365,1.61059 0.10903,2.11254 0.5177,0.56164 1.0701,0.54452 1.8495,-0.0574 0.72241,-0.5579 0.8117,-1.28187 0.23513,-1.90737 -0.28162,-0.30553 -0.89741,-0.45451 -1.42627,-0.41858 z m -118.741582,5.16867 c -1.200365,0 -1.351581,0.0724 -2.923853,1.40095 -2.544086,2.14976 -3.201607,3.49491 -2.192114,4.48603 0.629368,0.61791 2.206501,0.62067 4.647778,0.007 2.028049,-0.50924 5.629349,-2.22938 5.850289,-2.79466 0.178276,-0.45612 -1.27329,-1.70865 -2.905766,-2.50734 -0.833473,-0.40777 -1.604765,-0.59222 -2.476334,-0.59222 z m 142.239372,0.23565 c -0.81275,0 -0.70665,0.3174 0.4222,1.26607 1.02248,0.85926 1.97639,1.15088 5.04052,1.54099 2.17187,0.27651 2.60397,0.28263 2.60397,0.0357 0,-0.3331 -1.1565,-1.1538 -2.36574,-1.67897 -1.04299,-0.45296 -4.52526,-1.16375 -5.70095,-1.16375 z m -12.26333,1.21905 c -0.5446,-0.0173 -1.04074,0.0319 -1.46296,0.15606 -2.22431,0.65429 -7.22902,4.73269 -7.22902,5.89111 0,0.55548 1.1773,1.44255 2.24638,1.69292 1.11397,0.26089 7.9506,0.25403 11.70574,-0.0119 3.88893,-0.27533 4.51652,-0.45588 4.51652,-1.30018 0,-0.94283 -0.57546,-1.81901 -2.08669,-3.17707 -2.06397,-1.85477 -5.33006,-3.17602 -7.68997,-3.25096 z m -8.5292,0.52348 c -0.23095,-0.002 -0.5683,0.046 -1.01234,0.14366 -1.25541,0.27622 -3.94704,1.58143 -3.94704,1.91409 0,0.11147 -0.004,0.28217 -0.009,0.37931 -0.0151,0.28176 1.51027,0.45156 2.173,0.24184 0.33247,-0.1052 1.23408,-0.67683 2.00349,-1.26968 1.21929,-0.93962 1.48497,-1.40181 0.7922,-1.40922 z m -40.33707,1.54512 c -14.07032,0.14052 -25.12709,0.34618 -26.023729,0.48421 -0.857457,0.132 -2.410688,0.48774 -3.451986,0.79065 l -1.893424,0.55087 1.69292,0.63511 c 1.831313,0.68704 3.610071,2.25055 4.243668,3.73 0.689033,1.60889 -0.139169,2.02728 -5.477702,2.76779 -3.011329,0.4177 -4.490568,0.50395 -7.075537,0.41186 -3.65775,-0.1303 -5.330997,-0.59213 -6.745841,-1.86087 -0.665626,-0.59688 -0.759282,-0.81299 -0.646472,-1.49551 0.160963,-0.97384 0.863302,-1.92562 1.998327,-2.70836 0.469513,-0.32379 1.193969,-0.87265 1.609721,-1.21957 0.704265,-0.58767 0.723574,-0.64306 0.283704,-0.81028 -0.60806,-0.23115 -10.417669,1.34357 -11.154358,1.79058 -0.224359,0.13614 -0.110367,0.76097 0.473356,2.59364 0.871396,2.73586 0.809988,3.19858 -0.534334,4.00338 -1.081881,0.64769 -4.778335,1.81842 -6.661092,2.10995 -2.157275,0.33403 -8.357368,0.26327 -10.673251,-0.12196 -2.495069,-0.41503 -4.334376,-1.05119 -5.917468,-2.0469 -1.589244,-0.99959 -2.00808,-1.70342 -1.740462,-2.92437 0.108721,-0.49602 0.203451,-1.00788 0.210323,-1.1374 0.0077,-0.145 -1.701223,-0.28097 -4.447274,-0.35347 l -4.459676,-0.11782 -1.53634,-0.79375 -1.536341,-0.79375 -5.39657,-0.20361 c -6.323164,-0.23844 -9.895189,-0.46948 -11.287683,-0.9033 a 105,105 0 0 0 92.724571,55.73407 105,105 0 0 0 92.4171,-55.15891 c -0.0362,0.006 -0.0738,0.0108 -0.11266,0.0165 -0.60922,0.0897 -4.87768,0.11475 -9.48573,0.0558 -4.61331,-0.059 -8.43613,-0.0153 -8.50697,0.0971 -0.0707,0.11241 0.0282,0.44 0.22014,0.7276 0.51252,0.76796 0.88725,2.73397 0.64182,3.36775 -0.27787,0.71753 -1.11337,1.22547 -2.79621,1.70016 -1.15932,0.32702 -2.51121,0.38896 -8.107,0.37207 -6.01217,-0.0182 -6.90381,-0.0711 -8.51421,-0.50746 -2.7518,-0.7455 -4.43596,-1.42602 -5.16092,-2.08566 -0.59628,-0.54255 -0.64505,-0.70907 -0.51832,-1.75959 0.0992,-0.82244 0.0557,-1.16048 -0.14882,-1.1622 -1.60964,-0.0136 -6.17876,-0.56671 -6.80527,-0.82372 -0.4454,-0.18271 -0.90238,-0.59008 -1.02888,-0.91674 -0.28643,-0.73966 -0.97437,-1.1834 -2.78071,-1.79524 -1.42076,-0.48124 -1.52026,-0.48214 -25.89041,-0.23875 z m -62.52331,0.39843 c -1.205302,-0.0556 -2.454614,0.2996 -4.394564,1.12396 -5.137813,2.18326 -8.067132,4.04449 -7.728727,4.9103 0.186878,0.47813 1.976061,1.38239 4.293795,2.17041 1.650615,0.5612 2.001574,0.59318 5.833752,0.53433 3.807881,-0.0585 4.155053,-0.10133 5.25601,-0.65112 1.343661,-0.67099 3.738583,-2.78945 3.73724,-3.30574 -0.0031,-1.1728 -2.469443,-3.38676 -4.735629,-4.25091 -0.831256,-0.31697 -1.538696,-0.49787 -2.261877,-0.53123 z m 25.693522,1.59887 c -0.645567,0.0319 -1.258826,0.30961 -2.265495,0.80822 -2.560009,1.26799 -3.794732,2.27332 -3.486609,2.83858 0.364189,0.6681 2.602265,1.47918 4.565613,1.65468 2.194413,0.19614 2.718087,0.13179 5.152141,-0.63717 1.727069,-0.54562 2.039995,-0.57894 3.21014,-0.33796 0.713147,0.14686 1.390203,0.21082 1.5043,0.14159 0.687521,-0.41718 -0.649461,-1.82199 -2.005562,-2.10736 -0.431888,-0.0909 -1.836563,-0.63625 -3.121256,-1.21181 -1.840226,-0.82446 -2.723258,-1.18981 -3.553272,-1.14877 z" /><path
       style="display:inline;fill:#000000"
       d="m 50.457625,176.80819 c -2.495069,-0.41503 -4.334384,-1.0513 -5.917476,-2.04701 -1.589244,-0.99959 -2.008102,-1.70334 -1.740484,-2.92429 0.108721,-0.49602 0.203298,-1.00781 0.21017,-1.13733 0.0077,-0.145 -1.701082,-0.28072 -4.447133,-0.35322 l -4.459629,-0.11774 -1.536576,-0.79392 -1.536577,-0.79391 -5.396584,-0.2035 c -13.137973,-0.49542 -14.398034,-0.95861 -8.911894,-3.27597 2.383528,-1.00681 2.938506,-1.4472 5.225593,-4.14668 1.153741,-1.36178 2.92535,-2.3584 5.824267,-3.27645 1.76257,-0.55818 2.157294,-0.78986 3.118027,-1.8301 2.518735,-2.72718 4.01851,-3.82462 6.413005,-4.69263 1.114234,-0.40391 1.951102,-0.51089 4.069047,-0.52015 2.621767,-0.0115 2.694905,0.003 4.377229,0.86537 0.941002,0.48237 1.710912,0.84123 1.710912,0.79746 0,-0.0438 0.10734,-0.65037 0.238534,-1.348 0.207135,-1.10146 0.399196,-1.40839 1.459108,-2.33181 l 1.220575,-1.06339 -0.490941,-3.17528 c -0.270018,-1.7464 -1.091376,-7.54759 -1.825239,-12.89151 -0.733863,-5.34393 -1.45291,-9.97183 -1.597881,-10.28421 -0.144971,-0.31239 -0.494526,-0.62488 -0.776788,-0.69444 -0.282263,-0.0695 -0.865011,-0.48282 -1.294997,-0.91838 l -0.781792,-0.79192 -0.490753,-6.92949 c -0.532944,-7.52522 -0.522816,-10.75679 0.03579,-11.42097 0.190788,-0.22684 0.805597,-0.612108 1.366242,-0.85615 0.560904,-0.244155 1.019355,-0.606449 1.019355,-0.805552 0,-0.199012 -0.218916,-1.203636 -0.486479,-2.232498 -2.306514,-8.86926 -1.663611,-22.204454 1.496139,-31.033139 1.712927,-4.786104 2.918868,-5.467632 10.473469,-5.919 5.783339,-0.34554 6.683777,-0.08969 8.113363,2.3053 l 0.639076,1.070647 4.572918,-0.154174 c 2.515105,-0.08479 8.782255,-0.220188 13.926999,-0.300871 l 9.35408,-0.146698 1.327492,-1.383299 1.327492,-1.383299 h 7.579356 7.57935 l 1.45838,1.53063 1.45838,1.530631 h 14.25448 14.25448 l 1.5074,-1.669313 1.5074,-1.669312 3.85392,0.154136 c 4.5551,0.182179 8.54928,0.526377 9.75885,0.840968 1.42724,0.371201 2.08863,1.09008 3.31633,3.60461 1.3737,2.813549 2.1859,5.262165 3.13563,9.453324 1.11347,4.913741 1.43599,7.335288 2.03861,15.306303 0.40921,5.412707 0.66479,7.368997 1.20648,9.234728 0.33291,1.14665 0.42268,1.245813 1.34957,1.490856 0.54612,0.144376 1.29968,0.563662 1.67459,0.931742 0.66319,0.65111 0.68164,0.73679 0.68164,3.16446 0,2.69726 -0.60478,11.5597 -0.95472,13.99038 -0.24387,1.69393 -0.65141,2.26737 -2.04756,2.88109 l -0.96358,0.42357 -0.90983,6.07686 c -0.50042,3.34227 -1.39883,9.29844 -1.99647,13.23594 -1.115,7.346 -1.14023,8.26496 -0.22695,8.26496 0.61959,0 1.82245,1.39806 1.82245,2.11819 0,0.88888 0.22222,1.41403 0.59836,1.41403 0.16895,0 1.04783,-0.34439 1.95308,-0.76531 1.49811,-0.6966 1.85084,-0.76532 3.9281,-0.76532 2.10266,0 2.414,0.0626 3.9575,0.79613 1.31997,0.62727 2.15999,1.28606 3.96054,3.10607 2.40343,2.42941 2.6613,2.58705 5.16425,3.15695 2.70606,0.61615 3.96826,1.53597 6.38517,4.65316 1.37426,1.77244 1.49542,1.8633 4.16383,3.12271 2.58027,1.21782 2.74838,1.33944 2.74838,1.98833 0,0.64126 -0.08,0.70295 -1.10767,0.85426 -0.60922,0.0897 -4.8779,0.11484 -9.48595,0.0559 -4.61331,-0.059 -8.4361,-0.0153 -8.50694,0.0972 -0.0707,0.11241 0.0284,0.43969 0.22033,0.72729 0.51252,0.76796 0.88714,2.73401 0.64171,3.36779 -0.27787,0.71753 -1.1131,1.2254 -2.79594,1.70009 -1.15932,0.32702 -2.51131,0.38908 -8.1071,0.37219 -6.01217,-0.0182 -6.90421,-0.0713 -8.51461,-0.50763 -2.7518,-0.7455 -4.43555,-1.426 -5.16051,-2.08564 -0.59628,-0.54255 -0.64528,-0.70879 -0.51855,-1.75931 0.0992,-0.82244 0.056,-1.16086 -0.14856,-1.16258 -1.60964,-0.0136 -6.17899,-0.56643 -6.8055,-0.82344 -0.4454,-0.18271 -0.90255,-0.58988 -1.02905,-0.91654 -0.28643,-0.73966 -0.97392,-1.18364 -2.78026,-1.79548 -1.42076,-0.48124 -1.52063,-0.48216 -25.89078,-0.23877 -14.07032,0.14052 -25.126893,0.34629 -26.023532,0.48432 -0.857457,0.132 -2.410985,0.48782 -3.452283,0.79073 l -1.89327,0.55074 1.692829,0.63509 c 1.831313,0.68704 3.610081,2.25046 4.243678,3.72991 0.689033,1.60889 -0.139027,2.02732 -5.47756,2.76783 -3.011329,0.4177 -4.490553,0.50377 -7.075522,0.41168 -3.65775,-0.1303 -5.331156,-0.59183 -6.746,-1.86057 -0.665626,-0.59688 -0.759005,-0.81299 -0.646195,-1.49551 0.160963,-0.97384 0.8633,-1.92578 1.998325,-2.70852 0.469513,-0.32379 1.193821,-0.87256 1.609573,-1.21948 0.704265,-0.58767 0.723654,-0.64303 0.283784,-0.81025 -0.60806,-0.23115 -10.417642,1.34348 -11.154331,1.79049 -0.224359,0.13614 -0.110275,0.76116 0.473448,2.59383 0.871396,2.73586 0.809625,3.19832 -0.534697,4.00312 -1.081881,0.64769 -4.777922,1.81862 -6.660679,2.11015 -2.157275,0.33403 -8.357362,0.26307 -10.673245,-0.12216 z m 10.772816,-3.16511 c 1.343661,-0.67099 3.738447,-2.78918 3.737104,-3.30547 -0.0031,-1.1728 -2.46942,-3.38671 -4.735606,-4.25086 -2.216684,-0.84527 -3.552369,-0.72635 -6.656288,0.59263 -5.137813,2.18326 -8.067085,4.04423 -7.72868,4.91004 0.186878,0.47813 1.975763,1.38247 4.293497,2.17049 1.650615,0.5612 2.001487,0.59335 5.833665,0.5345 3.807881,-0.0585 4.155351,-0.10154 5.256308,-0.65133 z m 26.398625,-1.82482 c 1.727069,-0.54562 2.040242,-0.57855 3.210387,-0.33757 0.713147,0.14686 1.389984,0.21037 1.504081,0.14114 0.687521,-0.41718 -0.649299,-1.82191 -2.0054,-2.10728 -0.431888,-0.0909 -1.836364,-0.63617 -3.121057,-1.21173 -3.271512,-1.4657 -3.518076,-1.48013 -5.819034,-0.34045 -2.560009,1.26799 -3.794865,2.27327 -3.486742,2.83853 0.364189,0.6681 2.602711,1.47943 4.566059,1.65493 2.194413,0.19614 2.717652,0.13139 5.151706,-0.63757 z M 174.62,170.81651 c 3.88893,-0.27533 4.51619,-0.45592 4.51619,-1.30022 0,-0.94283 -0.57553,-1.81908 -2.08676,-3.17714 -2.54027,-2.2828 -6.90088,-3.75729 -9.15274,-3.0949 -2.22431,0.65429 -7.22882,4.73274 -7.22882,5.89116 0,0.55548 1.17703,1.44268 2.24611,1.69305 1.11397,0.26089 7.95088,0.25391 11.70602,-0.012 z M 38.915351,167.52798 c 2.028049,-0.50924 5.629305,-2.22985 5.850245,-2.79513 0.178276,-0.45612 -1.272953,-1.70837 -2.905429,-2.50706 -0.833473,-0.40777 -1.604925,-0.59227 -2.476494,-0.59227 -1.200365,0 -1.351771,0.0726 -2.924043,1.40113 -2.544086,2.14976 -3.201252,3.49479 -2.191759,4.48591 0.629368,0.61791 2.206203,0.62043 4.64748,0.007 z m 121.122819,-2.50683 c 1.62617,-1.25309 1.55594,-1.6568 -0.22023,-1.26599 -1.25541,0.27622 -3.94703,1.58169 -3.94703,1.91435 0,0.11147 -0.004,0.28215 -0.009,0.37929 -0.0151,0.28176 1.51031,0.45146 2.17304,0.24175 0.33252,-0.10522 1.23417,-0.67645 2.00366,-1.2694 z m -133.205593,0.0353 c 3.263077,-0.48976 4.486651,-0.9198 6.116129,-2.14958 0.791499,-0.59736 2.291924,-1.71616 3.334277,-2.48623 l 1.895188,-1.40013 2.135607,0.0702 c 2.029923,0.0667 2.157719,0.0415 2.58243,-0.51089 1.730421,-2.25047 -0.280029,-4.84047 -3.983931,-5.13237 -2.10414,-0.16583 -3.180279,0.40403 -5.49969,2.9123 -2.022641,2.18734 -2.560552,2.51837 -5.678061,3.49421 -1.558262,0.48776 -2.384338,0.90519 -3.219208,1.62669 -1.119883,0.96781 -2.479705,2.81074 -2.479705,3.36068 0,0.61108 1.662107,0.68561 4.796964,0.2151 z m 162.856933,-0.34459 c 0,-0.3331 -1.15638,-1.15384 -2.36562,-1.67901 -1.04299,-0.45296 -4.52503,-1.16386 -5.70072,-1.16386 -0.81275,0 -0.70689,0.31771 0.42196,1.26638 1.02248,0.85926 1.97672,1.151 5.04085,1.54111 2.17187,0.27651 2.60353,0.28237 2.60353,0.0354 z m -135.391852,-0.8389 c 2.878448,-0.98728 3.990802,-1.02608 6.486419,-0.22626 2.163392,0.69334 3.742177,0.63072 5.450609,-0.21621 0.859528,-0.42609 1.024796,-0.62622 1.095023,-1.32602 0.09915,-0.98798 -0.354914,-4.44839 -0.810462,-6.17653 -0.435126,-1.65067 -1.830237,-2.8673 -5.144892,-4.48669 l -2.514769,-1.2286 h -3.643348 c -3.32737,0 -3.702109,0.0429 -4.320904,0.49494 -0.587898,0.42945 -0.688016,0.67873 -0.756596,1.88385 -0.162514,2.85579 1.132198,12.10333 1.69454,12.10333 0.0376,0 1.146569,-0.36982 2.46438,-0.82181 z m 1.177821,-3.51552 c -1.507241,-0.64435 -2.021724,-3.0709 -0.922926,-4.35297 1.148236,-1.33976 3.264967,-1.49169 4.665277,-0.33486 0.616815,0.50957 0.713799,0.74988 0.713799,1.7687 0,2.56316 -2.088512,3.9313 -4.45615,2.91913 z m 2.048208,-1.30926 c 0.241285,-0.12678 0.550578,-0.5456 0.687318,-0.93071 0.206432,-0.58139 0.167062,-0.802 -0.232029,-1.30012 -0.624623,-0.77962 -1.472902,-0.77135 -2.107358,0.0205 -0.644057,0.80388 -0.62666,1.15761 0.09161,1.8628 0.646751,0.63498 0.904209,0.69231 1.560456,0.34749 z m 135.283843,5.30695 c 0,-0.1868 -0.51385,-1.00766 -1.14189,-1.82412 -1.39034,-1.80747 -2.71562,-2.62065 -6.05993,-3.71837 -2.4526,-0.80502 -2.53741,-0.85769 -4.87685,-3.02848 -1.30947,-1.21507 -2.7397,-2.35642 -3.1783,-2.53634 -1.23297,-0.50579 -2.7185,-0.40483 -4.11801,0.27988 -1.7737,0.86779 -2.4512,1.74138 -2.4512,3.1607 0,1.52329 0.66827,2.27555 3.00067,3.37778 l 1.8217,0.86088 h 5.0141 5.0141 l 3.18799,1.8665 c 3.30446,1.93468 3.78762,2.13388 3.78762,1.56157 z m -36.66637,-1.10339 c 2.61097,-1.09298 2.98426,-1.18282 5.60402,-1.34872 l 2.39647,-0.15177 0.40853,-2.11933 c 0.52635,-2.73056 1.00413,-7.50658 0.82215,-8.21844 -0.24379,-0.95367 -1.33551,-1.20083 -5.30408,-1.20083 h -3.59772 l -1.79117,0.91186 c -2.74693,1.39843 -5.02171,2.95369 -5.41652,3.70329 -0.45271,0.85949 -1.35985,6.05103 -1.26138,7.2188 0.0632,0.74907 0.20524,0.94488 0.94228,1.29875 1.04209,0.50033 3.35687,0.87797 4.55909,0.74378 0.47843,-0.0534 1.66567,-0.43022 2.63833,-0.83739 z m 0.32705,-3.37059 c -1.58564,-1.65066 -1.24343,-3.77639 0.74711,-4.64087 1.45438,-0.63163 2.55017,-0.46663 3.6121,0.54389 0.6932,0.65965 0.79985,0.91565 0.79985,1.92005 0,1.03224 -0.10178,1.25885 -0.93118,2.07314 -0.84516,0.82977 -1.04748,0.91422 -2.19027,0.91422 -1.1242,0 -1.34251,-0.0868 -2.03761,-0.81043 z m 2.84815,-1.09051 c 0.72241,-0.5579 0.81159,-1.28159 0.23502,-1.90709 -0.4506,-0.48884 -1.75652,-0.57699 -2.19341,-0.14806 -0.41567,0.4081 -0.35355,1.61062 0.10913,2.11257 0.5177,0.56164 1.06986,0.54449 1.84926,-0.0574 z m -13.63639,2.07755 c 0.0922,-0.67995 0.41334,-2.43653 0.71374,-3.9035 0.38792,-1.89437 0.46751,-2.69679 0.27469,-2.76926 -0.42087,-0.15817 -77.803713,0.002 -77.966022,0.16138 -0.07896,0.0775 0.07395,1.22447 0.339804,2.54874 0.265856,1.32427 0.483375,3.03577 0.483375,3.80334 v 1.39558 h 37.993433 37.99343 z m 1.43648,-9.79873 c 0.73929,-0.12202 0.95939,-0.26457 0.95939,-0.62133 0,-0.58824 -1.02857,-0.78553 -4.31726,-0.82807 -2.09331,-0.0271 -5.19029,-0.35182 -4.19735,-0.44012 3.11842,-0.27733 7.14254,-0.77283 8.00204,-0.98532 1.02623,-0.2537 1.12713,-0.35012 1.55037,-1.48148 0.24899,-0.66557 0.51689,-1.54229 0.59535,-1.94826 0.131,-0.67785 0.0824,-0.74999 -0.59534,-0.88306 -0.98958,-0.19431 -57.320966,-0.18548 -71.873538,0.0113 l -11.552126,0.15618 v 0.62527 c 0,1.00998 0.692945,3.00954 1.267328,3.657 0.43687,0.49245 0.819863,0.62501 2.150509,0.74435 0.890436,0.0799 1.618975,0.22018 1.618975,0.31182 0,0.0916 -0.709957,0.28212 -1.577683,0.42329 -1.753619,0.28529 -2.410784,0.64585 -2.019917,1.10824 0.193261,0.22863 8.676559,0.29277 39.637872,0.29973 21.66559,0.005 39.82372,-0.0624 40.35138,-0.14951 z m 6.86579,-1.76686 c 1.80082,-0.77791 4.195,-1.32702 5.78591,-1.32702 2.6759,0 2.25859,1.23603 4.22649,-12.51829 0.95134,-6.64925 1.79132,-12.53868 1.86662,-13.08762 0.18289,-1.33327 -0.20901,-1.45366 -2.06704,-0.635 -1.58586,0.69873 -1.81693,0.66863 -3.19291,-0.41599 -0.45381,-0.35772 -1.14196,-0.57245 -2.15863,-0.67358 -0.82085,-0.0817 -1.53422,-0.11492 -1.58527,-0.0739 -0.051,0.041 -0.45859,2.70037 -0.90564,5.90971 -0.44705,3.20934 -1.40365,9.50626 -2.12578,13.99317 -1.21846,7.57086 -1.45488,9.38537 -1.22287,9.38537 0.0495,0 0.67015,-0.25058 1.37912,-0.55683 z m -90.79228,-0.32623 c -0.491273,-2.31104 -2.193644,-12.92716 -3.124739,-19.4861 -0.606728,-4.27399 -1.206474,-8.00932 -1.33277,-8.30073 -0.323629,-0.74672 -2.3427,-0.76996 -3.020388,-0.0348 -0.597975,0.64873 -1.612003,1.1533 -2.317751,1.1533 -0.310714,0 -0.930667,-0.26491 -1.377674,-0.5887 -0.480855,-0.34831 -1.136511,-0.58871 -1.605611,-0.58871 -0.7092,0 -0.792871,0.0699 -0.792871,0.66186 0,0.36403 0.487051,4.15234 1.082336,8.41847 0.595285,4.26614 1.246414,8.97523 1.446955,10.46465 0.632056,4.69431 1.078656,6.78243 1.4832,6.93484 0.204215,0.0769 1.3547,0.24161 2.556634,0.36595 2.300566,0.23798 2.881488,0.37631 4.823665,1.14861 0.659582,0.26228 1.450663,0.48182 1.757956,0.48788 0.48461,0.01 0.540458,-0.0749 0.421058,-0.63656 z m 80.7542,-7.58535 c 2.7404,-0.14505 5.20496,-0.3445 5.47681,-0.44324 0.33829,-0.12286 -0.40148,-0.30914 -2.34421,-0.59029 -5.00685,-0.72457 -11.67141,-1.84433 -12.17946,-2.04634 -0.42607,-0.16942 -0.39537,-0.19754 0.22674,-0.20773 0.39575,-0.006 3.25594,0.19845 6.35598,0.45539 3.10004,0.25693 6.46315,0.46745 7.47358,0.46781 l 1.83716,6.6e-4 0.27787,-1.61744 c 0.15283,-0.8896 0.24353,-2.02784 0.20156,-2.52944 -0.0755,-0.90242 -0.0889,-0.91367 -1.27556,-1.07294 -4.94609,-0.66382 -32.64116,-1.21416 -34.59905,-0.68753 -0.84163,0.22638 -1.29655,0.60227 -2.59786,2.14656 -0.86766,1.02967 -1.88227,2.08514 -2.25468,2.34549 -1.86713,1.30531 -3.93262,-0.0271 -6.35942,-4.10246 -0.21297,-0.35764 -1.05961,-0.42877 -7.555216,-0.63469 -4.023454,-0.12755 -7.908994,-0.29781 -8.634535,-0.37834 l -1.319165,-0.14643 1.079317,-0.16596 c 0.593624,-0.0913 2.806224,-0.23485 4.916888,-0.31905 2.110664,-0.0842 4.299241,-0.20954 4.863505,-0.27854 l 1.025934,-0.12544 -0.990953,-1.10314 c -1.266104,-1.40944 -2.142653,-3.10519 -2.184763,-4.22658 -0.01817,-0.48386 0.105826,-1.4821 0.275547,-2.21832 0.388115,-1.68356 0.22777,-2.2923 -0.779409,-2.95897 -0.736073,-0.48721 -1.072334,-0.52983 -4.18065,-0.52983 -3.854946,0 -16.749081,0.77038 -21.811345,1.30315 -3.387525,0.35652 -5.83912,0.89019 -5.83912,1.27108 0,0.42702 0.884876,0.48424 3.924633,0.2538 2.845982,-0.21575 13.99675,-0.69775 16.322553,-0.70555 0.516673,-0.002 0.872366,0.0627 0.790427,0.14312 -0.173403,0.17025 -1.680593,0.32901 -10.963988,1.15489 -3.759621,0.33447 -7.53723,0.70628 -8.394687,0.82623 -0.857457,0.11996 -1.654465,0.2202 -1.771127,0.22277 -0.349295,0.008 -0.0058,3.23722 0.410675,3.86129 0.269676,0.40409 0.757787,0.65361 1.643323,0.84006 1.125127,0.23691 11.699705,0.70338 16.206693,0.71493 0.956395,0.002 1.738899,0.0958 1.738899,0.20752 0,0.38845 -6.640176,0.88981 -14.216138,1.07336 -2.608174,0.0632 -4.847757,0.17899 -4.97685,0.25732 -0.372415,0.22598 -0.278318,1.4546 0.352472,4.60224 0.831429,4.14882 0.931754,4.37606 2.004711,4.54061 0.869536,0.13336 8.263771,0.56508 12.27869,0.71691 5.132196,0.19407 60.992939,-0.076 65.544219,-0.31694 z m -33.33474,-7.06178 c 0.81654,-0.70387 1.19457,-1.39453 2.10088,-3.83833 0.72073,-1.94338 0.95101,-2.10992 2.6556,-1.92058 2.57683,0.28622 4.52778,-0.89309 4.52778,-2.73698 0,-1.14922 -0.84894,-3.8338 -1.56406,-4.946 -0.63369,-0.98556 -2.21098,-2.34697 -2.71912,-2.34697 -0.26331,0 -0.30231,0.24281 -0.17966,1.11853 0.0862,0.6152 0.22258,2.03678 0.30315,3.15907 0.13081,1.82207 0.0915,2.12794 -0.36744,2.85694 -0.56651,0.89995 -1.25696,1.24412 -2.9604,1.47567 -0.62235,0.0846 -1.24029,0.28244 -1.37319,0.43966 -0.1329,0.15723 -0.41583,0.96695 -0.62873,1.79939 -0.21291,0.83244 -0.58284,1.71221 -0.82209,1.95505 -0.42498,0.43136 -0.44518,0.42992 -0.87804,-0.0625 -0.24368,-0.27722 -0.71289,-1.1523 -1.04268,-1.94462 -0.56823,-1.36517 -0.69345,-1.49278 -2.39233,-2.4379 -1.23214,-0.68546 -1.88501,-1.20951 -2.08786,-1.6759 -0.32913,-0.75675 -0.37771,-3.31267 -0.0995,-5.23409 0.13367,-0.92305 0.10279,-1.28871 -0.11578,-1.37105 -0.89612,-0.33761 -3.357473,1.97703 -4.380307,4.1192 -0.492384,1.03123 -0.638094,1.69744 -0.638094,2.91748 0,2.23924 0.183906,2.37415 3.461031,2.539 2.07982,0.10462 2.7202,0.22117 3.10791,0.56566 0.26858,0.23863 0.89636,1.40038 1.39508,2.58166 1.55669,3.68728 2.89723,4.53981 4.69783,2.98764 z m 41.34694,-3.36721 c 0.80564,-0.79119 0.0115,-1.09891 -4.13955,-1.6041 -2.10011,-0.25559 -3.98028,-0.50575 -4.17816,-0.55593 -0.19787,-0.0502 1.63697,-0.0884 4.07742,-0.085 l 4.43719,0.006 0.41936,-0.79391 c 0.50054,-0.94758 0.54623,-2.1641 0.0951,-2.5317 -0.17876,-0.14565 -0.7454,-0.41608 -1.25921,-0.60094 l -0.93418,-0.33612 0.83946,-0.0202 c 0.9907,-0.0238 1.56739,-0.32512 1.3335,-0.69667 -0.95795,-1.52177 -13.26096,-3.08221 -24.31087,-3.08345 -5.54285,-6.2e-4 -6.37468,0.1577 -6.65832,1.26724 -0.20268,0.79284 0.31077,2.44999 0.84629,2.73137 0.25068,0.13172 1.51521,0.25203 2.81007,0.26735 2.02961,0.024 4.05091,0.26781 3.67345,0.44306 -0.066,0.0306 -1.56836,0.12264 -3.33868,0.20447 l -3.21875,0.1488 -0.44576,1.31526 c -0.25556,0.75404 -0.95457,1.9352 -1.63817,2.7681 -0.65583,0.79905 -1.19241,1.50814 -1.19241,1.57576 0,0.0676 7.28158,0.0936 16.1813,0.0577 15.03885,-0.0606 16.21093,-0.0943 16.60092,-0.47734 z m -45.06719,-10.46685 c 0.49759,-0.8696 1.27966,-1.2487 2.56452,-1.24312 2.11982,0.009 2.95935,1.1903 3.17561,4.46766 l 0.13708,2.07721 0.56555,-0.65988 c 0.76149,-0.88851 0.73783,-1.98572 -0.14933,-6.92481 l -0.71454,-3.97811 0.81136,-1.08475 c 0.44625,-0.59661 1.14563,-1.37697 1.55418,-1.73414 0.40855,-0.35716 0.7414,-0.83401 0.73968,-1.05967 -0.002,-0.22565 -0.53019,-1.18303 -1.17436,-2.12751 -1.87423,-2.74797 -1.89706,-2.85792 -0.89933,-4.33159 0.46588,-0.6881 1.49534,-2.09884 2.28769,-3.13495 1.36273,-1.781991 1.41219,-1.892138 0.91469,-2.036995 -0.68587,-0.199707 -15.86904,-0.246382 -16.06968,-0.0494 -0.17259,0.169457 0.55028,1.102767 3.25035,4.196535 1.02171,1.17069 1.85818,2.20668 1.85882,2.30221 6.5e-4,0.0955 -0.6995,1.10221 -1.55589,2.23707 -0.85638,1.13487 -1.55744,2.22235 -1.5579,2.41662 -4.6e-4,0.19427 0.29594,0.67112 0.65867,1.05966 2.34799,2.51506 2.69614,3.01376 2.69455,3.85973 -8.7e-4,0.46745 -0.21602,2.06852 -0.4781,3.55794 -0.26209,1.48943 -0.47723,3.5341 -0.47811,4.54373 -0.001,1.6922 0.05,1.88547 0.65799,2.47256 l 0.65959,0.63687 0.12532,-2.47256 c 0.0689,-1.35991 0.25865,-2.70555 0.42159,-2.99031 z m 3.75322,4.50412 c 0.87001,-0.85417 0.0343,-4.33959 -1.04049,-4.33959 -1.31321,0 -2.08561,2.02667 -1.47017,3.85752 0.26319,0.78297 0.36139,0.85211 1.2101,0.85211 0.51989,0 1.08842,-0.16176 1.30056,-0.37004 z m -11.04397,-7.2491 c 2.40628,-1.21564 3.98558,-2.38743 3.98558,-2.95718 0,-0.22607 -0.56953,-1.03841 -1.26561,-1.80519 -0.69609,-0.76678 -1.56033,-1.74759 -1.92054,-2.17957 l -0.654917,-0.78543 0.529647,-0.7452 c 0.29131,-0.40987 1.10089,-1.41273 1.79907,-2.22858 l 1.26941,-1.48338 -2.12945,-2.76863 c -3.634744,-4.725748 -4.414255,-5.274224 -5.525191,-3.88761 -0.45684,0.570205 -0.496628,0.92783 -0.491223,4.41528 0.0096,6.21217 0.424882,14.75631 0.735001,15.12318 0.480705,0.56867 1.572665,0.36098 3.668223,-0.69769 z m 22.11691,0.52941 c 0.4194,-0.45553 0.45721,-0.91461 0.46062,-5.59269 0.002,-2.80304 0.0984,-6.95777 0.21407,-9.23274 l 0.21034,-4.136315 -0.66614,-0.514448 c -1.09177,-0.843155 -1.64467,-0.678917 -2.82635,0.839571 -1.89325,2.432872 -4.05078,5.740362 -3.93603,6.033942 0.0618,0.15801 0.78088,1.11333 1.59805,2.12293 1.12434,1.38911 1.45325,1.96282 1.3521,2.35849 -0.0735,0.28757 -0.75729,1.26008 -1.51951,2.16113 -2.21103,2.61378 -2.08325,2.407 -1.73906,2.81417 0.33993,0.40214 3.68141,2.93391 4.43064,3.35701 0.77674,0.43863 1.91441,0.33947 2.42127,-0.21105 z m -58.066054,-0.33196 c 3.957495,-0.18686 11.188919,-0.49928 16.06983,-0.69429 4.880911,-0.19501 9.76482,-0.41858 10.853131,-0.49683 l 1.978748,-0.14227 v -7.02122 -7.02121 l -1.139279,-0.14268 c -2.047461,-0.25643 -45.826778,-0.27472 -46.082971,-0.0193 -0.39402,0.3929 0.666677,14.49814 1.158025,15.39952 0.138691,0.25442 0.495249,0.51582 0.79235,0.58087 0.722283,0.15815 7.56285,-0.0268 16.370166,-0.44264 z m -12.756609,-5.98903 c -0.98193,-0.58782 -1.274511,-1.14657 -1.274511,-2.43397 0,-1.94005 1.467488,-3.36116 3.212701,-3.11117 1.26779,0.1816 2.173307,0.86686 2.631655,1.99153 0.497521,1.22079 0.289613,2.18754 -0.689693,3.207 -0.676308,0.70404 -0.922051,0.80574 -1.945033,0.80497 -0.735936,-5.5e-4 -1.454812,-0.17083 -1.935119,-0.45836 z m 2.693887,-1.53164 c 0.90842,-0.89189 0.747163,-1.79799 -0.425984,-2.39361 -0.689282,-0.34995 -0.743267,-0.33891 -1.410024,0.28825 -0.854154,0.80344 -0.922565,1.79255 -0.160237,2.31678 0.751227,0.5166 1.315602,0.45683 1.996245,-0.21142 z m 115.690746,7.58357 c 0.1747,-0.45627 0.61936,-5.88372 1.13089,-13.80354 l 0.14249,-2.20608 -22.63021,0.17259 c -12.44661,0.0949 -22.67632,0.21455 -22.73268,0.26584 -0.21824,0.19861 -0.4708,5.12102 -0.48367,9.42657 l -0.0135,4.51093 1.13928,0.13188 c 1.50498,0.17422 4.33301,0.32576 13.85124,0.74227 7.48081,0.32734 20.30903,0.96803 22.66565,1.132 0.59363,0.0413 2.35019,0.0936 3.90347,0.11624 2.72695,0.0397 2.83114,0.0229 3.02702,-0.4887 z m -8.20801,-6.52897 c -0.76937,-0.89769 -0.9909,-1.90905 -0.64413,-2.94064 0.30218,-0.89893 1.40092,-1.93193 2.28717,-2.15031 0.87316,-0.21516 2.17067,0.31703 2.98037,1.22243 0.58698,0.65637 0.73153,1.03043 0.73153,1.89303 0,0.9086 -0.12624,1.19896 -0.81548,1.87566 -0.76042,0.74657 -0.92094,0.80063 -2.37716,0.80063 -1.43796,0 -1.60926,-0.0555 -2.1623,-0.7008 z m 3.17791,-1.08624 c 0.87639,-0.72401 0.9318,-1.25626 0.19828,-1.90458 -0.90123,-0.79656 -1.11429,-0.83206 -1.86094,-0.31008 -1.21912,0.85228 -1.33023,1.31695 -0.50795,2.12425 0.87355,0.85766 1.22419,0.87226 2.17061,0.0904 z M 65.545779,98.994004 C 65.924366,98.622685 66.04205,83.28501 65.699347,78.979478 65.031233,70.58565 63.262208,62.361189 62.024574,61.894911 61.591719,61.731833 52.046859,62.15212 51.852633,62.34281 c -0.153144,0.150356 -0.02714,0.634332 1.356451,5.210052 1.453633,4.807363 1.558689,5.908185 1.562413,16.37173 0.0032,8.924569 -0.03126,9.713976 -0.536263,12.29286 -0.296812,1.51572 -0.539658,2.883558 -0.539658,3.039641 0,0.37743 11.456472,0.123082 11.850203,-0.263089 z M 56.813602,64.782346 c -0.738401,-0.365463 -0.915139,-1.227946 -0.314365,-1.534103 0.238859,-0.121724 0.946965,-0.294336 1.573568,-0.383584 l 1.139279,-0.162268 v 0.962183 c 0,0.816166 -0.09336,0.997035 -0.615234,1.191837 -0.795145,0.296809 -1.055785,0.285984 -1.783248,-0.07406 z M 166.47274,99.020545 c -0.35239,-1.618863 -0.81732,-5.719153 -1.1243,-9.915358 -0.592,-8.092024 -1.25157,-12.703288 -2.52617,-17.66112 -1.11587,-4.340422 -2.99794,-8.618808 -4.02997,-9.161078 -0.53834,-0.282865 -8.09159,-0.609866 -9.23261,-0.399706 l -0.86148,0.158671 0.69237,1.152876 c 2.12291,3.534921 3.98352,9.326299 4.88203,15.195944 0.47434,3.098662 0.58344,4.528202 1.00558,13.176645 0.19571,4.009283 0.43649,7.368798 0.53507,7.46559 0.22642,0.222299 3.05274,0.348861 7.37302,0.330161 2.73929,-0.01186 3.34472,-0.07497 3.28646,-0.342625 z M 154.45536,64.7978 c -0.75339,-0.392917 -1.09868,-0.959797 -0.89774,-1.473899 0.1359,-0.34769 0.39056,-0.397024 1.60445,-0.310818 0.9204,0.06536 1.58952,0.246411 1.84777,0.499956 0.37991,0.372993 0.37571,0.426096 -0.0681,0.861791 -0.61715,0.605916 -1.76215,0.800695 -2.48642,0.42297 z M 84.875842,97.3439 c 4.474407,-0.301013 9.958787,-0.894272 11.033017,-1.193469 0.461708,-0.128595 1.986534,-0.29804 3.388501,-0.376543 l 2.54903,-0.142733 0.14718,-1.20252 c 0.27989,-2.286862 0.17715,-5.499948 -0.18729,-5.857758 -0.34563,-0.339337 -4.430795,-0.622073 -9.495144,-0.657163 -3.383013,-0.02344 -1.984954,-0.348512 2.903161,-0.675032 5.766313,-0.385183 6.545093,-0.508273 6.651613,-1.051316 0.0475,-0.242125 -0.0592,-0.530778 -0.23706,-0.641451 -0.37608,-0.233995 -25.648494,-0.279727 -29.644849,-0.05364 l -2.698292,0.152649 v 1.222403 1.222404 l 3.635857,0.154507 c 1.999722,0.08498 4.401202,0.161679 5.336623,0.170444 2.770743,0.02596 1.193114,0.378917 -3.575896,0.800012 -2.374497,0.209664 -4.614079,0.438167 -4.97685,0.507784 l -0.659582,0.126577 0.0033,2.865939 c 0.004,3.53052 0.08195,3.838983 1.048889,4.152291 2.058917,0.667133 8.741969,0.882676 14.777817,0.476618 z m 64.677018,-0.374102 c 2.23565,-0.191581 2.34381,-0.383421 2.43808,-4.324378 0.0768,-3.211666 0.0725,-3.242469 -0.4797,-3.425837 -0.30647,-0.101768 -4.60466,-0.232571 -9.55153,-0.290674 -10.99651,-0.129158 -21.76812,0.37673 -22.28073,1.046414 -0.0798,0.104242 -0.11165,1.428958 -0.0708,2.943813 l 0.0743,2.754282 1.2449,0.344317 c 2.75038,0.760707 4.06745,0.93035 8.32042,1.071703 4.83437,0.160677 17.93471,0.08349 20.3051,-0.11964 z m -32.85835,-1.918701 c 0.24025,-0.926922 -0.32854,-12.856364 -0.76629,-16.071619 -0.79739,-5.856895 -2.25241,-11.432111 -3.8441,-14.729518 -1.26592,-2.622509 -0.91035,-2.493905 -7.02042,-2.539245 -2.90058,-0.02152 -5.355302,0.04012 -5.454933,0.136993 -0.09963,0.09687 0.119695,0.838637 0.487393,1.648371 1.63473,3.599972 2.13579,4.959882 2.89757,7.864256 1.48004,5.64283 2.49601,15.315077 2.12762,20.255518 -0.25783,3.457707 -0.46973,3.255118 3.42902,3.27833 2.1127,0.01258 3.87184,0.152968 4.86741,0.388448 2.46469,0.58297 3.07683,0.539716 3.27673,-0.231534 z m -10.71203,-30.23661 c -1.37197,-0.37443 -1.87496,-1.36668 -0.94143,-1.857192 0.63684,-0.334625 2.21432,-0.08045 2.90411,0.467936 l 0.52493,0.417329 -0.63328,0.621752 c -0.69594,0.683271 -0.65921,0.676336 -1.85433,0.350175 z m 30.64061,22.979039 15.41025,-0.158738 v -0.750424 c 0,-0.412732 -0.15313,-0.956118 -0.34028,-1.207523 -0.32723,-0.439561 -0.78511,-0.460216 -11.93245,-0.538286 -6.37569,-0.04465 -13.56192,-0.0067 -15.9694,0.0844 l -4.37723,0.165587 v 0.931876 c 0,1.347695 0.36489,1.900866 1.15596,1.752458 0.3536,-0.06634 7.57752,-0.192044 16.05315,-0.27935 z M 47.290189,83.335888 c 0.160245,-2.962835 0.826374,-6.615774 1.889408,-10.361191 1.13994,-4.016382 1.167404,-4.170271 0.893051,-5.003984 -0.307915,-0.935702 -0.80774,-0.982317 -1.262453,-0.11774 -0.556297,1.057725 -1.796196,6.360634 -2.062547,8.821278 -0.276532,2.554696 -0.335159,9.106926 -0.08716,9.741425 0.147966,0.378574 0.173073,0.375514 0.324982,-0.03961 0.09054,-0.247434 0.22767,-1.615514 0.304723,-3.040177 z m 91.911271,-0.241597 c 6.33199,-0.188836 11.66356,-0.344186 11.84793,-0.345223 0.27468,-0.0015 0.3055,-0.395212 0.17071,-2.180089 -0.24131,-3.195296 -0.40495,-3.766178 -1.13448,-3.957734 -0.33838,-0.08885 -2.33211,-0.230158 -4.43053,-0.314023 -6.67385,-0.266729 -8.88479,-0.433489 -8.37242,-0.631492 0.26384,-0.101956 1.14437,-0.192822 1.95675,-0.201925 1.80777,-0.02026 6.72307,-0.632346 8.35673,-1.040641 2.18122,-0.545146 1.45022,-1.795577 -1.05515,-1.804904 -0.475,-0.0018 -1.11561,-0.06945 -1.42357,-0.150411 -0.89683,-0.23576 -0.11448,-0.5446 1.3994,-0.552428 1.79509,-0.0093 2.39848,-0.196955 2.39848,-0.745994 0,-0.656919 -0.64868,-1.790888 -1.18595,-2.073195 -0.26224,-0.13779 -2.14568,-0.242463 -4.36276,-0.242463 -2.29479,0 -3.80748,-0.08645 -3.67345,-0.209929 0.12532,-0.115461 1.7389,-0.390601 3.58573,-0.611421 1.84683,-0.220821 3.46118,-0.497993 3.58744,-0.615938 0.43323,-0.404691 -0.47193,-0.91871 -2.27957,-1.29451 -1.45808,-0.303127 -4.25609,-0.394365 -15.17988,-0.494985 -8.97919,-0.08271 -13.47321,-0.04393 -13.63781,0.117676 -0.3369,0.330758 0.42773,2.550394 0.94579,2.745576 0.21684,0.08169 2.55881,0.252275 5.20438,0.379071 5.02885,0.241019 7.431,0.433314 7.27886,0.582681 -0.0495,0.04863 -2.08233,0.200827 -4.51734,0.338221 -7.37732,0.41626 -7.4254,0.423177 -7.4254,1.068218 0,0.59134 1.16736,6.990838 1.29877,7.119848 0.0429,0.04217 2.97926,0.288585 6.52514,0.547598 3.54588,0.259013 6.66292,0.565829 6.92675,0.681812 0.42088,0.18502 0.39147,0.215438 -0.23984,0.248052 -0.39575,0.02044 -3.41784,0.160075 -6.71575,0.310289 l -5.99621,0.273117 0.003,1.493071 c 0.005,2.205248 0.0715,2.233815 4.79373,2.052645 2.11066,-0.08098 9.01829,-0.301733 15.35028,-0.49057 z m -40.414422,-0.0743 2.518402,-0.155062 -0.0552,-1.799319 c -0.0303,-0.989625 -0.33186,-3.192516 -0.67003,-4.895312 -1.15911,-5.8364 -2.335409,-8.955625 -3.666724,-9.723151 -1.264612,-0.729069 -5.689779,-1.008596 -15.515473,-0.980074 -7.105327,0.02063 -9.951892,0.114966 -11.840784,0.392427 -1.367687,0.200901 -2.572936,0.453458 -2.678332,0.561237 -0.105395,0.107779 0.03141,1.441071 0.304005,2.962871 l 0.495633,2.766909 h 1.40716 c 1.563373,0 5.567243,-0.59004 11.318876,-1.668034 4.303537,-0.806585 5.751291,-0.823348 3.152076,-0.0365 -2.065203,0.625192 -10.704124,2.740734 -12.831879,3.142334 -1.745911,0.329529 -2.431527,0.743278 -1.974773,1.191716 0.598428,0.587534 12.357518,0.519121 27.878379,-0.162192 4.115826,-0.180671 1.750948,0.266937 -4.916888,0.930635 -6.857058,0.682532 -13.719842,1.070674 -18.988354,1.073934 -2.000937,0.0012 -3.799856,0.06321 -3.997597,0.137704 -0.290117,0.109302 -0.338347,0.48437 -0.249815,1.942724 0.228865,3.769996 0.331361,4.292789 0.889028,4.534595 0.555151,0.240715 24.903737,0.06077 29.42226,-0.217447 z M 51.45594,78.214163 c -0.06654,-0.161894 -0.120976,-0.02943 -0.120976,0.294352 0,0.323787 0.05444,0.456245 0.120976,0.294352 0.06654,-0.161894 0.06654,-0.426811 0,-0.588704 z"
       id="path3" /></g></svg>
