<?xml version="1.0" encoding="UTF-8" standalone="no"?>
<!-- Created with Inkscape (http://www.inkscape.org/) -->

<svg
   version="1.1"
   id="svg1"
   width="40.68457"
   height="46.409607"
   viewBox="0 0 40.68457 46.409606"
   xml:space="preserve"
   xmlns="http://www.w3.org/2000/svg"
   xmlns:svg="http://www.w3.org/2000/svg"><defs
     id="defs1" /><g
     id="layer4"
     style="display:inline"
     transform="matrix(0.73131495,0,0,0.73131495,-544.43688,-784.43485)"><g
       id="g357"><path
         style="display:inline;fill:#000000"
         d="m 58.413538,81.874455 c -1.456993,-0.30675 -2.321873,-1.138192 -2.321873,-2.232104 0,-1.14067 -2.103498,-1.667305 -8.205735,-2.0544 -8.259059,-0.523914 -11.768332,-1.357036 -11.336564,-2.691366 0.173696,-0.536788 0.144289,-0.553711 -0.187144,-0.107695 -0.339181,0.456442 -0.489204,0.414708 -1.091612,-0.303666 -0.900288,-1.073598 -0.891913,-2.586845 0.01888,-3.411101 0.394498,-0.357016 1.780073,-1.006786 3.079057,-1.443933 2.276157,-0.765996 2.326895,-0.808081 1.399398,-1.160715 -1.259318,-0.478792 -1.227658,-1.385926 0.06409,-1.836231 l 1.026477,-0.357832 -1.717858,-2.269605 c -1.76562,-2.332708 -2.712677,-4.608701 -2.331281,-5.602602 0.339006,-0.883438 1.251145,-1.045511 2.011487,-0.357412 0.382018,0.345722 0.752286,0.563413 0.822816,0.483758 0.07053,-0.07965 1.051374,-2.208578 2.179651,-4.730939 2.01343,-4.501198 2.049782,-4.639315 1.96335,-7.459586 -0.134437,-4.386688 0.139473,-5.354066 1.691861,-5.975209 1.089546,-0.435949 1.505143,-0.942423 2.616752,-3.188945 0.907179,-1.833377 1.420535,-3.45949 1.637407,-5.186667 0.173755,-1.383791 0.48498,-2.572337 0.691612,-2.641214 0.206631,-0.06888 0.375693,-0.336657 0.375693,-0.595067 0,-0.25841 0.757358,-1.792993 1.683017,-3.410185 1.431054,-2.50015 1.921871,-3.055108 3.278453,-3.706889 1.383873,-0.664892 1.818195,-0.719029 3.275307,-0.408257 1.516373,0.323411 1.857271,0.595338 3.502586,2.793944 1.507735,2.01476 1.946358,2.392716 2.538204,2.187134 0.393518,-0.136692 1.667988,-0.295637 2.832155,-0.353212 9.418302,-0.465792 8.458721,-0.296027 10.595417,-1.874497 1.814137,-1.340182 2.069148,-1.426677 3.615689,-1.226381 3.020666,0.391215 3.198633,0.490439 4.595758,2.56235 l 1.365052,2.024347 -0.274327,2.802136 c -0.150913,1.541516 -0.129936,3.563509 0.04663,4.494533 0.395885,2.087494 0.280156,2.413334 -1.793815,5.050554 l -1.664596,2.116666 -0.26001,5.908677 -0.260011,5.908678 -2.050682,1.127368 c -1.174758,0.645827 -2.13387,1.437071 -2.245438,1.852434 -0.333939,1.243243 -0.224406,1.959788 0.299579,1.959788 0.277183,0 0.753118,0.249149 1.057634,0.553666 0.724465,0.724464 0.234783,1.670594 -1.164649,2.250258 -1.280105,0.530237 -1.561026,1.510025 -1.241839,4.33126 0.217153,1.919379 0.342378,2.174968 1.229721,2.509902 0.793172,0.299389 1.030225,0.654679 1.202385,1.802106 0.11794,0.786058 0.289888,1.829161 0.382108,2.318005 0.09222,0.488845 -0.04692,1.182277 -0.309192,1.54096 -0.515887,0.705518 -1.072652,0.838413 -5.364303,1.280411 -1.552222,0.159864 -2.861909,0.303285 -2.910416,0.318714 -0.291904,0.09285 -0.007,1.411717 0.429753,1.989097 0.708509,0.936734 0.669482,2.398883 -0.08219,3.079134 -0.342415,0.309881 -1.334603,0.735934 -2.204861,0.946784 -2.051291,0.496996 -10.702678,0.769255 -12.489582,0.393046 z M 69.987832,80.09966 c 0.754906,-0.175983 1.609339,-0.556752 1.89874,-0.846154 0.466394,-0.466394 0.440711,-0.664484 -0.226028,-1.74329 -0.413717,-0.669408 -0.752212,-1.546554 -0.752212,-1.949212 0,-0.817607 1.224608,-1.830448 2.213162,-1.830448 0.407159,0 0.84074,-0.468323 1.175633,-1.269835 0.489679,-1.171966 0.481494,-1.306208 -0.106195,-1.741747 -0.861425,-0.638407 -5.547542,-2.146633 -7.551461,-2.430437 -1.252047,-0.177321 -2.340624,-0.0068 -4.762499,0.746073 -3.092726,0.961402 -3.278678,0.976052 -12.488084,0.983857 -9.029484,0.0077 -9.404737,0.03557 -10.992783,0.817883 -2.549014,1.255708 -2.617558,2.415446 -0.215195,3.64104 2.107114,1.074969 5.672918,1.709636 9.643881,1.716485 6.296067,0.01086 9.440141,0.929993 9.953129,2.909678 0.194639,0.751137 0.582574,1.22018 1.155464,1.397042 1.067101,0.329434 9.184308,0.03503 11.054448,-0.400935 z m -8.516306,-2.146763 c -0.436562,-0.175477 -0.79375,-0.36769 -0.79375,-0.427139 0,-0.05945 1.411179,-0.104253 3.135953,-0.09956 2.595813,0.0071 3.264204,-0.107224 3.880555,-0.663509 0.637089,-0.575001 0.744603,-0.590624 0.744603,-0.108198 0,1.055927 -1.434154,1.66348 -3.870856,1.639818 -1.266515,-0.0123 -2.659942,-0.165933 -3.096505,-0.341409 z M 43.832638,74.615723 c -0.850584,-0.369699 -1.146528,-0.723765 -1.146528,-1.371699 0,-1.004767 1.476909,-2.33569 2.591888,-2.33569 0.630326,0 0.563046,0.141758 -0.480922,1.013301 -1.026101,0.856627 -1.143949,1.097431 -0.762193,1.557419 0.375115,0.451987 1.727873,0.564145 7.989209,0.662394 4.145697,0.06505 7.656452,0.237338 7.801676,0.382858 0.611529,0.612776 -0.441536,0.701586 -4.784677,0.403515 -2.526959,-0.173426 -4.594336,-0.196258 -4.59417,-0.05074 5.34e-4,0.471064 -5.422152,0.256788 -6.614283,-0.261361 z m 17.928769,-1.268938 c -2.563656,-0.502928 -2.301295,-0.872708 0.518176,-0.730331 3.002951,0.151642 4.677271,-0.0858 5.657043,-0.802232 0.662413,-0.484375 0.658188,-0.518029 -0.176594,-1.406624 -0.70082,-0.745997 -0.748594,-0.910375 -0.264583,-0.910375 0.643686,0 2.001771,1.196696 2.001771,1.763889 0,0.767959 -1.427866,1.709017 -3.15515,2.079453 -2.042046,0.437941 -2.377661,0.438396 -4.580663,0.0062 z m 15.496924,-0.850951 c 0.342073,-1.036489 0.573017,-1.234722 1.43847,-1.234722 0.910342,0 1.030975,-0.123834 1.030975,-1.058333 0,-1.001091 -0.077,-1.058334 -1.423648,-1.058334 -1.338998,0 -1.461818,0.08915 -2.065588,1.499306 -1.225137,2.861413 -1.244564,3.086805 -0.266062,3.086805 0.691035,0 0.965263,-0.263323 1.285853,-1.234722 z m 2.27799,0.553543 c 0.11163,-0.180621 0.03402,-0.432813 -0.172462,-0.560427 -0.5221,-0.322675 -1.49298,0.100158 -1.225123,0.533559 0.275729,0.44614 1.128331,0.462531 1.397585,0.02687 z m -22.18962,-4.07325 c 3.441298,-0.558157 7.769401,-1.776601 8.076644,-2.273732 0.104097,-0.168432 -0.04795,-0.397268 -0.337873,-0.508523 -0.82937,-0.318259 -0.62133,-1.360513 0.556877,-2.789882 1.556974,-1.88888 0.538846,-1.726211 -2.76307,0.441465 -2.80368,1.840587 -4.731226,2.664497 -5.522896,2.360705 -0.25854,-0.09921 -0.576686,-0.748684 -0.706992,-1.443272 -0.130305,-0.694588 -0.408922,-1.262887 -0.619149,-1.262887 -0.210226,0 -0.99724,0.555625 -1.748919,1.234722 -1.712772,1.547387 -3.185724,1.661041 -4.068392,0.31392 -0.591388,-0.902573 -0.608784,-0.906065 -0.878709,-0.176389 -0.151457,0.409428 -0.573387,0.744413 -0.937624,0.744413 -0.814923,0 -1.522583,-0.762813 -2.594355,-2.796552 -0.857713,-1.627553 -1.705022,-2.261529 -1.705022,-1.275736 0,0.31494 0.3175,1.19497 0.705556,1.955622 1.263614,2.476889 0.723028,3.625799 -1.690346,3.592491 -0.737759,-0.01018 -1.563776,0.118935 -1.835592,0.286927 -0.844119,0.521695 0.899875,1.03558 5.289826,1.5587 5.412108,0.644924 7.003518,0.650535 10.780036,0.03801 z m 18.956558,-0.579701 c 0.883976,-1.007397 0.96023,-1.321687 0.898722,-3.704167 L 77.134769,62.08889 H 75.81687 c -0.724845,0 -2.317417,0.311084 -3.539049,0.691299 -1.221632,0.380215 -2.275242,0.637208 -2.341354,0.571095 -0.06611,-0.06611 0.557244,-0.700076 1.385238,-1.408808 1.333574,-1.14149 3.913496,-2.577768 5.661531,-3.151853 1.147584,-0.376886 1.070126,-1.700378 -0.269162,-4.599093 l -1.283217,-2.777354 -2.11185,2.074162 -2.11185,2.074163 0.126337,2.374777 c 0.138714,2.607436 -0.03403,2.658066 -0.924803,0.271056 -0.480189,-1.286763 -0.924845,-1.772085 -2.3472,-2.561867 -1.804016,-1.001703 -3.23562,-2.802744 -2.907502,-3.657806 0.101962,-0.265708 0.0226,-0.483105 -0.176364,-0.483105 -0.506856,0 -1.686341,2.02311 -2.159551,3.704167 -0.327946,1.16501 -1.092789,7.938272 -0.924614,8.188158 0.02749,0.04085 0.752333,-0.390707 1.610761,-0.959009 1.984178,-1.31358 3.430119,-1.652942 4.116839,-0.966222 0.451862,0.451862 0.337965,0.720162 -0.925354,2.179814 -0.792352,0.915491 -1.34051,1.826541 -1.21813,2.024556 0.212229,0.343393 2.572013,0.170221 4.193267,-0.307722 1.298028,-0.382657 -0.100324,0.874017 -1.478772,1.328946 -1.422465,0.469456 -1.023462,1.008053 0.775983,1.047467 0.582083,0.01275 2.169583,0.396215 3.527777,0.852144 1.358195,0.45593 2.553156,0.844805 2.65547,0.864166 0.102314,0.01936 0.620695,-0.460157 1.151958,-1.065595 z M 44.325094,65.786102 c 0.113151,-0.294866 -0.1373,-1.453371 -0.556558,-2.574455 -0.757218,-2.024783 -0.704957,-3.239424 0.139381,-3.239424 0.289125,0 0.5206,-0.858994 0.672818,-2.496806 0.201804,-2.171335 0.831833,-4.543889 1.802552,-6.788031 0.264746,-0.612048 0.214136,-0.615353 -1.092424,-0.07133 -0.753517,0.313749 -1.41401,0.681926 -1.467763,0.818169 -0.05375,0.136244 -0.864573,2.152716 -1.801824,4.481049 l -1.704092,4.233334 0.783911,2.19387 c 0.43115,1.206628 1.047193,2.595691 1.368984,3.086805 0.654706,0.999209 1.542943,1.170062 1.855015,0.356815 z m 9.743385,-2.126763 c 2.245345,-2.018759 3.180401,-2.014117 3.434297,0.01705 0.15632,1.250558 0.27498,1.400082 1.042912,1.314181 1.335544,-0.149394 1.275136,0.04803 2.435379,-7.959431 0.42734,-2.949301 1.675209,-5.580617 4.011561,-8.458964 2.252963,-2.775615 2.948757,-4.346565 3.410228,-7.699548 0.632814,-4.597946 1.869707,-7.450691 5.099514,-11.761414 0.869347,-1.16029 1.505086,-2.231853 1.412754,-2.38125 -0.264373,-0.427764 -2.241548,-0.310965 -4.35957,0.257536 -1.067153,0.286436 -3.015806,0.522677 -4.330341,0.52498 -4.256846,0.0075 -8.032569,1.855042 -9.443716,4.621119 -0.393121,0.770582 -1.19779,3.737948 -1.788153,6.594147 -0.871813,4.217866 -1.217279,5.292265 -1.839616,5.721209 -4.534851,3.125629 -7.382859,8.613389 -7.415394,14.288546 -0.01488,2.595605 0.486168,4.024234 1.841578,5.250863 0.722311,0.653683 0.737709,0.649919 1.085719,-0.265416 0.471052,-1.238962 0.868875,-1.170584 1.78159,0.306219 0.419705,0.679098 1.00464,1.234723 1.299855,1.234723 0.295216,0 1.339847,-0.722048 2.321403,-1.60455 z m 2.766684,-4.56906 c -0.03021,-2.489245 0.725902,-6.344726 1.560995,-7.959618 0.324601,-0.627709 1.605756,-2.222614 2.847012,-3.544233 1.241256,-1.321619 2.264783,-2.448915 2.274505,-2.505102 0.0097,-0.05619 0.230957,-2.165909 0.491633,-4.68827 0.510204,-4.936861 1.338508,-7.444988 3.177366,-9.621147 0.88149,-1.043182 2.310546,-2.102988 2.310546,-1.713532 0,0.08548 -0.545145,0.807921 -1.211435,1.605417 -1.454186,1.740548 -2.580433,4.600319 -2.896693,7.355298 -0.127614,1.111652 -0.406428,2.137818 -0.619587,2.280368 -0.267709,0.179029 -0.251192,0.260852 0.05341,0.264583 0.548798,0.0067 0.601105,3.066067 0.07604,4.447107 -0.200716,0.527922 -1.472039,2.187942 -2.825162,3.688933 -2.726979,3.02498 -3.6013,4.693943 -4.241856,8.09714 -0.800302,4.251901 -0.968303,4.638387 -0.996769,2.293056 z m -5.075416,-3.821214 c -0.139806,-0.355418 -0.254193,-1.475275 -0.254193,-2.488572 0,-1.416306 0.23044,-2.20505 0.996481,-3.410731 1.575712,-2.480032 4.556691,-4.775849 5.272158,-4.060381 0.120036,0.120035 -0.748396,1.206092 -1.929848,2.41346 -2.502827,2.557729 -3.179578,3.761252 -3.555958,6.323855 -0.192673,1.311824 -0.350186,1.676038 -0.52864,1.222369 z m 6.972146,-12.592023 c -0.568449,-0.91977 -0.581941,-4.195663 -0.02517,-6.110896 0.554886,-1.908741 2.375774,-4.529015 2.830981,-4.073807 0.116978,0.116977 -0.344096,1.386868 -1.024609,2.821979 -1.019752,2.150524 -1.249109,3.058981 -1.304487,5.166933 -0.06959,2.649109 -0.102599,2.801129 -0.476718,2.195791 z M 40.364072,62.936805 c -1.168144,-2.835034 -1.652322,-3.670138 -2.12788,-3.670138 -0.268934,0 -0.488971,0.220035 -0.488971,0.488967 0,0.551646 2.827384,4.915131 3.044286,4.698229 0.07699,-0.07699 -0.115359,-0.759663 -0.427435,-1.517058 z m 38.76916,-2.302403 c 0.788364,-0.204385 1.28404,-0.523348 1.196777,-0.770115 -0.245564,-0.694421 -2.933663,-0.359236 -4.929204,0.614633 l -1.84664,0.901202 2.116666,-0.198418 c 1.164167,-0.10913 2.722247,-0.355416 3.462401,-0.547302 z m -7.084386,-8.279744 1.619158,-2.325898 -0.72651,-1.231342 c -0.670121,-1.13577 -0.825136,-1.214429 -1.997197,-1.013426 -2.950955,0.506073 -3.156788,0.606375 -4.067043,1.981864 -0.880434,1.330425 -0.897203,1.442475 -0.368799,2.464295 0.576293,1.114428 2.407938,2.446806 3.366805,2.449087 0.304936,7.25e-4 1.283049,-1.045336 2.173586,-2.32458 z m 6.927562,1.209826 c 0.380541,-0.609343 0.451022,-2.89398 0.349443,-11.327307 l -0.127242,-10.564013 1.103352,-0.931721 c 1.180189,-0.996606 4.011926,-5.376864 4.011926,-6.205828 0,-0.566831 -0.66088,-0.816286 -2.534818,-0.95679 -1.026039,-0.07693 -1.602197,0.145298 -2.733236,1.054225 -0.788227,0.633437 -1.694482,1.660446 -2.013901,2.282244 -0.319418,0.621797 -1.330502,1.953632 -2.246852,2.959633 -3.108575,3.4127 -4.583722,6.730268 -5.461164,12.282018 -0.275991,1.74625 -0.612052,3.553254 -0.746802,4.015565 l -0.245001,0.840565 2.279773,-0.244143 2.279773,-0.244143 2.342363,2.342363 c 1.97366,1.97366 2.379167,2.587782 2.57617,3.901495 0.26274,1.752075 0.477508,1.898635 1.166216,0.795837 z m 3.724996,-1.794344 c 0.107051,-0.824619 0.349855,-3.474248 0.539564,-5.888065 l 0.344926,-4.38876 1.628531,-2.361949 c 1.678298,-2.434129 2.025791,-4.134407 0.803782,-3.932891 -0.351201,0.05792 -1.341653,-0.758273 -2.454861,-2.022943 l -1.866125,-2.120027 -0.67119,1.06007 c -0.747284,1.180255 -0.758739,1.102558 0.778286,5.27887 1.081666,2.939035 1.086271,2.977584 0.231768,1.940278 -0.479503,-0.582084 -0.877533,-1.177396 -0.884511,-1.322917 -0.007,-0.145521 -0.171437,-0.264583 -0.365465,-0.264583 -0.224495,0 -0.352778,2.822222 -0.352778,7.761111 v 7.761111 h 1.036718 c 0.953951,0 1.052256,-0.119697 1.231355,-1.499305 z M 49.225861,45.799685 c 2.027049,-1.780035 3.624215,-3.297755 3.549259,-3.372711 -0.07496,-0.07496 -1.920122,-0.02341 -4.100367,0.11455 l -3.964082,0.250835 0.219934,2.328126 c 0.120963,1.28047 0.221062,2.685314 0.222442,3.121877 0.0014,0.436562 0.08908,0.79375 0.194889,0.79375 0.10581,0 1.850877,-1.456392 3.877925,-3.236427 z m -0.01336,-4.567003 2.469444,-0.05195 -1.763889,-0.274737 c -2.719455,-0.423572 -3.512288,-0.382794 -4.254101,0.218803 -0.660928,0.536 -0.654059,0.54846 0.197157,0.357595 0.485069,-0.108766 1.993194,-0.221134 3.351389,-0.249708 z m 3.345055,-1.016015 c 0.909276,0 1.031333,-0.158365 1.42746,-1.852083 0.23824,-1.018646 0.821724,-3.098599 1.29663,-4.622117 1.064594,-3.415262 2.882651,-5.45017 5.707707,-6.388503 L 62.824741,26.744345 62.165082,25.6312 C 60.139123,22.212489 59.998418,22.193316 58.526574,25.135417 56.916981,28.352868 56.651868,28.575 54.421459,28.575 h -1.913632 l 0.232911,1.060435 c 0.226998,1.033513 0.208555,1.051174 -0.726452,0.695685 -0.527649,-0.200612 -0.994501,-0.32062 -1.037449,-0.266684 -0.04295,0.05393 -0.177965,1.097123 -0.300039,2.318196 l -0.221951,2.220131 1.281906,-0.240487 c 1.555801,-0.29187 1.363773,0.388799 -0.207017,0.733802 -0.778154,0.170912 -1.334226,0.742678 -2.301521,2.366483 -0.701503,1.177617 -1.230142,2.172736 -1.174755,2.211376 0.416295,0.290417 2.662511,0.794655 3.039975,0.682424 0.258404,-0.07683 0.917257,-0.139694 1.464119,-0.139694 z m 34.000307,-7.320139 c 0.09617,-0.339548 0.277189,-1.728611 0.402265,-3.086805 0.221739,-2.40785 0.201246,-2.494452 -0.821608,-3.472026 l -1.04902,-1.002582 -1.488691,2.505838 -1.488691,2.505839 1.005799,0.789798 c 0.55319,0.43439 1.405776,1.14197 1.894635,1.572401 1.083268,0.953795 1.320144,0.982542 1.545311,0.187537 z M 57.321952,25.056029 c 0.681537,-1.35335 1.239158,-2.526991 1.239158,-2.60809 0,-0.445026 -1.306638,-0.531598 -2.34676,-0.155485 -0.927241,0.335295 -1.474204,0.936506 -2.423953,2.664362 -0.67458,1.227248 -1.226509,2.305271 -1.226509,2.395606 0,0.09033 0.791754,0.164245 1.759453,0.164245 h 1.759454 z M 37.829529,54.517666 c -1.086994,-1.237577 -1.444048,-1.906355 -1.285122,-2.407087 0.145426,-0.458198 0.0876,-0.611505 -0.170502,-0.451992 -0.247196,0.152775 -0.390573,-0.09418 -0.390573,-0.672746 0,-1.051566 1.209568,-1.711535 2.192879,-1.196488 0.78861,0.413065 1.400065,2.734221 1.265279,4.803151 l -0.106769,1.638871 z m 0.618059,-1.982152 C 38.134067,50.821 37.581532,50.119023 37.001829,50.698727 c -0.288302,0.288301 -0.177313,0.775693 0.417738,1.834444 1.028598,1.830143 1.362397,1.830904 1.028021,0.0023 z"
         id="path1"
         transform="matrix(1.0402259,0,0,1.0402259,708.47024,1050.7457)" /></g></g></svg>
