<?xml version="1.0" encoding="UTF-8" standalone="no"?>
<!-- Created with Inkscape (http://www.inkscape.org/) -->

<svg
   version="1.1"
   id="svg1"
   width="24.403389"
   height="15.509338"
   viewBox="0 0 24.403389 15.509338"
   xml:space="preserve"
   xmlns="http://www.w3.org/2000/svg"
   xmlns:svg="http://www.w3.org/2000/svg"><defs
     id="defs1" /><g
     id="layer4"
     style="display:inline"
     transform="matrix(0.73131495,0,0,0.73131495,-4.2572027,-226.10451)"><g
       id="g359"><path
         style="display:inline;fill:#000000;stroke-width:0.330341"
         d="m 24.904297,299.54102 c -0.650369,0.006 -1.16781,0.3586 -1.921875,0.9707 -1.411039,1.1454 -2.052113,1.55872 -2.845703,1.85742 -1.103081,0.4152 -1.367255,0.56687 -2.201172,1.26367 -0.686038,0.57324 -1.754133,1.15337 -3.265625,1.75391 -1.531885,0.60865 -2.309128,1.17356 -2.765625,2.06836 -0.109478,0.21461 -0.252964,0.5658 -0.248047,0.7539 3.59e-4,0.0137 0.0014,0.0317 0.0059,0.0547 v 0.0723 l 0.0059,0.006 v 0.15039 h 0.257812 0.002 0.002 0.002 0.002 0.04297 l 0.04101,-0.0137 c 0.135926,-0.0473 0.223345,-0.20916 0.257813,-0.26954 0.58338,-1.02192 1.610729,-1.84944 2.65625,-2.14843 0.372193,-0.10644 0.899488,-0.28808 1.226562,-0.42383 -0.154247,0.26269 -0.355887,0.58975 -0.574219,0.92969 -0.319635,0.49766 -0.674891,1.02455 -0.96289,1.41796 -0.494676,0.67573 -1.20245,1.72465 -1.572266,2.33204 -0.814597,1.33793 -2.178602,3.24247 -2.84375,3.97851 -0.155179,0.17172 -0.2979359,0.34259 -0.3593749,0.45703 -0.013165,0.0245 -0.040923,0.0814 -0.046875,0.14063 v 0.0117 0.0137 0.002 c -2.48e-5,7.8e-4 4.4e-6,0.003 0,0.004 v 0.002 0.002 c 4.23e-5,0.002 -1.497e-4,0.003 0,0.006 v 0.25196 h 0.00586 v 0.006 h 0.2304685 l 0.01758,0.002 h 0.01563 c 0.07917,1.7e-4 0.149921,-0.0352 0.175782,-0.0488 0.816732,-0.43025 2.609156,-2.95372 3.714843,-4.91601 0.920302,-1.63329 2.002109,-3.14977 3.080078,-4.36524 1.07797,-1.21547 2.159282,-2.12894 3.039063,-2.55469 0.964635,-0.46681 1.646624,-0.90225 2.371094,-1.51367 0.795266,-0.67117 1.291739,-1.01279 1.732422,-1.13086 0.440682,-0.11807 0.878253,-0.04 1.634765,0.21094 0.413684,0.13722 0.625831,0.21782 0.789063,0.33008 0.163232,0.11226 0.30805,0.27522 0.574218,0.60547 0.242477,0.30084 0.421981,0.51825 0.539063,0.67968 0.117082,0.16144 0.164659,0.26224 0.175781,0.31836 0.02224,0.11226 -0.06015,0.25044 -0.33789,0.71094 -0.734369,1.2176 -1.439083,3.27795 -1.298829,4.18164 0.0044,0.0284 0.0138,0.0924 0.0293,0.15039 v 0.01 H 26.15625 v 0.2207 c -0.02934,0.11221 -0.02539,0.24395 -0.02539,0.28906 0,0.0449 -0.0052,0.17966 0.02539,0.29297 v 0.21485 h 0.002 v 0.002 h 0.257813 0.002 0.002 0.257812 v -0.19531 c 0.0074,-0.0215 0.01182,-0.0398 0.01367,-0.0469 0.04091,-0.1566 0.04092,-0.38046 0,-0.53711 -0.0017,-0.007 -0.0047,-0.0156 -0.0078,-0.0254 v -0.0312 l 0.05078,-0.0488 0.002,-0.002 0.02539,-0.0273 0.01758,-0.0332 c 0.05277,-0.0967 0.05418,-0.31806 0.05664,-0.37695 8.82e-4,-0.0211 0.0028,-0.0432 0.0039,-0.0625 0.02944,0.0328 0.06232,0.0689 0.0957,0.0977 l 0.002,0.002 0.0039,0.002 c 0,0 0.002,0 0.002,0 0,0 0,0.002 0,0.002 0,0 0,0.002 0,0.002 0,0 0.002,0 0.002,0 l 0.06836,0.0684 h 0.107422 0.002 0.002 0.002 0.257813 v -0.25781 -0.002 c 0,-9.7e-4 10e-5,-0.002 0,-0.01 -0.0031,-0.11032 -0.13556,-0.37572 -0.169922,-0.45117 -0.0018,-0.004 -0.01564,-0.062 -0.01563,-0.14844 1.9e-5,-0.0865 0.0094,-0.20011 0.03125,-0.33203 0.06547,-0.39578 0.227469,-0.94126 0.423828,-1.45508 0.130906,-0.34255 0.278546,-0.67378 0.419922,-0.94141 0.106031,-0.20072 0.209619,-0.36625 0.292968,-0.46875 0.371917,0.65539 1.406922,2.75049 2.222657,4.47656 0.558301,1.18135 1.031869,2.24102 1.103515,2.46875 0.579598,1.84233 0.766305,2.92113 0.929688,5.35743 0.116992,1.74457 0.274713,2.49715 0.804687,3.85937 0.116098,0.29841 0.299864,0.72891 0.425782,0.875 0.0065,0.008 0.01851,0.0199 0.0332,0.0332 l 0.002,0.002 0.0039,0.002 c 0,0 0.002,0.002 0.002,0.002 0,0 0.002,0.002 0.002,0.002 0,0 0.002,0.002 0.002,0.002 l 0.06641,0.0664 h 0.107422 0.002 0.002 0.002 c 0.01478,0 0.09284,0.006 0.167969,-0.0293 l 0.01172,-0.006 0.0098,-0.006 c 0.01635,-0.01 0.0146,-0.009 0.0293,-0.0195 l 0.01172,-0.008 0.01172,-0.0117 c 0.01175,-0.0111 0.02112,-0.0218 0.02539,-0.0274 0,0 0,-0.002 0,-0.002 0,0 0.002,0 0.002,0 0,0 0,-0.002 0,-0.002 l 0.0078,-0.008 0.0078,-0.0137 c 0.05479,-0.0845 0.05005,-0.1737 0.04297,-0.22265 -0.02216,-0.15319 -0.187654,-0.49881 -0.355469,-0.85742 -0.208713,-0.44602 -0.356824,-0.93999 -0.410156,-1.28321 -0.01298,-0.0835 -0.0176,-0.16027 -0.01953,-0.2207 0.162762,0.0416 0.367662,0.0839 0.527343,0.10937 l 0.234375,0.0371 -0.02344,0.39063 c -0.0159,0.25484 -0.0151,0.51296 0.0332,0.66016 0.01181,0.036 0.03409,0.0967 0.0918,0.15039 l 0.002,0.002 c 0.0028,0.003 0.0048,0.005 0.0078,0.008 l 0.06445,0.0645 h 0.002 l 0.002,0.002 h 0.107422 0.002 c 0.001,-1e-5 0.0052,3e-5 0.0059,0 h 0.002 0.002 0.107421 l 0.05859,-0.0586 h 0.002 c 0.0057,-0.005 0.01022,-0.0105 0.01563,-0.0156 l 0.002,-0.002 c 0.144212,-0.13821 0.188757,-0.44137 0.210938,-0.58008 0.02076,-0.12985 0.03844,-0.23223 0.05664,-0.30664 0.0156,-0.0638 0.03172,-0.10593 0.04102,-0.125 0.0037,-1.3e-4 0.0082,-1.3e-4 0.01367,0 0.04078,9.1e-4 0.124305,0.0134 0.238281,0.0391 0.104106,0.0235 0.339541,0.0816 0.50586,0.0684 h 0.002 0.01172 0.0957 l 0.07617,-0.0742 0.002,-0.002 0.002,-0.002 v -0.002 l 0.002,-0.002 0.07227,-0.0723 v -0.002 l 0.002,-0.002 v -0.10743 -0.002 -0.002 -0.10742 l -0.05859,-0.0586 c -0.005,-0.006 -0.0103,-0.012 -0.01563,-0.0176 l -0.002,-0.002 c -0.02293,-0.0236 -0.04804,-0.0422 -0.06055,-0.0508 -0.164866,-0.11259 -0.643507,-0.26436 -1.048828,-0.36914 -0.523559,-0.13534 -1.161161,-0.33415 -1.347656,-0.41211 l -0.261719,-0.10938 -0.05859,-1.625 c -0.09737,-2.71477 -0.597272,-4.50586 -2.152344,-7.7207 -0.401456,-0.82994 -0.950492,-2.00912 -1.214843,-2.61133 -0.580252,-1.32182 -1.032117,-2.1497 -1.732422,-3.16601 -0.04792,-0.0695 -0.09234,-0.13449 -0.132813,-0.19336 0.289317,0.10493 0.701544,0.22457 0.904297,0.22461 0.09768,2e-5 0.448324,0.0485 0.84375,0.12695 0.593139,0.11773 1.337259,0.29884 1.820313,0.45117 0.339753,0.10715 0.48752,0.16403 0.58789,0.24805 0.10037,0.084 0.199523,0.23697 0.392578,0.57617 0.455463,0.80027 1.521338,1.83369 3.06836,3.0332 0.345203,0.26766 0.712827,0.54464 0.833984,0.60743 0.01346,0.007 0.04491,0.0246 0.08984,0.0332 l 0.02344,0.004 h 0.02539 0.002 0.002 0.107422 l 0.07617,-0.0742 0.002,-0.002 0.07422,-0.0762 v -0.10742 -0.002 -0.0566 l -0.02344,-0.0508 c -0.02188,-0.0482 -0.04505,-0.0728 -0.05664,-0.0859 -0.112979,-0.12833 -0.582102,-0.52431 -1.076172,-0.92578 -0.579544,-0.47093 -1.149116,-1.01586 -1.613281,-1.51758 -0.348125,-0.37629 -0.637952,-0.72935 -0.822266,-1 -0.05115,-0.0751 -0.09325,-0.14512 -0.126953,-0.20508 0.138255,0.0365 0.320341,0.0957 0.53125,0.16992 0.59301,0.20867 1.413694,0.54404 2.21875,0.90235 0.805056,0.3583 1.597709,0.7392 2.138672,1.03515 0.216385,0.11839 0.393291,0.22547 0.507812,0.30469 0.04997,0.0346 0.08824,0.0655 0.109375,0.084 2.19e-4,0.003 -1.61e-4,0.006 0,0.01 0.0019,0.04 -0.0014,0.11916 -0.01953,0.23242 -0.03625,0.22653 -0.123121,0.58915 -0.265625,1.1211 -0.267094,0.99701 -0.417707,1.88903 -0.484375,2.87109 -0.08089,1.19149 -0.202478,1.8766 -0.527344,2.97461 -0.01203,0.0408 -0.05182,0.16478 -0.03125,0.28125 v 0.0723 l 0.04492,0.0469 0.05664,0.10156 h 0.04687 l 0.0039,0.004 h 0.002 l 0.002,0.002 h 0.107422 0.002 0.107422 l 0.05273,-0.0527 h 0.002 l 0.0098,-0.008 c 0.0091,-0.007 0.01582,-0.014 0.01953,-0.0176 l 0.002,-0.002 c 0.05127,-0.0485 0.08626,-0.10892 0.111328,-0.15625 0.236681,-0.44684 0.585079,-1.86466 0.75,-2.82226 0.05016,-0.29123 0.08855,-0.56706 0.107422,-0.79492 0.067,-0.80888 0.217354,-1.56161 0.46289,-2.32813 l 0.22461,-0.70117 c 0.07568,0.0968 0.14228,0.19387 0.179687,0.25586 0.0028,0.005 0.0054,0.008 0.0078,0.0117 0.0022,0.004 0.004,0.008 0.0059,0.0117 0,0 0,0.002 0,0.002 0,0 0.002,0 0.002,0 0,0 0.002,0.002 0.002,0.002 0,0 0,0.002 0,0.002 0,0 0.002,0.002 0.002,0.002 1.76e-4,0.002 0.0016,0.004 0.002,0.006 0,0 0,0.002 0,0.002 0,0 0.002,0.002 0.002,0.002 0,0 0.002,0 0.002,0 0,0 0,0.002 0,0.002 0,0 0,0.002 0,0.002 0,0 0,0.002 0,0.002 l 0.002,0.002 v 0.002 h -0.002 c 0.002,0.009 0.0026,0.0165 0.0039,0.0215 0.03457,0.12888 0.204141,0.5105 0.320312,0.75586 0.307442,0.64932 0.589169,0.98567 1.261719,1.51367 0.07227,0.0567 0.105843,0.0907 0.113281,0.10157 0.0012,0.002 0.0032,0.005 0.0039,0.006 l 0.002,0.002 v 0.002 0.002 c 0,0 0,0.002 0,0.002 0,0 0.002,0.002 0.002,0.002 0,0 0,0.002 0,0.002 0.0031,0.0168 0.0051,0.0628 -0.0039,0.14257 -0.009,0.0798 -0.02766,0.19151 -0.05469,0.33985 -0.05175,0.28395 -0.0875,0.54039 -0.08203,0.67383 0.0011,0.0262 0.0026,0.097 0.04102,0.16406 l 0.01758,0.0293 0.02344,0.0254 0.002,0.002 0.002,0.002 0.002,0.002 0.07617,0.0742 h 0.107422 0.002 0.002 0.107421 l 0.002,-0.002 0.07422,-0.0723 0.002,-0.002 c 0.115173,-0.11353 0.196844,-0.46998 0.230469,-0.60351 0.02676,-0.10627 0.05267,-0.1966 0.07422,-0.26563 0.05462,0.0623 0.124848,0.14842 0.207031,0.25391 0.0709,0.091 0.280689,0.36367 0.431641,0.48437 0.0059,0.005 0.01185,0.0114 0.01758,0.0156 l 0.05859,0.0586 h 0.107422 0.002 0.002 0.002 0.257812 v -0.002 h 0.002 v -0.002 h 0.002 v -0.25781 -0.002 -0.002 c 0,-0.21484 -0.278743,-0.56624 -0.400391,-0.72266 -0.309423,-0.39786 -0.786562,-0.92522 -1.148437,-1.23438 -0.24508,-0.20938 -0.399217,-0.36513 -0.53125,-0.55468 -0.132034,-0.18956 -0.246698,-0.42111 -0.394532,-0.77735 -0.813001,-1.9591 -2.553556,-3.10497 -6.054687,-4.08007 -0.824839,-0.22973 -2.055656,-0.59472 -2.722656,-0.80665 -0.675609,-0.21466 -1.713321,-0.48409 -2.300782,-0.5957 -0.799585,-0.1519 -1.268847,-0.32593 -2.259765,-0.8457 -1.10095,-0.57745 -1.81724,-0.91367 -2.451172,-0.9082 z m -1.574219,3.71093 -0.06836,0.0684 c 0,0 -0.002,0.002 -0.002,0.002 l -0.0059,0.004 -0.002,0.002 c -0.04347,0.0406 -0.07621,0.0916 -0.0918,0.11329 -0.274044,0.38138 -0.533262,0.68814 -0.759765,0.91211 -0.226504,0.22396 -0.425884,0.36207 -0.542969,0.4082 -0.04986,0.0196 -0.08085,0.0216 -0.0918,0.0215 -0.0051,-0.007 -0.01598,-0.0271 -0.02539,-0.0625 -0.0227,-0.0855 -0.07041,-0.28579 -0.140625,-0.37304 l -0.0078,-0.0117 -0.0098,-0.01 -0.002,-0.002 -0.002,-0.002 -0.002,-0.002 h -0.002 l -0.002,-0.002 -0.07422,-0.0723 -0.002,-0.002 h -0.107422 -0.002 -0.002 -0.257813 v 0.15039 l -0.0039,0.004 v 0.0703 c -0.01493,0.0612 -0.01633,0.11968 -0.01758,0.14844 -0.0094,0.21571 -0.03497,0.39556 -0.07031,0.52929 -0.03534,0.13374 -0.08353,0.21988 -0.113281,0.25391 -0.01213,0.0139 -0.02165,0.0194 -0.02539,0.0215 v 0.002 h -0.002 -0.002 c -0.0037,-3.9e-4 -0.01074,-0.003 -0.02344,-0.008 -0.172054,-0.065 -0.334948,-0.0953 -0.533204,-0.0254 -0.169933,0.06 -0.352482,0.19244 -0.583984,0.36915 -0.147639,0.11269 -0.295975,0.21555 -0.408203,0.2871 -0.04489,0.0286 -0.08344,0.0518 -0.113281,0.0684 -0.0045,0.002 -0.0097,0.006 -0.01367,0.008 0,0 -0.002,0.002 -0.002,0.002 -8.37e-4,3.3e-4 -0.0051,-2.7e-4 -0.0059,0 0,0 -0.002,0.002 -0.002,0.002 -0.0029,0.001 -0.0054,0.003 -0.0078,0.004 v 0.002 c 0,0 -0.002,0 -0.002,0 -0.0017,1.9e-4 -0.0039,0.002 -0.0059,0.002 -7.49e-4,3.8e-4 -0.0012,0.002 -0.002,0.002 -0.0012,5.5e-4 -0.003,0.002 -0.0039,0.002 h -0.002 -0.002 -0.002 v -0.002 c -0.460668,0.0682 -1.018258,0.84025 -1.27539,1.29883 -0.09018,0.16083 -0.17197,0.32887 -0.234375,0.49218 -0.153951,0.40289 -0.563598,1.16655 -0.88086,1.62891 -0.332427,0.48445 -0.964544,1.40561 -1.404296,2.04688 -0.320171,0.46689 -0.567678,0.78408 -0.736328,0.94726 -0.05622,0.0544 -0.102532,0.0914 -0.134766,0.11133 -0.0074,0.005 -0.01395,0.009 -0.01953,0.0117 -0.0019,-0.003 -0.0037,-0.006 -0.0059,-0.01 -0.02317,-0.0358 -0.05619,-0.10627 -0.08789,-0.20508 l -0.121094,-0.3789 -0.503906,0.0703 -0.01172,0.37891 c -0.0018,0.0575 -0.0046,0.10256 -0.0078,0.13281 -0.03968,0.005 -0.105531,0.0102 -0.193359,0.0137 -0.07564,0.003 -0.232176,0.007 -0.318359,0.0215 h -0.230469 v 0.25781 0.002 0.002 0.25782 h 0.228516 c 0.08119,0.0185 0.179296,0.0275 0.210937,0.0312 0.190863,0.0228 0.55965,0.0687 0.814453,0.10156 l 0.240235,0.0312 v 1.14844 1.02734 l -0.05274,-0.0156 c -0.06696,-0.0206 -0.171748,-0.0752 -0.263672,-0.14063 -0.09192,-0.0654 -0.173688,-0.14574 -0.208984,-0.19531 -0.197595,-0.2775 -0.45903,-0.44378 -0.746094,-0.52344 -1.146737,-0.31822 -2.576277,0.81335 -1.832031,1.94922 0.159665,0.24368 0.42705,0.41977 0.722656,0.55078 0.238362,0.10564 0.512485,0.18724 0.792969,0.24414 1.017581,0.20644 2.600438,0.15948 2.806641,-0.66211 h 0.002 v -0.002 l 0.002,-0.002 c 0.02123,-0.022 0.13841,-0.0934 0.460937,-0.0859 0.533838,0.0123 1.398547,0.24029 2.21875,0.65039 0.513881,0.25694 1.063186,0.39923 1.916016,0.50781 0.38823,0.0494 0.701171,0.10342 0.941406,0.16211 0.240235,0.0587 0.408481,0.12514 0.5,0.18359 0.09152,0.0585 0.102732,0.0872 0.109375,0.12305 0.0066,0.0359 -0.0012,0.11372 -0.0625,0.24024 -0.01998,0.0412 -0.0952,0.18592 -0.105469,0.26562 l -0.002,0.0176 v 0.0156 0.002 0.002 0.25781 h 0.002 v 0.002 h 0.257813 0.002 0.107422 l 0.07031,-0.0703 c 0,0 0.002,-0.002 0.002,-0.002 0,0 0.002,0 0.002,0 0,0 0.002,-0.002 0.002,-0.002 l 0.002,-0.002 c 0.02919,-0.027 0.05971,-0.0621 0.08594,-0.0937 0.06616,0.0849 0.161452,0.22132 0.291016,0.41211 0.19131,0.28172 0.443167,0.64139 0.574219,0.74219 0.0026,0.002 0.0059,0.005 0.0098,0.008 0.0022,0.002 0.0033,0.002 0.0059,0.004 l 0.05469,0.0547 h 0.107422 0.002 0.002 0.002 0.257813 v -0.002 h 0.002 v -0.002 h 0.002 v -0.15234 l 0.002,-0.002 v -0.0898 -0.0156 c 0,0 0,-0.002 0,-0.002 v -0.002 c -0.0018,-0.13239 -0.108277,-0.33243 -0.158203,-0.42774 0.05716,-0.001 0.126672,-0.006 0.177735,-0.0176 h 0.21289 v -0.25782 -0.002 -0.002 -0.002 -0.0215 c 0.462422,0.13337 1.04077,0.19336 1.699219,0.19336 0.746465,0 1.186972,0.061 1.609375,0.21289 0.652945,0.23479 1.83331,0.34241 2.347656,0.10937 0.03248,-0.0147 0.109311,-0.0459 0.16211,-0.0996 h 0.05664 c 0.01597,0.003 0.034,0.005 0.05273,0.006 0.31483,0.01 0.572457,-0.10474 0.755859,-0.31054 0.344574,-0.38666 0.376658,-1.03359 0.224609,-1.60547 -0.155727,-0.58572 -0.524695,-1.18312 -1.103515,-1.49805 -0.120602,-0.0656 -0.288054,-0.0867 -0.433594,-0.0898 -0.04851,-0.001 -0.09364,2e-5 -0.134766,0.002 -0.140116,0.007 -0.559306,0.0318 -0.714843,0.24414 -0.204942,-0.003 -0.588199,0.12075 -0.699219,0.15625 l -0.484375,0.1543 -1.117188,-0.59766 c -0.801305,-0.42828 -1.490435,-0.67064 -2.044922,-0.68164 -0.71391,-0.0142 -1.169077,0.34542 -1.359375,1.02149 0.371307,-3.06499 0.25628,-6.33691 -0.324218,-8.39844 -0.253684,-0.90091 -0.374504,-1.36768 -0.388672,-1.625 -0.0071,-0.12866 0.0051,-0.20096 0.03711,-0.2832 0.03196,-0.0823 0.09267,-0.18046 0.185547,-0.32227 l 0.248047,-0.37891 h 0.740234 c 0.700613,0 1.918812,-0.27248 2.738282,-0.5332 0.35246,-0.11214 0.814865,-0.2777 0.986328,-0.44531 0.05315,-0.052 0.140179,-0.16744 0.101562,-0.31836 l -0.002,-0.01 -0.0039,-0.01 v -0.002 c -0.0011,-0.004 -0.0044,-0.0133 -0.0098,-0.0254 l -0.0039,-0.01 -0.0059,-0.008 c -0.05278,-0.0966 -0.147705,-0.1469 -0.210938,-0.16797 -0.182769,-0.061 -0.40107,0.016 -0.525391,0.11914 -0.119617,0.0993 -0.326598,0.20965 -0.576171,0.30469 -0.249574,0.095 -0.542162,0.17887 -0.839844,0.24218 -0.446524,0.095 -0.906703,0.14692 -1.25,0.14453 -0.162014,-0.001 -0.300908,-0.0177 -0.386719,-0.0371 0.199219,-0.30141 0.481536,-0.78334 0.556641,-0.95898 0.0065,-0.0152 0.02664,-0.0568 0.03125,-0.11523 v -0.01 -0.01 -0.002 -0.002 -0.25781 h -0.002 v -0.002 z m -7.947265,9.83399 c -0.04605,0.11373 -0.08582,0.22139 -0.119141,0.32226 l 0.0078,-0.14453 z m -2.69336,2.35156 c 0.204697,-0.008 0.406681,0.061 0.582031,0.23633 0.228035,0.22802 0.702596,0.53929 1.052735,0.70508 0.209235,0.0991 0.358143,0.19998 0.43164,0.27343 0.01034,0.0103 0.0183,0.0206 0.02539,0.0293 -0.204687,0.0786 -0.595918,0.10493 -1.013672,0.0605 -0.417754,-0.0444 -0.867225,-0.15014 -1.224609,-0.28125 -0.238256,-0.0874 -0.436942,-0.18851 -0.546875,-0.27344 -0.04397,-0.034 -0.07236,-0.0652 -0.08594,-0.084 -0.002,-0.003 -0.0045,-0.006 -0.0059,-0.008 0.117297,-0.41698 0.449513,-0.64486 0.785156,-0.6582 z m 11.339844,0.67969 c 0.144277,-0.0111 0.325209,0.0104 0.552734,0.0742 0.303368,0.085 0.682837,0.24317 1.142578,0.47461 l 1.296875,0.65234 0.345703,-0.10742 c -0.167728,0.10193 -0.343629,0.1995 -0.511718,0.28515 -0.209751,0.10688 -0.410416,0.19495 -0.566407,0.2461 -0.103993,0.0341 -0.189354,0.0512 -0.228515,0.0527 -0.03027,0.001 -0.102001,0.003 -0.173828,0.0254 h -0.203125 v 0.002 h -0.002 v 0.25781 0.002 0.002 0.002 0.002 0.002 0.10743 l 0.07227,0.0723 0.002,0.004 0.002,0.002 c 0.04834,0.0499 0.107851,0.0756 0.138672,0.0879 0.117196,0.0468 0.253859,0.0345 0.357422,0.0156 0.451241,-0.0822 1.246721,-0.46498 2.082031,-0.96485 0.281567,-0.16849 0.501231,-0.29082 0.666016,-0.36133 0.164785,-0.0705 0.267196,-0.0859 0.330078,-0.0781 0.125764,0.0155 0.264963,0.1526 0.541016,0.58789 0.238096,0.37544 0.318341,0.66446 0.294922,0.85937 -0.01171,0.0975 -0.04456,0.17749 -0.107422,0.25782 -0.06286,0.0803 -0.159637,0.16079 -0.298828,0.23633 l -0.134766,0.0723 v 0.01 c -0.04534,0.0314 -0.09358,0.0705 -0.130859,0.11718 h -0.06445 c 0,0 -0.002,0 -0.002,0 0,0 -0.002,0 -0.002,0 -0.0017,7e-5 -0.0043,1.2e-4 -0.0059,0 h -0.002 c -0.114942,-0.008 -0.26233,0.0177 -0.324219,0.0274 -0.108227,0.0169 -0.281118,0.0118 -0.535156,-0.0352 -0.254039,-0.0469 -0.58932,-0.13396 -1.023438,-0.26562 -0.911578,-0.27648 -1.413999,-0.37295 -1.832031,-0.31446 -0.636633,0.089 -1.377018,0.0149 -1.873047,-0.14453 -0.165343,-0.0531 -0.302341,-0.11517 -0.396484,-0.17578 -0.09414,-0.0606 -0.138239,-0.11883 -0.146485,-0.13867 -0.02903,-0.0699 -0.109005,-0.27183 -0.220703,-0.375 -0.0046,-0.004 -0.0089,-0.01 -0.01367,-0.0137 l -0.002,-0.002 0.109375,-0.40429 c 0.09987,-0.37091 0.212012,-0.64609 0.333985,-0.82617 0.121972,-0.18009 0.239901,-0.26628 0.40039,-0.3086 0.04012,-0.0106 0.08472,-0.0178 0.132813,-0.0215 z m -1.458985,1.64648 0.04883,0.006 v 0.0723 c -0.0036,0.018 -0.0052,0.0351 -0.0059,0.0527 -5.91e-4,0.0149 5.2e-5,0.0302 0,0.0449 -0.01627,-0.0565 -0.03067,-0.11528 -0.04297,-0.17578 z"
         id="path1-5"
         transform="translate(-3.9774756,9.6343299)" /></g></g></svg>
