<?xml version="1.0" encoding="UTF-8" standalone="no"?>
<!-- Created with Inkscape (http://www.inkscape.org/) -->

<svg
   version="1.1"
   id="svg1"
   width="40.599182"
   height="15.672058"
   viewBox="0 0 40.599182 15.672058"
   xml:space="preserve"
   xmlns="http://www.w3.org/2000/svg"
   xmlns:svg="http://www.w3.org/2000/svg"><defs
     id="defs1" /><g
     id="layer4"
     style="display:inline"
     transform="matrix(0.73131495,0,0,0.73131495,-235.52561,-668.88546)"><g
       id="g358"><path
         style="display:inline;fill:#262626;fill-opacity:0.964706;stroke-width:0.214879"
         d="m 353.96289,912.86523 c -0.74189,0.002 -1.69205,0.26859 -2.12305,0.92383 -1.00925,-0.27551 -2.19511,0.23756 -2.57422,1.11524 -0.0997,0.23091 -0.14267,0.48841 -0.10351,0.75586 -0.0124,0.0126 -0.0262,0.0267 -0.043,0.043 -0.56819,0.55071 -0.62776,1.04924 -0.24609,1.85352 0.31897,0.67216 0.54017,0.89307 1.14062,1.05664 -0.0927,0.18255 -0.13656,0.38813 -0.11133,0.5918 -0.46619,0.42436 -0.44341,1.17574 0.0254,1.58008 -0.0674,0.14551 -0.0974,0.30632 -0.10156,0.46875 -0.13259,-0.0334 -0.26886,-0.0566 -0.4082,-0.0586 -0.0372,-5.3e-4 -0.0736,0.001 -0.11133,0.004 -0.65486,0.0448 -1.20803,0.57698 -2.21484,1.54687 -0.37034,0.35676 -1.07072,0.9485 -1.4961,1.26368 -0.45328,0.33584 -1.11972,0.8352 -1.48047,1.10742 -0.64921,0.48986 -2.02087,1.46557 -2.625,1.86914 -0.18939,0.12652 -0.60676,0.40599 -0.92773,0.62109 -1.42519,0.95509 -5.3324,2.89555 -7.90039,3.90235 -3.34609,1.31185 -4.23629,1.53516 -6.0957,1.54296 -0.67927,0.003 -1.28567,0.002 -1.54688,0.0645 -0.40601,0.0974 -0.5457,0.42644 -0.4668,0.72265 v 0.10743 l 0.13477,0.14843 c 0.1513,0.16633 0.36515,0.19351 0.42383,0.20313 0.65988,0.10814 3.0016,-2.9e-4 3.85742,-0.18164 0.11304,0.16602 0.29484,0.24044 0.35547,0.26562 0.11658,0.0484 0.21754,0.0517 0.27344,0.0547 0.26087,0.014 0.9866,-0.0191 2.0957,-0.0762 2.63339,-0.13547 6.33361,-1.31244 9.23242,-2.90235 0.0471,-0.0258 0.0927,-0.0493 0.13477,-0.0723 -0.002,0.006 -0.004,0.0117 -0.006,0.0176 -0.10396,0.40657 0.15082,0.80713 0.61914,0.79101 0.19269,-0.006 0.33292,-0.11178 0.37695,-0.14258 0.40128,-0.28065 1.56408,-1.49443 1.81641,-1.92968 0.0249,-0.043 0.12066,-0.20143 0.0976,-0.40235 -0.0371,-0.32419 -0.23473,-0.66683 -0.67773,-0.68164 -0.0295,-9.8e-4 -0.06,-7e-5 -0.0918,0.002 -0.4424,0.0282 -1.33378,0.49577 -2.32617,1.00195 -3.6123,1.84251 -5.87813,2.65478 -8.51953,2.96094 1.8995,-0.71275 3.91915,-1.58473 5.36914,-2.3418 2.37466,-1.23987 5.38202,-3.08776 6.78516,-4.19336 -0.0195,0.0661 -0.0305,0.14589 -0.0195,0.23437 v 0.0937 l 0.0449,0.0723 0.0195,0.0566 0.0547,0.0547 c 0.0652,0.0817 0.14358,0.13364 0.2207,0.16797 0.0112,0.005 0.0218,0.009 0.0332,0.0137 -0.0732,0.0934 -0.12977,0.19568 -0.15625,0.30469 -0.0298,0.12271 -0.0333,0.29847 0.0801,0.46679 l 0.01,0.0176 0.0137,0.0156 c 0.36595,0.45949 1.06745,0.0912 1.33984,-0.0566 0.91104,-0.49443 1.86844,-1.24916 2.45899,-1.95704 -0.006,0.0934 -0.0101,0.19518 -0.0156,0.30665 -0.026,0.52587 -0.0529,0.7938 -0.15039,1.11523 -0.0975,0.32143 -0.28354,0.72554 -0.63867,1.44922 -0.10564,0.21527 -0.33916,0.71495 -0.35938,0.9707 -0.003,0.0369 -0.006,0.1449 0.0352,0.25195 0.0735,0.19142 0.26528,0.40488 0.57422,0.4004 0.17744,-0.003 0.32543,-0.0873 0.40429,-0.14258 0.29856,-0.20925 0.70328,-0.75875 1.11915,-1.35157 0.52753,-0.75201 0.53393,-0.75584 0.76171,-1.87109 0.0676,-0.33093 0.13566,-0.62376 0.19922,-0.87109 0.37605,0.13451 0.85114,-0.0806 0.97266,-0.72852 0.067,-0.35717 0.004,-0.61349 -0.25586,-0.85547 -0.003,-0.003 -0.006,-0.006 -0.01,-0.01 -0.003,-0.003 -0.007,-0.007 -0.01,-0.01 -0.10113,-0.26027 -0.36278,-0.36602 -0.46485,-0.39844 -0.18352,-0.0582 -0.36149,-0.0424 -0.51757,0.0215 0.007,-0.28551 -0.0639,-0.54824 -0.29493,-0.71485 -0.139,-0.10025 -0.28657,-0.13618 -0.4375,-0.12304 -0.0411,-0.0516 -0.0874,-0.0938 -0.13476,-0.125 -0.0198,-0.013 -0.0315,-0.0181 -0.041,-0.0234 l -0.0195,-0.01 -0.0195,-0.01 c -0.0593,-0.0263 -0.14759,-0.0534 -0.25195,-0.0508 -0.0149,3.7e-4 -0.0294,0.002 -0.0449,0.004 -0.18819,0.0201 -0.32405,0.11815 -0.39844,0.17383 -0.3319,0.24843 -0.77714,0.80643 -1.13672,1.34766 -0.20015,0.30124 -0.53973,0.68652 -0.89063,1.00195 -0.0713,0.0641 -0.14465,0.13043 -0.21679,0.19531 -0.10235,-0.20152 -0.30109,-0.37773 -0.53906,-0.42578 0.009,-0.007 0.0197,-0.0156 0.0293,-0.0234 0.0177,-0.0145 0.0354,-0.0294 0.0547,-0.0449 0.12844,-0.1036 0.28921,-0.23031 0.46289,-0.36132 0.45872,-0.34601 1.20524,-0.98348 1.64844,-1.41016 0.3527,-0.33955 0.79787,-0.73812 1.02929,-0.93164 0.40838,0.34938 1.20624,0.37349 1.57618,0.30859 0.0611,-0.0107 0.62536,-0.0518 1.06054,-0.0547 0.26848,-0.002 0.66304,-0.0279 1.05664,-0.0918 -0.25716,0.45377 -0.0119,1.1359 0.49805,1.3164 v -0.002 l -0.002,-0.002 -0.002,-0.002 v -0.002 -0.002 -0.002 l 0.002,-0.002 h 0.002 v -0.002 h 0.002 c 0,0 0.002,0 0.002,0 0.005,-0.001 0.0139,-8.2e-4 0.0195,0 0.001,2.5e-4 0.003,-3.4e-4 0.004,0 l 0.002,0.002 h 0.002 l 0.002,0.002 c 0.003,0.002 0.006,0.005 0.01,0.008 0.004,0.003 0.007,0.008 0.0117,0.0117 0.005,0.004 0.0102,0.008 0.0156,0.0137 0.002,4.9e-4 0.004,0.001 0.006,0.002 -0.002,-2.9e-4 -0.004,3.6e-4 -0.006,0 0.006,0.006 0.0127,0.0107 0.0195,0.0176 0.008,0.008 0.0151,0.0168 0.0234,0.0254 0.009,0.01 0.0194,0.0188 0.0293,0.0293 0.0661,0.0702 0.14488,0.16127 0.2207,0.2539 0.0948,0.11579 0.18675,0.23788 0.2461,0.32618 0.006,0.009 0.0104,0.0173 0.0156,0.0254 0.005,0.007 0.01,0.0131 0.0137,0.0195 0.003,0.004 0.005,0.01 0.008,0.0137 -0.001,-0.0109 -0.001,-0.0348 -0.002,-0.0508 0.003,0.0215 0.007,0.0444 0.0117,0.0664 0.002,0.003 0.004,0.007 0.006,0.01 0,0 0.002,0.002 0.002,0.002 0,0 0,0.002 0,0.002 0,0 0.002,0 0.002,0 0,0 0,0.002 0,0.002 v 0.002 l 0.002,0.002 v 0.002 c 0,0 0,0.002 0,0.002 0,0 0,0.002 0,0.002 0,0 -0.002,0.002 -0.002,0.002 v 0.002 h -0.002 c 0,0 0,0.002 0,0.002 0.035,0.12398 0.11064,0.24843 0.22657,0.33204 0.004,0.006 0.008,0.0124 0.0117,0.0195 0.004,0.008 0.008,0.0169 0.0117,0.0254 0.005,0.009 0.009,0.0195 0.0137,0.0293 0.11022,0.24445 0.33426,0.52568 0.52539,0.70118 0.46191,0.42415 0.83541,0.82159 1.1914,1.26562 0.21129,0.26354 0.59509,0.67235 0.84961,0.9043 0.19506,0.17775 0.44466,0.38793 0.67969,0.46289 0.45056,0.14369 0.79371,-0.1538 0.85156,-0.55664 0.0824,-0.57309 -0.66357,-1.22089 -1.04883,-1.53906 -0.20544,-0.16967 -0.54747,-0.53956 -0.65625,-0.69532 -0.18446,-0.2641 -0.55705,-0.69391 -0.82617,-0.96679 -0.22933,-0.23255 -0.57484,-0.66309 -0.6914,-0.84766 -0.13451,-0.21296 -0.40717,-0.58451 -0.58985,-0.73828 -0.0111,-0.009 -0.044,-0.0455 -0.0644,-0.0742 -0.002,-0.003 -0.004,-0.005 -0.006,-0.008 0,0 -0.002,-0.002 -0.002,-0.002 0,0 0,-0.002 0,-0.002 0,0 -0.002,-0.002 -0.002,-0.002 0,0 0,-0.002 0,-0.002 -0.001,-0.002 -0.003,-0.004 -0.004,-0.006 l -0.002,-0.002 v -0.002 l -0.002,-0.002 c 0,0 0,-0.002 0,-0.002 0,0 -0.002,0 -0.002,0 0,0 0,-0.002 0,-0.002 v -0.002 c -0.0387,-0.13749 -0.0986,-0.27164 -0.17969,-0.38868 0.34933,0.29734 0.86517,0.78956 1.55859,1.49415 0.46027,0.46767 1.12796,1.07638 1.47657,1.32812 0.29341,0.21188 0.74245,0.55023 0.97461,0.73633 0.54648,0.43806 2.50856,1.78072 3.36718,2.3125 0.60993,0.37775 1.99622,1.05103 3.20899,1.58203 -0.0894,-0.0154 -0.17284,-0.0228 -0.24414,-0.0195 -0.0276,0.001 -0.0543,0.003 -0.0781,0.008 -0.0364,0.007 -0.0782,0.0227 -0.0957,0.0293 -0.002,7.6e-4 -0.004,0.001 -0.006,0.002 -8.5e-4,3.4e-4 -0.003,0.002 -0.004,0.002 -0.4222,0.16851 -0.50217,0.61163 -0.34961,0.94336 0.0764,0.16615 0.21257,0.31391 0.35157,0.41993 1.31646,1.00411 4.36864,1.87437 7.61523,2.32421 0.22327,0.031 0.42981,0.0615 0.57813,0.0859 0.0148,0.002 0.0274,0.006 0.041,0.008 0.0122,0.002 0.024,0.004 0.0352,0.006 0.01,0.002 0.0202,0.004 0.0293,0.006 0.008,0.001 0.0162,0.003 0.0234,0.004 -0.0201,-0.01 -0.051,-0.0323 -0.0879,-0.0625 0.0374,0.0278 0.0771,0.049 0.11524,0.0664 0,0 0.002,0 0.002,0 0,0 0.002,0.002 0.002,0.002 0,0 0.002,0 0.002,0 0.004,8e-4 0.008,0.001 0.0117,0.002 v 0.002 l -0.002,0.002 c 0.0916,0.039 0.17638,0.0529 0.2207,0.0586 0.14471,0.0186 0.99115,0.0631 1.1836,-0.44531 l 0.0117,-0.0332 h 0.002 c 1.18097,0.32475 2.09702,0.48935 2.89258,0.5332 1.31208,0.0723 2.42036,0.11008 2.85937,0.01 0.10163,-0.0232 0.36759,-0.0895 0.49024,-0.35742 l 0.008,-0.0195 0.008,-0.0195 c 0.008,-0.0235 0.0352,-0.1111 0.0352,-0.19336 0,-0.26881 -0.14509,-0.57259 -0.61133,-0.63086 -0.19349,-0.0242 -0.55277,-0.0256 -1.02148,-0.0273 -1.58754,-0.006 -2.5963,-0.0742 -4.07032,-0.45508 -1.47401,-0.38086 -3.41793,-1.08408 -6.76758,-2.35742 -3.43948,-1.3075 -4.91022,-2.02535 -6.875,-3.3418 -2.27253,-1.52266 -3.57416,-2.54541 -4.6875,-3.67187 -1.11474,-1.1279 -1.83882,-1.86301 -2.49804,-1.99219 0.0485,-0.14361 0.0627,-0.28618 0.041,-0.42969 1.21577,-0.23664 2.13362,-1.8816 1.4375,-2.90625 0.0462,-0.0821 0.0753,-0.16422 0.0937,-0.22851 0.002,-0.001 0.005,-0.002 0.008,-0.004 0.006,-0.003 0.0135,-0.008 0.0215,-0.0117 0.009,-0.004 0.0199,-0.009 0.0312,-0.0137 0.0754,-0.0323 0.202,-0.0683 0.37109,-0.0937 2.10612,-0.3169 1.8445,-3.8428 -0.23242,-3.94531 -0.37139,-0.52868 -1.0916,-0.70248 -1.70117,-0.70118 z m -0.0234,1.27735 c 0.19391,0.006 0.37854,0.0451 0.51563,0.10742 0.12186,0.0554 0.20407,0.12333 0.25586,0.19727 0.1824,0.26026 0.53458,0.35784 0.72656,0.38671 0.37744,0.0568 0.58795,0.34271 0.64258,0.67188 0.0273,0.16458 0.006,0.3252 -0.0527,0.44726 -0.0198,0.0411 -0.0429,0.0793 -0.0703,0.11329 -0.0555,-0.0653 -0.12422,-0.12258 -0.20898,-0.16797 -0.12724,-0.0681 -0.25921,-0.0957 -0.4043,-0.0801 -0.40907,0.0439 -0.63592,0.3908 -0.68555,0.73242 -0.23854,0.12734 -0.40634,0.34733 -0.43164,0.64453 -0.0975,0.0937 -0.16661,0.19129 -0.21094,0.29297 -0.01,3.8e-4 -0.0208,0.001 -0.0312,0.002 -0.16634,0.0136 -0.34999,0.10292 -0.45312,0.15625 -0.046,0.0238 -0.0475,0.0311 -0.18945,0.01 -0.18655,-0.028 -0.50674,-0.0485 -0.74414,0.14062 -0.18518,0.14751 -0.27473,0.40067 -0.19336,0.64649 0.0584,0.17648 0.19085,0.29861 0.27929,0.36328 0.14646,0.10709 0.32268,0.15693 0.46094,0.17773 0.31654,0.0476 0.79629,-0.009 1.12695,-0.22656 -0.0176,0.0972 -0.0592,0.21555 -0.13476,0.34375 -0.12475,0.21167 -0.32856,0.39976 -0.44922,0.45899 -0.0241,0.0118 -0.0446,0.0176 -0.0586,0.0215 -0.12141,-0.14403 -0.37147,-0.33317 -0.69336,-0.22656 -0.23718,0.0786 -0.34326,0.27204 -0.38868,0.38281 -0.0296,0.0722 -0.0512,0.15316 -0.0645,0.23828 -0.007,1.1e-4 -0.0129,-3.3e-4 -0.0195,0 -0.0187,9.3e-4 -0.0373,0.003 -0.0566,0.006 -0.20592,0.0293 -0.34639,0.15144 -0.43359,0.28125 0,0 0,0.002 0,0.002 0,0 -0.002,0 -0.002,0 0,0 -0.002,0 -0.002,0 0,0 0,0.002 0,0.002 l -0.002,0.002 c 0,0 -0.002,0 -0.002,0 0,0 0,0.002 0,0.002 0,0 -0.002,0 -0.002,0 -8.5e-4,2.6e-4 -0.003,0.002 -0.004,0.002 0,0 -0.002,0 -0.002,0 -0.004,0.002 -0.007,0.005 -0.0117,0.008 -0.005,0.003 -0.0102,0.005 -0.0156,0.008 -0.0808,0.0426 -0.23719,0.0801 -0.27735,0.0801 -0.0768,0 -0.17259,0.007 -0.27148,0.0332 -0.0429,-0.15479 -0.13444,-0.29501 -0.27344,-0.4082 0.0547,-0.0426 0.10792,-0.0922 0.1543,-0.15234 0.20456,-0.26536 0.15908,-0.5387 0.0234,-0.74414 0.1257,-0.13515 0.27947,-0.34644 0.24609,-0.625 -0.009,-0.071 -0.0279,-0.13375 -0.0527,-0.18946 0.21289,-0.27755 0.26241,-0.67313 -0.0391,-0.97461 -0.16292,-0.163 -0.42761,-0.28333 -0.73633,-0.13476 -0.0973,0.0468 -0.21284,0.14073 -0.27539,0.19336 -0.044,0.037 -0.0697,0.044 -0.082,0.0469 -0.005,0.001 -0.0102,0.002 -0.0137,0.002 -0.005,-1.7e-4 -0.0111,-0.002 -0.0195,-0.004 -0.0225,-0.006 -0.0663,-0.0279 -0.11523,-0.0762 -0.11017,-0.10865 -0.20982,-0.34662 -0.19922,-0.52149 0.007,-0.11658 0.0393,-0.19758 0.12695,-0.27929 0.0873,-0.0814 0.22265,-0.21268 0.28711,-0.29883 0.20948,-0.27998 0.17614,-0.55742 0.0352,-0.78321 -9e-4,-0.001 -0.003,-0.005 -0.004,-0.006 0,0 0,-0.002 0,-0.002 0,0 0,-0.002 0,-0.002 4.5e-4,-0.005 0.003,-0.0213 0.0195,-0.0508 0.0246,-0.045 0.0815,-0.11446 0.16602,-0.17774 0.21124,-0.15819 0.56999,-0.25057 0.82617,-0.17773 0.30641,0.0871 0.73022,0.258 1.05859,0.0547 0.22048,-0.13651 0.30626,-0.38883 0.34766,-0.48243 0.0352,-0.0796 0.10161,-0.15896 0.20898,-0.23437 0.16106,-0.11311 0.41219,-0.20274 0.67383,-0.22656 0.0654,-0.006 0.13068,-0.008 0.19531,-0.006 z m -1.66406,7.40625 c -0.007,0.0314 -0.0132,0.0641 -0.0176,0.0957 -0.11602,0.0136 -0.24903,0.0215 -0.40429,0.0234 0.14588,-0.0247 0.29092,-0.0692 0.42187,-0.11914 z m -1.11328,0.0234 c 0.0672,0.0439 0.1417,0.0731 0.2207,0.0918 -0.0672,2.5e-4 -0.13788,6.3e-4 -0.20898,0.002 -0.003,-0.0324 -0.007,-0.0629 -0.0117,-0.0937 z m -5.39453,3.7246 c 0,0.0682 -0.007,0.1208 -0.0156,0.16211 -0.003,-2.4e-4 -0.005,2.2e-4 -0.008,0 0.0156,-0.0534 0.0234,-0.10842 0.0234,-0.16211 z m 9.08203,2.6504 c -0.53615,0.006 -0.79119,0.5064 -0.91992,0.94921 -0.06,0.20646 -0.22529,0.43094 -0.80274,0.86524 -0.25688,0.19317 -0.5151,0.49263 -0.35937,0.89844 0.11007,0.28682 0.37195,0.39146 0.5664,0.4082 0.53577,0.0461 1.24619,-0.43432 1.58399,-0.80078 0.0543,-0.0589 0.10684,-0.11036 0.1543,-0.1543 0.0502,0.0449 0.10429,0.0945 0.16015,0.14649 0.23653,0.21988 0.65375,0.54196 0.90039,0.68359 0.15353,0.0882 0.51907,0.34792 0.71289,0.51367 0.21799,0.18641 0.53514,0.43265 0.74414,0.54492 0.2052,0.11023 0.64827,0.3449 0.99805,0.0684 0.35035,-0.27698 0.19852,-0.69886 0.12305,-0.85547 -0.29746,-0.61726 -1.33166,-1.64046 -2.20508,-2.19726 -0.2175,-0.13865 -0.45661,-0.31124 -0.63086,-0.44922 -0.11617,-0.092 -0.21043,-0.18018 -0.21875,-0.18945 -0.18842,-0.20989 -0.45849,-0.43579 -0.80664,-0.43164 z m 5.20312,2.42578 c -0.0335,-1.9e-4 -0.0663,0.002 -0.0996,0.008 -0.0374,0.006 -0.11027,0.0216 -0.19531,0.0742 -0.21198,0.13101 -0.33049,0.36521 -0.30273,0.61523 0.0635,0.57243 0.87638,1.00037 1.31054,1.1836 0.64235,0.27107 1.73815,0.82064 2.33985,1.17382 0.29409,0.17262 0.7756,0.39139 1.09375,0.49805 2.4e-4,8e-5 0.43214,0.15639 0.49609,0.17969 0,0 0.002,0.002 0.002,0.002 l 0.008,0.006 c 0.29617,0.19063 0.77545,0.24508 1.0332,-0.17187 0.20798,-0.3365 0.0553,-0.68275 -0.25391,-0.86524 -0.15427,-0.091 -0.40402,-0.1876 -0.69531,-0.29687 -0.93432,-0.35049 -1.45415,-0.65129 -2.10547,-1.2168 -0.55804,-0.48454 -0.87844,-0.65976 -1.47851,-0.80273 -0.14268,-0.034 -0.31881,-0.0897 -0.44922,-0.13868 -0.0869,-0.0326 -0.1609,-0.0688 -0.16016,-0.0684 -0.0803,-0.0474 -0.30874,-0.1784 -0.54297,-0.17968 z m 5.39258,0.49023 c 0.004,0.002 0.009,0.005 0.0156,0.0117 -0.004,-0.003 -0.008,-0.006 -0.0117,-0.008 -0.002,-9.7e-4 -0.003,-0.003 -0.004,-0.004 z m -8.26172,0.45899 c 0.002,0.003 0.004,0.006 0.006,0.008 0.002,0.003 0.004,0.007 0.006,0.01 0.002,0.002 0.005,0.004 0.006,0.006 0.001,0.002 0.001,0.003 0.002,0.004 0,0 0.002,0.002 0.002,0.002 0,0 0,0.002 0,0.002 0,0 0,0.002 0,0.002 0,0 0.002,0.002 0.002,0.002 0,0 0,0.002 0,0.002 0,0 -0.002,0.002 -0.002,0.002 0,0 0,0.002 0,0.002 0,0 -0.002,0 -0.002,0 0,0 -0.002,-0.002 -0.002,-0.002 0,0 -0.002,-0.002 -0.002,-0.002 -0.004,-0.005 -0.008,-0.0171 -0.0156,-0.0371 z m 10.25586,0.008 c 0.78311,0.3011 1.26246,0.44569 1.92774,0.68945 -0.13549,-0.0378 -0.48601,-0.0979 -0.57032,-0.12695 -0.10836,-0.0374 -0.80858,-0.33643 -1.35742,-0.5625 z m -2.42968,0.39844 c 0,0 0.002,0 0.002,0 0,0 0.002,0 0.002,0 0,0 0.002,0 0.002,0 0,0 0.002,0 0.002,0 0.001,3.1e-4 0.002,-4.9e-4 0.004,0 0.002,5.4e-4 0.003,0.001 0.006,0.002 0.003,8.4e-4 0.006,0.003 0.01,0.004 0.002,7.7e-4 0.005,0.001 0.008,0.002 -0.0146,-5e-4 -0.0262,-0.003 -0.0312,-0.004 0,0 -0.002,0 -0.002,0 0,0 -0.002,-0.002 -0.002,-0.002 z m 2.5625,0.0215 c 0.005,-2.7e-4 0.0107,0.001 0.0137,0.002 0,0 0.002,0 0.002,0 0,0 0.002,0 0.002,0 0,0 0,0.002 0,0.002 0,0 0.002,0 0.002,0 0,0 0,0.002 0,0.002 0,0 0,0.002 0,0.002 0,0 0,0.002 0,0.002 0,0 0,0.002 0,0.002 0,0 -0.002,0.002 -0.002,0.002 0,0 -0.002,0.002 -0.002,0.002 0,0 -0.002,0.002 -0.002,0.002 -0.001,7.9e-4 -0.003,0.001 -0.004,0.002 h -0.043 c -0.004,-8.6e-4 -0.008,-9.5e-4 -0.0117,-0.002 -0.005,-0.001 -0.009,-0.003 -0.0137,-0.004 0.0282,-0.009 0.0461,-0.013 0.0586,-0.0137 z m -0.29493,0.93555 c 0.003,0.001 0.005,0.003 0.008,0.004 0.004,0.002 0.008,0.004 0.0117,0.006 0,0 0.002,0 0.002,0 0,0 0.002,0.002 0.002,0.002 0.003,0.003 0.008,0.0106 0.01,0.0137 0,0 0,0.002 0,0.002 0,0 -0.002,0 -0.002,0 0,0 0,-0.002 0,-0.002 -0.005,-0.003 -0.0146,-0.009 -0.0312,-0.0254 z"
         id="path354"
         transform="matrix(0.99325724,0,0,0.99325724,-0.28570369,7.9239294)" /></g></g></svg>
